<svg width="24" height="24" viewBox="0 0 24 24" fill="none" xmlns="http://www.w3.org/2000/svg">
<g clip-path="url(#clip0_112_9765)">
<path d="M14.8734 4H9.03962C6.98062 4 6.52308 5.02951 6.25998 6.29922L5.32199 10.7832H18.5911L17.6531 6.29922C17.39 5.02951 16.9324 4 14.8734 4Z" stroke="#8C8C8C" stroke-width="1.5" stroke-linecap="round" stroke-linejoin="round"/>
<path d="M20.2388 18.0954C20.3303 19.0677 19.5525 19.9027 18.5573 19.9027H17.0016C16.1094 19.9027 15.9836 19.5252 15.8234 19.0448L15.6518 18.5529C15.4231 17.878 15.2744 17.4204 14.0733 17.4204H9.82948C8.63984 17.4204 8.45681 17.9352 8.25091 18.5529L8.07933 19.0448C7.91919 19.5138 7.79336 19.9027 6.90113 19.9027H5.34545C4.35027 19.9027 3.57243 19.0677 3.66394 18.0954L4.13293 13.0394C4.24732 11.7926 4.48753 10.7745 6.66091 10.7745H17.2418C19.4152 10.7745 19.6554 11.7926 19.7698 13.0394L20.2388 18.0954Z" stroke="#8C8C8C" stroke-width="1.5" stroke-linecap="round" stroke-linejoin="round"/>
<path d="M5.32257 8.28955H4.48754" stroke="#8C8C8C" stroke-width="1.5" stroke-linecap="round" stroke-linejoin="round"/>
<path d="M19.4268 8.28955H18.5917" stroke="#8C8C8C" stroke-width="1.5" stroke-linecap="round" stroke-linejoin="round"/>
<path d="M6.98085 14.0983H9.46309" stroke="#8C8C8C" stroke-width="1.5" stroke-linecap="round" stroke-linejoin="round"/>
<path d="M14.4507 14.0983H16.933" stroke="#8C8C8C" stroke-width="1.5" stroke-linecap="round" stroke-linejoin="round"/>
</g>
<defs>
<clipPath id="clip0_112_9765">
<rect width="24" height="24" fill="white"/>
</clipPath>
</defs>
</svg>
