<svg width="17" height="20" viewBox="0 0 17 20" fill="none" xmlns="http://www.w3.org/2000/svg">
<g clip-path="url(#clip0_118_8606)">
<path fill-rule="evenodd" clip-rule="evenodd" d="M15.1649 6.21949C15.5472 6.25096 15.8323 6.58509 15.8017 6.96734C15.7962 7.03028 15.2945 13.2417 15.0057 15.8472C14.8262 17.4641 13.7581 18.448 12.1458 18.4776C10.912 18.4989 9.72172 18.5109 8.55829 18.5109C7.30415 18.5109 6.08149 18.4971 4.87178 18.4721C3.32424 18.4415 2.25337 17.4382 2.07844 15.8537C1.78689 13.2251 1.28801 7.02936 1.28338 6.96734C1.25191 6.58509 1.53699 6.25003 1.91924 6.21949C2.29595 6.20931 2.63655 6.47402 2.6671 6.85535C2.67005 6.89552 2.874 9.42566 3.09624 11.929L3.14088 12.4286C3.25282 13.6729 3.36629 14.8685 3.45845 15.7009C3.55749 16.6015 4.0434 17.0661 4.90047 17.0837C7.21438 17.1328 9.57548 17.1356 12.1208 17.0893C13.0315 17.0717 13.5239 16.6163 13.6257 15.6945C13.9127 13.1084 14.4125 6.91829 14.418 6.85535C14.4486 6.47402 14.7864 6.20746 15.1649 6.21949ZM10.5009 0C11.3505 0 12.0974 0.572922 12.3168 1.39389L12.5519 2.56103C12.6279 2.94363 12.9636 3.22304 13.3524 3.22918L16.3898 3.22928C16.773 3.22928 17.084 3.54027 17.084 3.92345C17.084 4.30663 16.773 4.61762 16.3898 4.61762L13.3795 4.61748C13.3748 4.61758 13.3702 4.61762 13.3655 4.61762L13.3429 4.6167L3.74076 4.61751C3.7333 4.61758 3.72583 4.61762 3.71835 4.61762L3.70409 4.6167L0.694171 4.61762C0.310988 4.61762 0 4.30663 0 3.92345C0 3.54027 0.310988 3.22928 0.694171 3.22928L3.73094 3.22836L3.82444 3.22244C4.17271 3.17725 4.46216 2.91274 4.53284 2.56103L4.75775 1.43554C4.98637 0.572922 5.73329 0 6.58296 0H10.5009ZM10.5009 1.38834H6.58296C6.36082 1.38834 6.16553 1.53736 6.10907 1.75116L5.89342 2.83407C5.86601 2.97123 5.8261 3.10342 5.77502 3.22953H11.3091C11.2579 3.10342 11.2179 2.97123 11.1904 2.83407L10.9655 1.70859C10.9183 1.53736 10.723 1.38834 10.5009 1.38834Z" fill="#B8B5B5"/>
</g>
<defs>
<clipPath id="clip0_118_8606">
<rect width="17" height="20" fill="white"/>
</clipPath>
</defs>
</svg>
