<svg width="24" height="24" viewBox="0 0 24 24" fill="none" xmlns="http://www.w3.org/2000/svg">
<path d="M9.16667 1.66669H7.50001C3.33334 1.66669 1.66667 3.33335 1.66667 7.50002V12.5C1.66667 16.6667 3.33334 18.3334 7.50001 18.3334H12.5C16.6667 18.3334 18.3333 16.6667 18.3333 12.5V10.8334" stroke="#B0B0B0" stroke-width="1.5" stroke-linecap="round" stroke-linejoin="round"/>
<path d="M13.3667 2.51669L6.80001 9.08336C6.55001 9.33336 6.30001 9.82503 6.25001 10.1834L5.89167 12.6917C5.75834 13.6 6.40001 14.2334 7.30834 14.1084L9.81667 13.75C10.1667 13.7 10.6583 13.45 10.9167 13.2L17.4833 6.63336C18.6167 5.50003 19.15 4.18336 17.4833 2.51669C15.8167 0.850027 14.5 1.38336 13.3667 2.51669Z" stroke="#B0B0B0" stroke-width="1.5" stroke-miterlimit="10" stroke-linecap="round" stroke-linejoin="round"/>
<path d="M12.425 3.45831C12.9833 5.44998 14.5417 7.00831 16.5417 7.57498" stroke="#B0B0B0" stroke-width="1.5" stroke-miterlimit="10" stroke-linecap="round" stroke-linejoin="round"/>
</svg>
