<svg width="61" height="38" viewBox="0 0 61 38" fill="none" xmlns="http://www.w3.org/2000/svg">
<path d="M32.3846 14.2605V4.52184C24.5756 3.40885 16.9294 10.5505 14.0823 14.2605H32.3846Z" fill="#F0A500"/>
<path d="M25.3398 17.0823H33.787V19.8981H25.3398V17.0823Z" fill="#F0A500"/>
<path d="M35.1918 17.0823H38.0075V19.8981H35.1918V17.0823Z" fill="#F0A500"/>
<circle cx="18.3035" cy="28.3447" r="2.81573" fill="#F0A500"/>
<circle cx="46.4612" cy="28.3447" r="2.81573" fill="#F0A500"/>
<path d="M17.602 24.1235C16.9059 24.1235 16.2254 24.3299 15.6466 24.7167C15.0678 25.1034 14.6167 25.6531 14.3503 26.2963C14.0839 26.9394 14.0142 27.6471 14.15 28.3298C14.2858 29.0126 14.621 29.6397 15.1132 30.132C15.6055 30.6242 16.2326 30.9594 16.9154 31.0952C17.5981 31.231 18.3058 31.1613 18.9489 30.8949C19.5921 30.6285 20.1418 30.1774 20.5285 29.5986C20.9152 29.0198 21.1217 28.3393 21.1217 27.6432C21.1217 26.7097 20.7509 25.8145 20.0908 25.1544C19.4307 24.4943 18.5355 24.1235 17.602 24.1235ZM17.602 29.403C17.2539 29.403 16.9137 29.2998 16.6243 29.1064C16.3349 28.913 16.1093 28.6382 15.9761 28.3166C15.8429 27.9951 15.8081 27.6412 15.876 27.2998C15.9439 26.9585 16.1115 26.6449 16.3576 26.3988C16.6037 26.1527 16.9173 25.9851 17.2587 25.9172C17.6001 25.8492 17.9539 25.8841 18.2755 26.0173C18.597 26.1505 18.8719 26.3761 19.0653 26.6655C19.2586 26.9549 19.3618 27.2951 19.3618 27.6432C19.3618 28.1099 19.1764 28.5575 18.8464 28.8876C18.5164 29.2176 18.0687 29.403 17.602 29.403Z" fill="#38497D"/>
<path d="M45.7526 24.1235C45.0565 24.1235 44.376 24.3299 43.7972 24.7167C43.2184 25.1034 42.7673 25.6531 42.5009 26.2963C42.2345 26.9394 42.1648 27.6471 42.3006 28.3298C42.4364 29.0126 42.7716 29.6397 43.2639 30.132C43.7561 30.6242 44.3832 30.9594 45.066 31.0952C45.7487 31.231 46.4564 31.1613 47.0996 30.8949C47.7427 30.6285 48.2924 30.1774 48.6791 29.5986C49.0659 29.0198 49.2723 28.3393 49.2723 27.6432C49.2723 26.7097 48.9015 25.8145 48.2414 25.1544C47.5814 24.4943 46.6861 24.1235 45.7526 24.1235ZM45.7526 29.403C45.4046 29.403 45.0643 29.2998 44.7749 29.1064C44.4855 28.913 44.26 28.6382 44.1268 28.3166C43.9936 27.9951 43.9587 27.6412 44.0266 27.2998C44.0945 26.9585 44.2621 26.6449 44.5082 26.3988C44.7544 26.1527 45.0679 25.9851 45.4093 25.9172C45.7507 25.8492 46.1045 25.8841 46.4261 26.0173C46.7477 26.1505 47.0225 26.3761 47.2159 26.6655C47.4093 26.9549 47.5125 27.2951 47.5125 27.6432C47.5125 28.1099 47.3271 28.5575 46.997 28.8876C46.667 29.2176 46.2194 29.403 45.7526 29.403Z" fill="#38497D"/>
<path d="M54.7748 13.4938L51.6275 10.3507C49.294 8.02028 46.5237 6.17165 43.4748 4.9104C40.4259 3.64916 37.158 3 33.8579 3C30.5577 3 27.2899 3.64916 24.241 4.9104C21.1921 6.17165 18.4217 8.02028 16.0882 10.3507L12.9572 13.4757H7.62973C5.6069 13.4779 3.66757 14.2814 2.23721 15.7099C0.806846 17.1383 0.00227186 19.075 0 21.0951V23.9524C0.00151437 25.2149 0.504404 26.4253 1.39836 27.3181C2.29231 28.2108 3.50434 28.713 4.76858 28.7145H9.60297C9.8339 30.5553 10.7299 32.2485 12.1227 33.476C13.5155 34.7035 15.3093 35.3809 17.1669 35.3809C19.0245 35.3809 20.8183 34.7035 22.2111 33.476C23.6039 32.2485 24.4999 30.5553 24.7308 28.7145H38.2145C38.4454 30.5553 39.3414 32.2485 40.7342 33.476C42.127 34.7035 43.9208 35.3809 45.7784 35.3809C47.636 35.3809 49.4298 34.7035 50.8226 33.476C52.2154 32.2485 53.1114 30.5553 53.3423 28.7145H55.3156C56.3273 28.7145 57.2977 28.3132 58.0131 27.5987C58.7285 26.8842 59.1304 25.9152 59.1304 24.9048V18.2378C59.1291 17.0466 58.6813 15.8991 57.8751 15.0211C57.069 14.1431 55.963 13.5982 54.7748 13.4938ZM57.223 18.2378V19.1902H54.3619C54.1089 19.1902 53.8663 19.0899 53.6875 18.9113C53.5086 18.7327 53.4081 18.4904 53.4081 18.2378V15.3805H54.3619C55.1207 15.3805 55.8484 15.6816 56.385 16.2174C56.9216 16.7532 57.223 17.48 57.223 18.2378ZM52.0596 13.4757H35.2875V4.95142C40.9447 5.28312 46.2813 7.68437 50.278 11.6965L52.0596 13.4757ZM17.4397 11.6965C21.6685 7.45283 27.386 5.02054 33.3801 4.91523V13.4757H15.6543L17.4397 11.6965ZM7.62973 15.3805V18.2378C7.62973 18.743 7.42877 19.2275 7.07106 19.5848C6.71335 19.942 6.22818 20.1427 5.7223 20.1427H1.99327C2.21956 18.8126 2.90933 17.6051 3.94073 16.7337C4.97212 15.8623 6.27875 15.383 7.62973 15.3805ZM17.1669 33.4767C16.0351 33.4767 14.9288 33.1415 13.9878 32.5136C13.0467 31.8857 12.3133 30.9932 11.8802 29.949C11.4471 28.9048 11.3338 27.7558 11.5546 26.6472C11.7753 25.5387 12.3203 24.5205 13.1206 23.7213C13.9209 22.9221 14.9405 22.3778 16.0505 22.1573C17.1606 21.9368 18.3111 22.05 19.3567 22.4825C20.4023 22.915 21.296 23.6475 21.9248 24.5873C22.5536 25.527 22.8892 26.6319 22.8892 27.7621C22.8877 29.2772 22.2843 30.7299 21.2115 31.8013C20.1387 32.8726 18.6841 33.4752 17.1669 33.4767ZM45.7784 33.4767C44.6466 33.4767 43.5403 33.1415 42.5993 32.5136C41.6582 31.8857 40.9248 30.9932 40.4917 29.949C40.0586 28.9048 39.9453 27.7558 40.166 26.6472C40.3868 25.5387 40.9318 24.5205 41.7321 23.7213C42.5324 22.9221 43.552 22.3778 44.662 22.1573C45.772 21.9368 46.9226 22.05 47.9682 22.4825C49.0138 22.915 49.9075 23.6475 50.5363 24.5873C51.1651 25.527 51.5007 26.6319 51.5007 27.7621C51.4992 29.2772 50.8958 30.7299 49.823 31.8013C48.7502 32.8726 47.2956 33.4752 45.7784 33.4767ZM55.3156 26.8097H53.3423C53.1114 24.9689 52.2154 23.2757 50.8226 22.0482C49.4298 20.8207 47.636 20.1433 45.7784 20.1433C43.9208 20.1433 42.127 20.8207 40.7342 22.0482C39.3414 23.2757 38.4454 24.9689 38.2145 26.8097H24.7308C24.4999 24.9689 23.6039 23.2757 22.2111 22.0482C20.8183 20.8207 19.0245 20.1433 17.1669 20.1433C15.3093 20.1433 13.5155 20.8207 12.1227 22.0482C10.7299 23.2757 9.8339 24.9689 9.60297 26.8097H4.76858C4.00976 26.8097 3.28201 26.5086 2.74544 25.9728C2.20888 25.4369 1.90743 24.7102 1.90743 23.9524V22.0475H5.7223C6.73407 22.0475 7.70439 21.6461 8.41982 20.9317C9.13524 20.2172 9.53717 19.2482 9.53717 18.2378V15.3805H51.5007V18.2378C51.5007 18.9956 51.8021 19.7224 52.3387 20.2582C52.8753 20.7941 53.603 21.0951 54.3619 21.0951H57.223V24.9048C57.223 25.41 57.022 25.8945 56.6643 26.2518C56.3066 26.609 55.8214 26.8097 55.3156 26.8097Z" fill="#38497D"/>
</svg>
