<svg width="47" height="63" viewBox="0 0 47 63" fill="none" xmlns="http://www.w3.org/2000/svg">
<rect x="14" y="5" width="18" height="6" fill="#F0A500"/>
<path d="M18.4681 42.1783H27.5525C27.7355 42.1783 27.911 42.1056 28.0404 41.9762C28.1698 41.8468 28.2425 41.6713 28.2425 41.4884C28.2425 41.3054 28.1698 41.1299 28.0404 41.0005C27.911 40.8711 27.7355 40.7984 27.5525 40.7984H18.4681C18.2851 40.7984 18.1096 40.8711 17.9802 41.0005C17.8508 41.1299 17.7781 41.3054 17.7781 41.4884C17.7781 41.6713 17.8508 41.8468 17.9802 41.9762C18.1096 42.1056 18.2851 42.1783 18.4681 42.1783Z" fill="#38497D"/>
<path d="M29.7257 44.3648H33.2507C33.8759 44.3648 34.4755 44.1164 34.9176 43.6743C35.3596 43.2323 35.608 42.6326 35.608 42.0074C35.608 41.3822 35.3596 40.7826 34.9176 40.3405C34.4755 39.8984 33.8759 39.6501 33.2507 39.6501H30.3631C30.2004 39.6556 30.0445 39.7165 29.9212 39.8229C29.798 39.9292 29.7149 40.0746 29.6856 40.2347L29.0482 43.5451C29.029 43.6449 29.032 43.7477 29.0571 43.8462C29.0822 43.9447 29.1289 44.0364 29.1936 44.1148C29.2584 44.1931 29.3396 44.2561 29.4316 44.2994C29.5236 44.3426 29.624 44.3649 29.7257 44.3648ZM30.9321 41.03H33.2503C33.5095 41.03 33.7582 41.133 33.9415 41.3163C34.1248 41.4996 34.2278 41.7482 34.2278 42.0074C34.2278 42.2667 34.1248 42.5153 33.9415 42.6986C33.7582 42.8819 33.5095 42.9849 33.2503 42.9849H30.5618L30.9321 41.03Z" fill="#38497D"/>
<path d="M12.767 44.3648H16.2924C16.3936 44.3664 16.4939 44.3453 16.5859 44.3032C16.678 44.261 16.7594 44.1989 16.8244 44.1212C16.8893 44.0435 16.9361 43.9523 16.9612 43.8543C16.9864 43.7562 16.9893 43.6538 16.9698 43.5544L16.3324 40.233C16.3031 40.073 16.2198 39.9279 16.0965 39.8218C15.9731 39.7158 15.8172 39.6551 15.6546 39.6501H12.767C12.1418 39.6501 11.5422 39.8984 11.1001 40.3405C10.658 40.7826 10.4097 41.3822 10.4097 42.0074C10.4097 42.6327 10.658 43.2323 11.1001 43.6743C11.5422 44.1164 12.1418 44.3648 12.767 44.3648ZM12.767 41.03H15.085L15.4556 42.9849H12.767C12.5078 42.9849 12.2592 42.8819 12.0759 42.6986C11.8926 42.5153 11.7896 42.2667 11.7896 42.0074C11.7896 41.7482 11.8926 41.4996 12.0759 41.3163C12.2592 41.133 12.5078 41.03 12.767 41.03Z" fill="#38497D"/>
<path d="M31.3688 30.9081H15.0858C14.5184 30.9133 13.9661 31.0919 13.5031 31.4199C13.0401 31.7479 12.6885 32.2096 12.4953 32.7432L10.6546 37.8244C10.0256 37.9202 9.45161 38.2382 9.03676 38.7207C8.62191 39.2032 8.3936 39.8184 8.39319 40.4547V45.2894C8.04821 45.4022 7.70323 45.7669 7.70323 46.1995V48.4905C7.70365 48.614 7.72853 48.7362 7.77645 48.85C7.82436 48.9639 7.89436 49.067 7.98239 49.1537C8.07042 49.2403 8.17474 49.3086 8.28932 49.3546C8.40391 49.4007 8.52649 49.4236 8.64997 49.422H8.66078L8.67722 51.7577C8.679 52.2036 8.85612 52.6309 9.17031 52.9473C9.4765 53.2596 9.8932 53.439 10.3305 53.4467H10.343L12.9547 53.4097C13.395 53.402 13.8145 53.2208 14.1219 52.9055C14.4294 52.5902 14.5999 52.1663 14.5966 51.726L14.5805 49.422H31.8624L31.8789 51.7774C31.8815 52.2165 32.056 52.6372 32.3651 52.9493C32.6741 53.2613 33.0931 53.4399 33.5323 53.4467H33.5447L36.1565 53.4097C36.5968 53.402 37.0162 53.2208 37.3237 52.9055C37.6311 52.5902 37.8016 52.1663 37.7983 51.726L37.7822 49.422H37.8046C37.9281 49.4236 38.0506 49.4007 38.1652 49.3546C38.2798 49.3086 38.3841 49.2403 38.4722 49.1537C38.5602 49.067 38.6302 48.9639 38.6781 48.85C38.726 48.7362 38.7509 48.614 38.7513 48.4905V46.1995C38.7513 45.7669 38.4063 45.4022 38.0614 45.2894V40.4547C38.0607 39.8195 37.832 39.2056 37.417 38.7247C37.002 38.2438 36.4281 37.9278 35.7998 37.8342L33.9586 32.7432C33.7656 32.2097 33.4141 31.748 32.9511 31.42C32.4882 31.092 31.9361 30.9134 31.3688 30.9081ZM12.945 52.0062L10.3332 52.0255C10.26 52.0242 10.1902 51.9943 10.1386 51.9422C10.0871 51.8901 10.0579 51.82 10.0573 51.7468L10.0407 49.422H13.2005L13.2167 51.7262C13.2173 51.7992 13.1891 51.8695 13.1382 51.9219C13.0874 51.9743 13.018 52.0046 12.945 52.0062ZM36.1467 52.0062L33.535 52.0255C33.462 52.0236 33.3925 51.9935 33.3411 51.9415C33.2897 51.8896 33.2603 51.8199 33.259 51.7468L33.2425 49.422H36.4022L36.4183 51.7262C36.419 51.7992 36.3908 51.8695 36.34 51.9219C36.2892 51.9743 36.2197 52.0046 36.1467 52.0062ZM37.3714 46.6621V48.0421H9.08315V46.6621H37.3714ZM18.4582 45.2822L19.0182 44.2473H26.9312L27.4912 45.2822H18.4582ZM36.6814 40.4547V45.2822H29.0869L27.9254 43.2462C27.8665 43.1373 27.7807 43.0454 27.6763 42.9791C27.5718 42.9128 27.4521 42.8743 27.3285 42.8674H18.621C18.4975 42.8744 18.3778 42.9129 18.2734 42.9792C18.169 43.0455 18.0832 43.1374 18.0243 43.2462L16.8625 45.2822H9.7731V40.4547C9.77326 40.1186 9.9069 39.7963 10.1446 39.5587C10.3824 39.321 10.7048 39.1876 11.0409 39.1876H35.4137C35.7498 39.1876 36.0722 39.321 36.3099 39.5587C36.5477 39.7963 36.6813 40.1186 36.6814 40.4547ZM12.1324 37.8077L13.7925 33.2151C13.8884 32.9475 14.0635 32.7155 14.2945 32.5499C14.5256 32.3842 14.8016 32.2929 15.0858 32.288H31.3688C31.653 32.2929 31.929 32.3842 32.1601 32.5498C32.3912 32.7154 32.5663 32.9475 32.6622 33.2151L34.322 37.8077H12.1324Z" fill="#38497D"/>
<path d="M20.724 16.7627H33.2988C33.4818 16.7627 33.6573 16.69 33.7867 16.5606C33.9161 16.4312 33.9887 16.2557 33.9887 16.0727C33.9887 15.8897 33.9161 15.7142 33.7867 15.5848C33.6573 15.4554 33.4818 15.3828 33.2988 15.3828H20.724C20.541 15.3828 20.3655 15.4554 20.2361 15.5848C20.1067 15.7142 20.034 15.8897 20.034 16.0727C20.034 16.2557 20.1067 16.4312 20.2361 16.5606C20.3655 16.69 20.541 16.7627 20.724 16.7627Z" fill="#38497D"/>
<path d="M12.823 18.0875L14.1301 19.2657C14.2614 19.3841 14.4332 19.4475 14.6099 19.4429C14.7867 19.4383 14.9549 19.3661 15.0799 19.2411L17.7817 16.5387C17.9111 16.4093 17.9838 16.2338 17.9838 16.0509C17.9838 15.8679 17.9111 15.6924 17.7818 15.563C17.6524 15.4336 17.4769 15.3609 17.2939 15.3608C17.1109 15.3608 16.9354 15.4335 16.806 15.5629L14.5674 17.8016L13.7468 17.0619C13.6106 16.9415 13.4323 16.8797 13.2508 16.89C13.0692 16.9003 12.8991 16.9818 12.7773 17.1169C12.6556 17.252 12.5921 17.4296 12.6006 17.6113C12.6092 17.7929 12.6891 17.9638 12.823 18.0869V18.0875Z" fill="#F0A500"/>
<path d="M20.724 19.5255H23.7893C23.9723 19.5255 24.1478 19.4528 24.2772 19.3234C24.4066 19.194 24.4793 19.0185 24.4793 18.8355C24.4793 18.6525 24.4066 18.477 24.2772 18.3476C24.1478 18.2182 23.9723 18.1455 23.7893 18.1455H20.724C20.541 18.1455 20.3655 18.2182 20.2361 18.3476C20.1067 18.477 20.034 18.6525 20.034 18.8355C20.034 19.0185 20.1067 19.194 20.2361 19.3234C20.3655 19.4528 20.541 19.5255 20.724 19.5255Z" fill="#38497D"/>
<path d="M13.1084 28.7221H16.2132C16.3962 28.7221 16.5716 28.6494 16.701 28.52C16.8304 28.3906 16.9031 28.2152 16.9031 28.0322V24.9274C16.9031 24.7444 16.8304 24.5689 16.701 24.4395C16.5716 24.3101 16.3962 24.2374 16.2132 24.2374H13.1084C12.9254 24.2374 12.7499 24.3101 12.6205 24.4395C12.4911 24.5689 12.4184 24.7444 12.4184 24.9274V28.0322C12.4184 28.2152 12.4911 28.3906 12.6205 28.52C12.7499 28.6494 12.9254 28.7221 13.1084 28.7221ZM13.7983 25.6173H15.5232V27.3422H13.7983V25.6173Z" fill="#38497D"/>
<path d="M20.724 25.8488H33.2988C33.4818 25.8488 33.6573 25.7762 33.7867 25.6468C33.9161 25.5174 33.9887 25.3419 33.9887 25.1589C33.9887 24.9759 33.9161 24.8004 33.7867 24.671C33.6573 24.5416 33.4818 24.4689 33.2988 24.4689H20.724C20.541 24.4689 20.3655 24.5416 20.2361 24.671C20.1067 24.8004 20.034 24.9759 20.034 25.1589C20.034 25.3419 20.1067 25.5174 20.2361 25.6468C20.3655 25.7762 20.541 25.8488 20.724 25.8488Z" fill="#38497D"/>
<path d="M20.724 28.7211H23.7893C23.9723 28.7211 24.1478 28.6484 24.2772 28.519C24.4066 28.3897 24.4793 28.2142 24.4793 28.0312C24.4793 27.8482 24.4066 27.6727 24.2772 27.5433C24.1478 27.4139 23.9723 27.3412 23.7893 27.3412H20.724C20.541 27.3412 20.3655 27.4139 20.2361 27.5433C20.1067 27.6727 20.034 27.8482 20.034 28.0312C20.034 28.2142 20.1067 28.3897 20.2361 28.519C20.3655 28.6484 20.541 28.7211 20.724 28.7211Z" fill="#38497D"/>
<path d="M4.13227 60.3465H42.3249C43.4216 60.345 44.4729 59.9081 45.2478 59.1319C46.0226 58.3557 46.4576 57.3036 46.4571 56.2068V9.82336C46.4566 9.28245 46.3491 8.74699 46.1408 8.24779C45.9325 7.74858 45.6276 7.2955 45.2435 6.91459C44.8595 6.53368 44.4039 6.23248 43.903 6.0283C43.4021 5.82413 42.8658 5.72101 42.3249 5.72489H33.3479V4.68996C33.3498 4.60024 33.3337 4.51106 33.3007 4.4276C33.2678 4.34415 33.2185 4.2681 33.1558 4.20388C33.0931 4.13966 33.0183 4.08856 32.9357 4.05356C32.8531 4.01855 32.7643 4.00035 32.6745 4H13.7826C13.6929 4.00035 13.6041 4.01855 13.5215 4.05356C13.4388 4.08856 13.364 4.13966 13.3013 4.20388C13.2386 4.2681 13.1894 4.34415 13.1564 4.4276C13.1234 4.51106 13.1074 4.60024 13.1092 4.68996V5.72489H4.13227C3.59137 5.72101 3.05505 5.82413 2.55415 6.0283C2.05326 6.23248 1.59768 6.53368 1.21363 6.91459C0.829581 7.2955 0.524643 7.74858 0.316361 8.24779C0.108078 8.74699 0.000562533 9.28245 3.61691e-07 9.82336V56.2068C-0.000457877 57.3036 0.43452 58.3557 1.20936 59.1319C1.98419 59.9081 3.0355 60.345 4.13227 60.3465ZM14.4891 5.37992H31.968V11.0146H14.4891V5.37992ZM13.7826 12.3945H32.6745C32.7625 12.3978 32.8503 12.3831 32.9324 12.3515C33.0146 12.3198 33.0894 12.2717 33.1524 12.2102C33.2154 12.1487 33.2652 12.075 33.2988 11.9936C33.3325 11.9122 33.3492 11.8249 33.3479 11.7368V10.8996H40.0175V54.1369H6.32461V10.8996H13.1092V11.7368C13.108 11.8249 13.1247 11.9122 13.1583 11.9936C13.1919 12.075 13.2417 12.1487 13.3047 12.2102C13.3677 12.2717 13.4426 12.3198 13.5247 12.3515C13.6069 12.3831 13.6946 12.3978 13.7826 12.3945ZM1.37992 9.82336C1.38029 9.4636 1.45198 9.10749 1.59085 8.77562C1.72972 8.44375 1.93301 8.14271 2.18896 7.8899C2.44491 7.63709 2.74845 7.43754 3.08201 7.30278C3.41557 7.16802 3.77254 7.10074 4.13227 7.10481H13.1092V9.51966H5.69215C5.31118 9.51966 4.9447 9.82865 4.9447 10.2096V54.8599C4.9447 55.241 5.31118 55.5168 5.69215 55.5168H40.765C40.8508 55.5194 40.9363 55.504 41.0158 55.4715C41.0953 55.4391 41.1672 55.3903 41.2268 55.3285C41.2863 55.2666 41.3323 55.1929 41.3617 55.1122C41.3911 55.0315 41.4033 54.9456 41.3975 54.8599V10.2096C41.3975 9.82865 41.146 9.51966 40.765 9.51966H33.3479V7.10481H42.3249C42.6846 7.10074 43.0416 7.16802 43.3751 7.30278C43.7087 7.43754 44.0122 7.63709 44.2682 7.8899C44.5241 8.14271 44.7274 8.44375 44.8663 8.77562C45.0052 9.10749 45.0769 9.4636 45.0772 9.82336V56.2068C45.0781 56.9377 44.7887 57.6391 44.2725 58.1566C43.7564 58.6742 43.0558 58.9655 42.3249 58.9666H4.13227C3.40134 58.9655 2.70077 58.6742 2.18463 58.1566C1.66849 57.6391 1.37903 56.9377 1.37992 56.2068V9.82336Z" fill="#38497D"/>
<path d="M2.87703 28.7455C3.06002 28.7455 3.23551 28.6728 3.3649 28.5434C3.4943 28.414 3.56699 28.2385 3.56699 28.0555V16.3543C3.56699 16.1713 3.4943 15.9958 3.3649 15.8664C3.23551 15.737 3.06002 15.6643 2.87703 15.6643C2.69404 15.6643 2.51855 15.737 2.38916 15.8664C2.25976 15.9958 2.18707 16.1713 2.18707 16.3543V28.0555C2.18707 28.2385 2.25976 28.414 2.38916 28.5434C2.51855 28.6728 2.69404 28.7455 2.87703 28.7455Z" fill="#38497D"/>
<path d="M2.87703 14.8932C3.06002 14.8932 3.23551 14.8205 3.3649 14.6911C3.4943 14.5617 3.56699 14.3862 3.56699 14.2032V13.6416C3.56699 13.4586 3.4943 13.2831 3.3649 13.1537C3.23551 13.0243 3.06002 12.9516 2.87703 12.9516C2.69404 12.9516 2.51855 13.0243 2.38916 13.1537C2.25976 13.2831 2.18707 13.4586 2.18707 13.6416V14.2032C2.18707 14.3862 2.25976 14.5617 2.38916 14.6911C2.51855 14.8205 2.69404 14.8932 2.87703 14.8932Z" fill="#38497D"/>
</svg>
