<svg width="52" height="64" viewBox="0 0 52 64" fill="none" xmlns="http://www.w3.org/2000/svg">
<path d="M30.9724 47.7231C35.3459 48.1683 39.1559 49.2105 41.6998 50.6573C44.2436 52.1042 45.3498 53.8582 44.8142 55.5958C44.2786 57.3335 42.1375 58.9376 38.7857 60.1123C35.4338 61.2871 31.0973 61.9533 26.5758 61.9881C22.0543 62.0228 17.6528 61.4238 14.183 60.3015C10.7132 59.1791 8.40914 57.6092 7.69566 55.8812C6.98218 54.1531 7.90743 52.3835 10.3008 50.8987C12.6941 49.4139 16.3942 48.314 20.7185 47.8019L26.2035 54.7369L30.9724 47.7231Z" fill="#F0A500"/>
<path d="M29.3146 63.2892C32.2346 63.145 35.1279 62.6615 37.9361 61.8484C39.9766 61.2438 42.3154 60.3963 44.1848 58.6948C45.3256 57.6582 45.8651 56.6054 45.883 55.3814C45.9042 54.0564 45.3272 52.9286 44.0723 51.8334C41.9911 50.0145 39.3867 49.1556 37.1212 48.5559C36.2721 48.3326 35.4214 48.1566 34.5136 47.9708C34.1012 47.8844 33.684 47.7997 33.2586 47.7068L32.8805 47.6236L33.5879 46.7126C33.9138 46.2921 34.2316 45.8846 34.5478 45.4739C35.071 44.7959 35.5974 44.1228 36.1238 43.4481C38.2262 40.7573 40.3988 37.9753 42.242 35.0286C45.4185 29.9486 46.53 25.0266 45.6434 19.9808C44.188 11.6982 39.3264 6.22535 31.1953 3.71548C30.393 3.4886 29.5762 3.316 28.7506 3.19883C28.3742 3.1369 27.9863 3.07334 27.6098 3H24.3209C24.0324 3.05052 23.7423 3.09616 23.4522 3.14342C22.8296 3.24284 22.1859 3.34552 21.5649 3.48894C11.118 5.88473 4.43256 16.1231 6.34756 26.7982C6.93429 30.0741 8.30331 33.1788 10.5068 36.2884C12.0877 38.5098 13.7664 40.7182 15.3962 42.8532C16.0807 43.7485 16.763 44.6444 17.4432 45.5408C17.7414 45.9384 18.0462 46.3263 18.3689 46.7387L18.8383 47.3401L19.0664 47.6318L18.7079 47.7263L18.5319 47.7736C18.4566 47.7971 18.3798 47.8156 18.3021 47.829C15.6308 48.2462 13.3589 48.8639 11.3575 49.7179C9.8565 50.3568 8.15663 51.2238 6.93755 52.7982C5.71847 54.3726 5.69076 56.1751 6.83976 57.6501C7.47769 58.4669 8.24913 59.17 9.12147 59.7297C12.4381 61.8224 16.2388 62.5509 19.8536 63.0333C20.6261 63.136 21.4182 63.2158 22.1826 63.2908L23.2436 63.4H28.6692L28.8419 63.3641C28.9973 63.327 29.1553 63.302 29.3146 63.2892ZM13.5822 37.3853C11.9654 35.2421 9.96244 32.3329 8.82484 28.8566C8.0215 26.4124 7.73959 23.8269 7.99729 21.267C8.25499 18.7071 9.04659 16.2296 10.321 13.9946C11.5901 11.7892 13.3073 9.87435 15.3618 8.37337C17.4164 6.8724 19.7627 5.81865 22.2494 5.28008C26.9758 4.25657 31.8326 5.20348 35.9396 7.94152C40.0467 10.6796 42.8108 14.8437 43.6828 19.6304C44.5678 24.4823 43.6469 29.1092 40.9447 33.3842C39.2693 36.0358 37.3592 38.5995 35.5126 41.0735L34.745 42.1019C32.8284 44.6786 30.8417 47.27 28.9201 49.775C28.0922 50.8528 27.2648 51.935 26.438 53.0215C26.3842 53.0916 26.3288 53.1617 26.2603 53.2448L25.9458 53.6376L25.7567 53.3801C25.5057 53.0389 25.258 52.7004 25.0135 52.3647C24.4822 51.6345 23.9786 50.9451 23.4506 50.2541C22.288 48.733 21.1232 47.22 19.9563 45.7152C17.8571 42.9885 15.6879 40.1755 13.5822 37.3853ZM25.9556 61.5176H25.9458C22.388 61.4557 17.7333 61.1786 13.2758 59.5749C11.9399 59.0981 10.6682 58.4576 9.4898 57.668C8.46955 56.9721 7.93987 56.2126 7.92031 55.4075C7.90075 54.6024 8.40925 53.7777 9.43602 52.9971C11.3918 51.5139 13.636 50.8262 15.5705 50.3486C16.8988 50.0227 18.2695 49.7994 19.5961 49.5875L19.9482 49.5305C20.2741 49.4767 20.6718 49.7456 20.8315 49.9591C22.2576 51.8627 23.6494 53.7647 24.9532 55.5509C25.3069 56.0399 25.6459 56.2827 25.9637 56.2827C26.275 56.2827 26.6156 56.0448 26.953 55.5754C28.3041 53.7305 29.7024 51.8269 31.1138 49.9396C31.2605 49.7424 31.6272 49.4718 31.945 49.5158C34.7157 49.8988 37.6689 50.435 40.3857 51.7666C41.2937 52.2028 42.1439 52.7502 42.9168 53.3963C43.629 53.9994 43.9973 54.6334 44.012 55.2755C44.0267 55.9176 43.6665 56.6087 42.9445 57.2769C41.6032 58.5204 39.9343 59.1821 38.3322 59.7134C34.8509 60.8608 30.9183 61.4361 25.9556 61.5176Z" fill="#38497D"/>
<path d="M26.0165 14.8908H26.0051C24.9416 14.8848 23.8875 15.0887 22.9031 15.4909C21.9186 15.893 21.0232 16.4855 20.2682 17.2344C19.5142 17.9802 18.9164 18.8688 18.5095 19.8481C18.1026 20.8275 17.8949 21.8781 17.8985 22.9387C17.8985 27.3994 21.484 31.0371 25.9024 31.0452C26.9674 31.0524 28.0234 30.8491 29.0096 30.4469C29.9958 30.0447 30.8928 29.4515 31.649 28.7016C32.4031 27.9557 33.0013 27.0672 33.4087 26.0879C33.8161 25.1086 34.0246 24.058 34.022 22.9973C34.0236 18.5333 30.4381 14.8973 26.0165 14.8908ZM30.324 27.3179C29.7558 27.8973 29.0784 28.3584 28.3309 28.6745C27.5834 28.9906 26.7807 29.1555 25.9692 29.1596H25.9496C24.3173 29.1417 22.7571 28.4844 21.604 27.3289C20.4509 26.1734 19.7969 24.6118 19.7825 22.9794C19.7727 19.6286 22.5972 16.7862 25.948 16.7862H25.9676C29.3021 16.7862 32.1249 19.6123 32.138 22.9664C32.1379 23.7755 31.9775 24.5767 31.6662 25.3236C31.3549 26.0704 30.8987 26.7482 30.324 27.3179Z" fill="#38497D"/>
<path d="M31.274 8.71734C31.0963 8.64503 30.9068 8.60581 30.715 8.60162C30.5797 8.60007 30.4457 8.62787 30.3222 8.68311C30.2087 8.73975 30.1082 8.81922 30.0268 8.91653C29.9455 9.01385 29.8852 9.12692 29.8496 9.24865C29.6051 9.94131 30.1478 10.3194 30.6465 10.5134C33.8784 11.7765 36.3068 13.9734 37.8551 17.0439C38.7596 18.8724 39.2404 20.8811 39.2616 22.921C39.2763 23.6104 39.6251 24.0243 40.1955 24.0292C40.3121 24.0358 40.4288 24.0183 40.5384 23.9779C40.648 23.9376 40.7482 23.8751 40.8327 23.7945C40.9421 23.6713 41.0259 23.5276 41.0793 23.3718C41.1328 23.216 41.1548 23.0511 41.144 22.8867C41.144 22.7498 41.144 22.6129 41.144 22.4744C41.0827 20.3318 40.5614 18.2274 39.6153 16.304C37.8258 12.7071 35.0193 10.1597 31.274 8.71734Z" fill="#38497D"/>
<path d="M25.4012 9.37332C25.4891 9.4603 25.5935 9.52877 25.7082 9.57468C25.823 9.62059 25.9458 9.64301 26.0694 9.6406C26.3128 9.63414 26.5441 9.53376 26.7151 9.36049C26.886 9.18723 26.9832 8.95452 26.9864 8.71115C26.9896 8.46777 26.8984 8.23262 26.732 8.05497C26.5656 7.87732 26.337 7.77097 26.0939 7.75819H26.0711C25.9479 7.75462 25.8252 7.77617 25.7107 7.82152C25.5961 7.86688 25.4919 7.9351 25.4045 8.02202C25.3171 8.10893 25.2484 8.21273 25.2024 8.32709C25.1565 8.44145 25.1343 8.56396 25.1372 8.68717C25.1332 8.81338 25.1544 8.93912 25.1998 9.05696C25.2451 9.17481 25.3136 9.28238 25.4012 9.37332Z" fill="#38497D"/>
</svg>
