<svg width="82" height="80" viewBox="0 0 82 80" fill="none" xmlns="http://www.w3.org/2000/svg">
<path d="M60.5 26H22L18 53.5H64.5L60.5 26Z" fill="#F0A500" stroke="#FED67E"/>
<path d="M23.5 13L28 12.5L23.5 66.5H17L23.5 13Z" fill="#FED67E"/>
<path d="M29.9775 74.3336L28.5566 72.5968L24.9795 72.6047C24.4304 72.4479 23.9632 72.1887 23.6358 71.8591C23.3083 71.5295 23.135 71.1441 23.1373 70.7504L23.1902 66L16.0553 66.0157L16.0001 70.7499C15.9976 71.0158 16.0754 71.2794 16.2289 71.5254C16.3824 71.7714 16.6085 71.995 16.8942 72.1831C17.18 72.3713 17.5196 72.5204 17.8935 72.6217C18.2673 72.723 18.6681 72.7745 19.0725 72.7733L19.8746 72.6926L21.2505 74.2576C21.7051 74.7678 22.3558 75.1904 23.1373 75.483C23.9188 75.7755 24.8036 75.9277 25.7029 75.9243L34 75.9869C33.1771 75.9435 32.3821 75.7707 31.682 75.483C30.982 75.1952 30.3974 74.801 29.9775 74.3336Z" fill="#FED67E"/>
<path d="M27.7234 5.58736L26.4551 7.25512H24.5429C24.2161 7.25285 23.8919 7.30096 23.589 7.39668C23.2861 7.49241 23.0104 7.63386 22.7777 7.81293C22.5451 7.992 22.3601 8.20514 22.2333 8.44014C22.1066 8.67513 22.0406 8.92734 22.0391 9.18229L22 13L27.8682 12.9724L27.9073 9.18565C27.9088 8.76749 28.0842 8.361 28.4072 8.02726C28.7302 7.69353 29.1833 7.45058 29.6984 7.33493L32.129 7.32638L33.4515 5.5869C33.8171 5.10597 34.3361 4.70706 34.9579 4.42898C35.5797 4.15089 36.2832 4.00311 37 4L31.2463 4.0116C30.5347 4.01473 29.8362 4.16151 29.2189 4.43764C28.6015 4.71377 28.0863 5.10986 27.7234 5.58736Z" fill="#FED67E"/>
<path d="M58.7027 12.7572L59.7318 21.6837H56.1096L55.3341 12.601L53.5471 12.7654L54.3094 21.6832H50.6835L50.1831 12.6508L48.3921 12.7621L48.887 21.6837H45.2596L45.0311 12.7016L43.2375 12.7591L43.4654 21.6837H39.5707L39.8779 12.7789L38.0853 12.7286L37.7759 21.6837H34.1529L34.7237 12.8291L32.9336 12.7245L32.3554 21.6837H28.7371L29.5693 12.8792L27.7836 12.7221L26.9354 21.6837H23.3235L24.4127 12.9291L22.6328 12.6952L15.9827 66.0023L17.7626 66.1977L18.7997 57.8547H23.5009L22.7342 65.9757L24.5198 66.1328L25.3031 57.8547H30.0113L29.4881 65.9789L31.278 66.0827L31.8085 57.8547H36.5215L36.2411 65.9823L38.0336 66.0325L38.3161 57.8547H44.3903L44.5978 66.0128L46.3914 65.9552L46.1851 57.8541H50.9023L51.3544 66.015L53.1452 65.9037L52.6981 57.8547H57.4138L58.1106 66.0195L59.8977 65.8551L59.2139 57.8547H63.9264L64.8681 66.0226L66.6498 65.8283L60.4845 12.5333L58.7027 12.7572ZM19.4927 52.3244L22.6307 27.214H26.4096L24.0273 52.3244H19.4927ZM28.2111 27.214H31.9963L30.3701 52.3244H25.8289L28.2111 27.214ZM33.7937 27.214H37.5839L36.7138 52.3244H32.1675L33.7937 27.214ZM39.3785 27.214H43.6071L44.2486 52.3244H38.5091L39.3785 27.214ZM46.0428 52.3244L45.4013 27.214H49.1957L50.5932 52.3244H46.0428ZM52.3896 52.3244L50.992 27.214H54.7844L56.9379 52.3244H52.3896ZM58.7384 52.3244L56.585 27.214H60.3745L63.2838 52.3244H58.7384ZM59.9397 23.4773L60.1672 25.4203H22.8545L23.0999 23.4773H59.9397ZM19.0235 56.0611L19.2689 54.118H63.4915L63.7189 56.0611H19.0235Z" fill="#38497D"/>
<path d="M22.4407 13.7616H22.4448L60.6784 13.5549C60.9167 13.5504 61.1439 13.4533 61.3118 13.2842C61.4798 13.1151 61.5753 12.8873 61.5782 12.649L61.6144 9.06358V9.0603C61.615 8.69192 61.5415 8.32719 61.3985 7.98772C61.2555 7.64824 61.0457 7.34095 60.7817 7.08404C60.5177 6.82546 60.2049 6.62194 59.8615 6.48533C59.5182 6.34872 59.1511 6.28174 58.7816 6.28828H58.7684L57.9114 6.26227L57.1661 4.9782C56.8137 4.37877 56.3116 3.88124 55.7089 3.53444C55.1062 3.18763 54.4237 3.00346 53.7284 3H53.7104L29.5012 3.11001C28.8028 3.1158 28.1177 3.30142 27.5118 3.64898C26.906 3.99655 26.3999 4.49433 26.0424 5.09433L25.2792 6.38065L24.3793 6.38468C23.6373 6.39019 22.9272 6.68722 22.4023 7.21167C21.8774 7.73612 21.5797 8.44594 21.5735 9.18794L21.5436 12.7919C21.5415 13.0413 21.6351 13.282 21.8052 13.4645C21.9702 13.6426 22.1982 13.7493 22.4407 13.7616ZM27.5855 6.00937C27.7842 5.67521 28.0657 5.39789 28.4028 5.20416C28.7398 5.01043 29.1211 4.90681 29.5099 4.90331L53.7191 4.79361C54.1023 4.79216 54.4793 4.89087 54.8126 5.07994C55.1459 5.26902 55.424 5.5419 55.6194 5.87156L55.8368 6.24164L27.3715 6.37108L27.5855 6.00937ZM23.3671 9.19915C23.3687 9.06695 23.3965 8.93637 23.4487 8.81492C23.5009 8.69347 23.5767 8.58354 23.6715 8.49145C23.7664 8.39936 23.8785 8.32693 24.0015 8.27831C24.1244 8.2297 24.2558 8.20587 24.388 8.20818L58.7765 8.08188H58.7813C58.9142 8.07515 59.0472 8.09569 59.1719 8.14224C59.2967 8.18879 59.4106 8.26037 59.5066 8.35258C59.6027 8.44478 59.6789 8.55566 59.7305 8.6784C59.7821 8.80114 59.808 8.93313 59.8068 9.06627L59.7848 11.7398L23.3447 11.9018L23.3671 9.19915Z" fill="#38497D"/>
<path d="M17.8183 73.2493H17.8314L18.7133 73.2765L19.417 74.4894C19.7816 75.1098 20.3013 75.6247 20.9249 75.9837C21.5485 76.3426 22.2547 76.5334 22.9743 76.5371H22.993L59.8561 76.4279C60.5794 76.4219 61.289 76.2296 61.9165 75.8697C62.5439 75.5097 63.0681 74.9941 63.4383 74.3727L64.1603 73.1557L65.0361 73.1528C65.7783 73.1475 66.4887 72.8506 67.0138 72.3262C67.539 71.8018 67.8369 71.0918 67.8431 70.3497L67.873 65.9449C67.8738 65.8263 67.8511 65.7088 67.8062 65.5991C67.7613 65.4893 67.6951 65.3896 67.6114 65.3056C67.5277 65.2217 67.4282 65.1551 67.3187 65.1099C67.2091 65.0646 67.0916 65.0415 66.9731 65.0419L15.9236 65.215C15.6874 65.2158 15.461 65.3099 15.2936 65.4767C15.1263 65.6435 15.0315 65.8696 15.03 66.1058L15.0001 70.4776C14.9974 70.8456 15.0692 71.2104 15.2111 71.55C15.353 71.8895 15.5621 72.1969 15.8257 72.4537C16.0883 72.7121 16.3997 72.9156 16.7419 73.0522C17.084 73.1888 17.4499 73.2558 17.8183 73.2493ZM61.8961 73.4586C61.6848 73.8139 61.3855 74.1089 61.0271 74.315C60.6687 74.5211 60.2632 74.6314 59.8498 74.6353L22.9868 74.744C22.5791 74.7441 22.1784 74.6384 21.8238 74.4372C21.4692 74.236 21.1729 73.9462 20.9638 73.5962L20.7897 73.2998L62.0715 73.1631L61.8961 73.4586ZM16.8168 67.0062L66.0722 66.8385L66.0489 70.3393C66.0469 70.6093 65.9389 70.8676 65.7481 71.0586C65.5573 71.2496 65.2991 71.3579 65.0291 71.3602L17.8244 71.5155C17.551 71.5159 17.2885 71.4079 17.0946 71.2152C16.9986 71.1199 16.9227 71.0064 16.8711 70.8814C16.8195 70.7564 16.7933 70.6224 16.7941 70.4872L16.8168 67.0062Z" fill="#38497D"/>
<path d="M22.4055 70.1094H37.6146C37.8525 70.1094 38.0806 70.0149 38.2488 69.8468C38.417 69.6786 38.5115 69.4505 38.5115 69.2126C38.5115 68.9748 38.417 68.7467 38.2488 68.5785C38.0806 68.4103 37.8525 68.3158 37.6146 68.3158H22.4055C22.1676 68.3158 21.9395 68.4103 21.7713 68.5785C21.6032 68.7467 21.5087 68.9748 21.5087 69.2126C21.5087 69.4505 21.6032 69.6786 21.7713 69.8468C21.9395 70.0149 22.1676 70.1094 22.4055 70.1094Z" fill="#38497D"/>
<path d="M18.8827 70.1094H19.6127C19.8505 70.1094 20.0787 70.0149 20.2468 69.8468C20.415 69.6786 20.5095 69.4505 20.5095 69.2126C20.5095 68.9748 20.415 68.7467 20.2468 68.5785C20.0787 68.4103 19.8505 68.3158 19.6127 68.3158H18.8827C18.6449 68.3158 18.4168 68.4103 18.2486 68.5785C18.0804 68.7467 17.9859 68.9748 17.9859 69.2126C17.9859 69.4505 18.0804 69.6786 18.2486 69.8468C18.4168 70.0149 18.6449 70.1094 18.8827 70.1094Z" fill="#38497D"/>
</svg>
