<svg width="82" height="80" viewBox="0 0 82 80" fill="none" xmlns="http://www.w3.org/2000/svg">
<path fill-rule="evenodd" clip-rule="evenodd" d="M40.5 62C52.9264 62 63 51.9264 63 39.5C63 27.0736 52.9264 17 40.5 17C28.0736 17 18 27.0736 18 39.5C18 51.9264 28.0736 62 40.5 62ZM40.5 58C50.7173 58 59 49.7173 59 39.5C59 29.2827 50.7173 21 40.5 21C30.2827 21 22 29.2827 22 39.5C22 49.7173 30.2827 58 40.5 58Z" fill="#F0A500"/>
<path d="M8.30192 39.4991C8.30192 20.4044 23.3309 4.82167 42.2051 3.93113C41.6395 3.90442 41.0709 3.88959 40.4988 3.88959C20.832 3.88959 4.88934 19.8322 4.88934 39.4991C4.88934 59.1659 20.832 75.1085 40.4988 75.1085C41.0709 75.1085 41.6395 75.0937 42.2051 75.067C23.3309 74.1764 8.30192 58.5937 8.30192 39.4991Z" fill="#FED67E"/>
<path d="M38.0793 23.4114C37.8034 23.4527 37.525 23.5016 37.2522 23.5568C37.0207 23.6037 36.8174 23.7405 36.6869 23.9373C36.5564 24.1341 36.5094 24.3746 36.5562 24.606C36.6031 24.8375 36.7399 25.0408 36.9367 25.1713C37.1335 25.3018 37.374 25.3488 37.6054 25.302C37.8485 25.2527 38.0964 25.2091 38.3424 25.1724C38.458 25.1552 38.5691 25.1153 38.6694 25.0551C38.7696 24.9949 38.8569 24.9155 38.9265 24.8215C38.996 24.7276 39.0464 24.6208 39.0747 24.5074C39.103 24.3939 39.1087 24.276 39.0914 24.1604C39.0741 24.0448 39.0342 23.9337 38.974 23.8335C38.9138 23.7332 38.8345 23.6459 38.7405 23.5763C38.6465 23.5068 38.5397 23.4564 38.4263 23.4281C38.3129 23.3998 38.195 23.3941 38.0793 23.4114Z" fill="#FED67E"/>
<path d="M71.5432 39.4993C71.5432 22.3813 57.6165 8.4547 40.4985 8.4547C23.3804 8.4547 9.45367 22.3813 9.45367 39.4993C9.45367 56.6174 23.3804 70.544 40.4985 70.544C57.6165 70.544 71.5432 56.6174 71.5432 39.4993ZM67.3539 35.5412C66.3631 35.5404 65.4075 35.9084 64.673 36.5734C64.1448 32.1909 62.4297 28.0359 59.7127 24.557C60.6017 24.5072 61.4488 24.1627 62.1202 23.578C62.7916 22.9932 63.2492 22.2015 63.4207 21.3278C66.8325 25.6131 68.9666 30.7736 69.5782 36.2169C68.9204 35.7755 68.146 35.5402 67.3539 35.5412ZM69.5795 39.5473C69.5795 39.9874 69.449 40.4177 69.2044 40.7837C68.9599 41.1497 68.6123 41.435 68.2056 41.6034C67.799 41.7719 67.3515 41.816 66.9197 41.7301C66.488 41.6442 66.0914 41.4322 65.7802 41.121C65.4689 40.8097 65.257 40.4132 65.1711 39.9814C65.0852 39.5497 65.1293 39.1022 65.2977 38.6956C65.4662 38.2889 65.7514 37.9413 66.1174 37.6967C66.4834 37.4522 66.9137 37.3217 67.3539 37.3217C67.944 37.3223 68.5097 37.557 68.9269 37.9743C69.3441 38.3915 69.5788 38.9572 69.5795 39.5473ZM59.4881 56.3123C60.0028 56.3127 60.5014 56.4916 60.899 56.8184C61.2967 57.1452 61.5687 57.5998 61.6687 58.1046C61.7687 58.6095 61.6906 59.1335 61.4476 59.5872C61.2047 60.0409 60.8119 60.3964 60.3363 60.593C59.8606 60.7896 59.3315 60.8152 58.8391 60.6655C58.3466 60.5157 57.9214 60.1998 57.6357 59.7717C57.3501 59.3435 57.2218 58.8296 57.2726 58.3174C57.3234 57.8052 57.5502 57.3265 57.9144 56.9628C58.121 56.7561 58.3663 56.5922 58.6364 56.4806C58.9064 56.369 59.1959 56.3118 59.4881 56.3123ZM40.4985 62.0696C28.0531 62.0696 17.9281 51.9447 17.9281 39.4993C17.9281 27.054 28.0531 16.929 40.4985 16.929C52.9438 16.929 63.0688 27.054 63.0688 39.4993C63.0688 51.9447 52.9438 62.0696 40.4985 62.0696ZM40.4985 64.1765C40.9386 64.1765 41.3689 64.3071 41.7349 64.5516C42.1009 64.7962 42.3862 65.1438 42.5546 65.5504C42.7231 65.9571 42.7672 66.4046 42.6813 66.8363C42.5954 67.268 42.3834 67.6646 42.0722 67.9759C41.7609 68.2871 41.3644 68.4991 40.9326 68.585C40.5009 68.6708 40.0534 68.6268 39.6468 68.4583C39.2401 68.2899 38.8925 68.0046 38.6479 67.6386C38.4034 67.2726 38.2729 66.8423 38.2729 66.4021C38.2737 65.8122 38.5084 65.2466 38.9257 64.8295C39.3429 64.4124 39.9085 64.1778 40.4985 64.1771V64.1765ZM23.0825 56.9628C23.4474 57.327 23.6747 57.8064 23.7256 58.3194C23.7766 58.8324 23.6481 59.3472 23.3621 59.776C23.076 60.2049 22.65 60.5212 22.1568 60.6712C21.6636 60.8211 21.1336 60.7954 20.6572 60.5984C20.1809 60.4013 19.7876 60.0452 19.5444 59.5906C19.3012 59.1361 19.2232 58.6112 19.3236 58.1056C19.4241 57.6 19.6968 57.1448 20.0953 56.8177C20.4937 56.4906 20.9933 56.3119 21.5088 56.3119C22.0989 56.3119 22.6648 56.546 23.0825 56.9628ZM21.5088 22.7832C20.9939 22.7832 20.4949 22.6047 20.0969 22.2781C19.6988 21.9515 19.4263 21.497 19.3258 20.992C19.2253 20.487 19.3031 19.9627 19.5458 19.5086C19.7885 19.0545 20.1811 18.6986 20.6568 18.5015C21.1325 18.3044 21.6618 18.2784 22.1545 18.4278C22.6473 18.5772 23.073 18.8929 23.3591 19.321C23.6452 19.7491 23.774 20.2632 23.7235 20.7756C23.6731 21.2881 23.4465 21.7671 23.0825 22.1313C22.8763 22.3386 22.6311 22.503 22.3609 22.6149C22.0908 22.7268 21.8012 22.784 21.5088 22.7832ZM40.4985 14.9174C40.0583 14.9174 39.628 14.7868 39.262 14.5423C38.896 14.2977 38.6107 13.9501 38.4423 13.5435C38.2738 13.1368 38.2297 12.6893 38.3156 12.2576C38.4015 11.8259 38.6135 11.4293 38.9247 11.118C39.236 10.8068 39.6325 10.5948 40.0643 10.509C40.496 10.4231 40.9435 10.4671 41.3501 10.6356C41.7568 10.804 42.1044 11.0893 42.349 11.4553C42.5935 11.8213 42.724 12.2516 42.724 12.6918C42.7234 13.2818 42.4887 13.8475 42.0714 14.2648C41.6542 14.682 41.0885 14.9167 40.4985 14.9174ZM57.9144 22.1313C57.5504 21.7671 57.3238 21.2881 57.2734 20.7756C57.2229 20.2632 57.3517 19.7491 57.6378 19.321C57.9239 18.8929 58.3496 18.5772 58.8424 18.4278C59.3351 18.2784 59.8644 18.3044 60.3401 18.5015C60.8158 18.6986 61.2084 19.0545 61.4511 19.5086C61.6938 19.9627 61.7716 20.487 61.6711 20.992C61.5706 21.497 61.2981 21.9515 60.9 22.2781C60.502 22.6047 60.003 22.7832 59.4881 22.7832C58.8979 22.7829 58.3319 22.5484 57.9144 22.1313ZM56.6555 17.7246C55.9594 18.4169 55.5441 19.3423 55.4894 20.3226C52.0228 17.601 47.8796 15.8762 43.5057 15.3339C44.0956 14.6651 44.4447 13.8182 44.4975 12.928C44.5503 12.0379 44.3038 11.1556 43.7971 10.4218C49.2603 11.0388 54.4372 13.1895 58.7295 16.6251C57.9436 16.7751 57.2212 17.1584 56.6562 17.7249L56.6555 17.7246ZM37.4912 15.3341C33.1173 15.8765 28.9741 17.6013 25.5075 20.3229C25.4558 19.4339 25.109 18.5876 24.5222 17.9179C23.9354 17.2482 23.1419 16.7934 22.2674 16.6254C26.5597 13.1897 31.7366 11.0391 37.1998 10.4221C36.6931 11.1559 36.4466 12.0382 36.4994 12.9283C36.5522 13.8185 36.9013 14.6654 37.4912 15.3341ZM18.6761 23.3908C19.371 24.0895 20.3006 24.5052 21.2846 24.5574C18.5676 28.0362 16.8523 32.191 16.3239 36.5734C15.663 35.976 14.8214 35.6165 13.9329 35.5519C13.0443 35.4874 12.1596 35.7216 11.4193 36.2173C12.0309 30.774 14.165 25.6135 17.5768 21.3283C17.7285 22.1102 18.1114 22.8286 18.6761 23.3903V23.3908ZM15.8686 39.5473C15.8686 39.9874 15.738 40.4177 15.4935 40.7837C15.2489 41.1497 14.9014 41.435 14.4947 41.6034C14.088 41.7719 13.6405 41.816 13.2088 41.7301C12.7771 41.6442 12.3805 41.4322 12.0692 41.121C11.758 40.8097 11.546 40.4132 11.4602 39.9814C11.3743 39.5497 11.4184 39.1022 11.5868 38.6956C11.7553 38.2889 12.0405 37.9413 12.4065 37.6967C12.7725 37.4522 13.2028 37.3217 13.643 37.3217C14.233 37.3223 14.7987 37.557 15.216 37.9743C15.6332 38.3915 15.8679 38.9572 15.8686 39.5473ZM13.643 43.5533C14.6384 43.5541 15.5982 43.1829 16.334 42.5125C16.8797 46.904 18.6173 51.0622 21.3584 54.5363C20.4694 54.5688 19.6167 54.8966 18.9348 55.4679C18.253 56.0392 17.7809 56.8214 17.5933 57.6909C14.1944 53.4294 12.0594 48.2998 11.4312 42.8852C12.0862 43.3216 12.8559 43.5541 13.643 43.5533ZM24.3407 61.3695C25.0594 60.6544 25.4779 59.6919 25.5106 58.6786C28.9976 61.4149 33.1684 63.1424 37.569 63.6733C36.9607 64.3236 36.5871 65.1585 36.5076 66.0454C36.4281 66.9323 36.6473 67.8204 37.1302 68.5685C31.7337 67.9463 26.6187 65.8273 22.3631 62.4508C23.1128 62.2886 23.7996 61.9131 24.3407 61.3695ZM43.4264 63.6733C47.827 63.1424 51.9978 61.4149 55.4848 58.6786C55.516 59.5676 55.8423 60.4209 56.4122 61.104C56.9821 61.787 57.7632 62.2609 58.6323 62.4508C54.3771 65.8271 49.2626 67.9462 43.8665 68.5687C44.3495 67.8205 44.5686 66.9325 44.4891 66.0456C44.4097 65.1586 44.0361 64.3237 43.4278 63.6734L43.4264 63.6733ZM62.3201 55.704C61.6062 54.9895 60.6479 54.5722 59.6385 54.5363C62.3794 51.0622 64.1168 46.9039 64.6623 42.5125C65.3212 43.112 66.1614 43.4743 67.0496 43.5418C67.9379 43.6093 68.8232 43.3782 69.5651 42.8852C68.9371 48.2997 66.8023 53.4294 63.4036 57.6909C63.2425 56.9378 62.8664 56.2477 62.3208 55.7042L62.3201 55.704Z" fill="#38497D"/>
<path d="M40.4996 3.00014C33.2807 3.00015 26.2239 5.14083 20.2215 9.15147C14.2192 13.1621 9.54096 18.8626 6.77839 25.532C4.01582 32.2015 3.293 39.5403 4.70134 46.6206C6.10969 53.7008 9.58593 60.2044 14.6905 65.309C21.5356 72.1541 30.8195 75.9996 40.4999 75.9996C50.1804 75.9996 59.4643 72.1541 66.3094 65.309C73.1545 58.4639 77 49.18 77 39.4995C77 29.8191 73.1545 20.5352 66.3094 13.6901C62.9279 10.2902 58.9056 7.59472 54.4753 5.75979C50.0451 3.92485 45.2948 2.98687 40.4996 3.00014ZM65.0498 64.05C58.5387 70.5612 49.7078 74.2191 40.4996 74.2191C31.2915 74.2191 22.4606 70.5612 15.9494 64.05C9.43832 57.5389 5.78041 48.708 5.78041 39.4998C5.78041 30.2917 9.43832 21.4608 15.9494 14.9496C22.4606 8.43852 31.2915 4.78061 40.4996 4.78061C49.7078 4.78061 58.5387 8.43852 65.0498 14.9496C71.561 21.4608 75.2189 30.2917 75.2189 39.4998C75.2189 48.708 71.561 57.5389 65.0498 64.05Z" fill="#38497D"/>
<path d="M40.4992 19.7674C29.6181 19.7674 20.7656 28.6199 20.7656 39.501C20.7656 50.382 29.6181 59.2346 40.4992 59.2346C51.3803 59.2346 60.2328 50.382 60.2328 39.501C60.2328 28.6199 51.3803 19.7674 40.4992 19.7674ZM40.4992 57.4541C36.9484 57.4541 33.4774 56.4011 30.525 54.4284C27.5726 52.4557 25.2715 49.6518 23.9127 46.3713C22.5539 43.0908 22.1983 39.4811 22.891 35.9985C23.5838 32.5159 25.2936 29.317 27.8044 26.8062C30.3152 24.2954 33.5142 22.5856 36.9967 21.8928C40.4793 21.2001 44.089 21.5556 47.3695 22.9145C50.65 24.2733 53.4539 26.5744 55.4267 29.5268C57.3994 32.4791 58.4523 35.9502 58.4523 39.501C58.4469 44.2608 56.5537 48.8241 53.188 52.1898C49.8223 55.5555 45.259 57.4487 40.4992 57.4541Z" fill="#38497D"/>
<path d="M34.1337 24.5258C31.1948 25.773 28.6884 27.8584 26.9274 30.5215C25.1664 33.1846 24.229 36.3074 24.2321 39.5C24.2321 39.7362 24.3259 39.9626 24.4928 40.1295C24.6598 40.2965 24.8862 40.3903 25.1223 40.3903C25.3584 40.3903 25.5849 40.2965 25.7518 40.1295C25.9188 39.9626 26.0126 39.7362 26.0126 39.5C26.0098 36.6567 26.8447 33.8755 28.4131 31.5038C29.9814 29.132 32.2136 27.2749 34.8311 26.1642C35.0484 26.0717 35.22 25.8967 35.3082 25.6777C35.3964 25.4587 35.3941 25.2136 35.3016 24.9963C35.2091 24.7791 35.0341 24.6074 34.8151 24.5192C34.5961 24.431 34.351 24.4333 34.1337 24.5258Z" fill="#38497D"/>
</svg>
