<svg width="82" height="80" viewBox="0 0 82 80" fill="none" xmlns="http://www.w3.org/2000/svg">
<path d="M9 58V31.5C37.4 45.5 63.1667 37.3333 72.5 31.5V58C47.3 72 19.6667 63.8333 9 58Z" fill="#F0A500"/>
<path d="M10 16.4997L14 11.9997C14 13.994 41.5 6.65511 41.5 8.49936C41.5 9.84463 26.7828 10.7704 19.5 14.5C13.0885 17.7834 14 23.9148 14 24.9997C14 38.8575 14 49.6411 14 65.9997L10 64.4997V16.4997Z" fill="#FED67E"/>
<path d="M10.7242 33.6554L10.49 33.4964V33.7795V55.84C10.49 56.2922 10.6853 56.7515 11.0424 57.2042C11.3995 57.657 11.9251 58.1121 12.6045 58.5599C13.9632 59.4557 15.9581 60.3363 18.5162 61.1166L18.71 61.1757V60.9731V37.3731C18.7112 37.3691 18.7127 37.3636 18.714 37.358C18.7165 37.3477 18.7191 37.3335 18.7198 37.3166L18.7245 37.1945L18.6058 37.1653C15.7915 36.4714 13.1228 35.283 10.7242 33.6554ZM10.7304 60.0598L10.49 59.8782V60.1795V62.44C10.49 62.8984 10.69 63.3643 11.0557 63.8235C11.4215 64.2828 11.9601 64.7445 12.6567 65.1986C14.0499 66.1069 16.0964 66.9986 18.7233 67.7841C23.9789 69.3557 31.5839 70.51 41 70.51C50.4161 70.51 58.0211 69.3557 63.2767 67.7841C65.9036 66.9986 67.9501 66.1069 69.3433 65.1986C70.0399 64.7445 70.5785 64.2828 70.9443 63.8235C71.31 63.3643 71.51 62.8984 71.51 62.44V60.1795V59.8782L71.2696 60.0598C68.6076 62.071 64.0963 63.621 58.7095 64.667C53.3282 65.7118 47.093 66.25 41 66.25C34.907 66.25 28.6719 65.7118 23.2905 64.667C17.9037 63.621 13.3924 62.071 10.7304 60.0598ZM21.05 61.6887V61.8073L21.1655 61.8346C23.7818 62.4531 26.4321 62.9178 29.1028 63.2263L29.27 63.2456V63.0773V39.3173V39.1835L29.1371 39.1683C26.4805 38.8638 23.842 38.4181 21.2328 37.833L21.05 37.792V37.9793V61.6887ZM31.61 63.3557V63.4929L31.7466 63.5051C34.2073 63.725 36.8609 63.8572 39.6783 63.8898L39.83 63.8916V63.7398V39.9905V39.8424L39.6819 39.8405C37.0325 39.8069 34.3699 39.6723 31.7734 39.4398L31.61 39.4252V39.5892V63.3557ZM42.17 63.7398V63.8916L42.3217 63.8898C45.1391 63.8572 47.7927 63.725 50.2534 63.5051L50.39 63.4929V63.3557V39.5892V39.4252L50.2266 39.4398C47.6301 39.6723 44.9675 39.8069 42.3181 39.8405L42.17 39.8424V39.9905V63.7398ZM52.73 63.0773V63.2456L52.8972 63.2263C55.5679 62.9178 58.2182 62.4531 60.8345 61.8346L60.95 61.8073V61.6887V37.9793V37.792L60.7672 37.833C58.158 38.4181 55.5195 38.8638 52.8629 39.1683L52.73 39.1835V39.3173V63.0773ZM63.29 60.9731V61.1757L63.4838 61.1166C66.0419 60.3363 68.0368 59.4557 69.3955 58.5599C70.0749 58.1121 70.6005 57.657 70.9576 57.2042C71.3147 56.7515 71.51 56.2922 71.51 55.84V33.7795V33.4964L71.2758 33.6554C68.8772 35.283 66.2085 36.4714 63.3942 37.1653L63.2756 37.1945L63.2802 37.3166C63.2809 37.3335 63.2835 37.3477 63.286 37.358C63.2873 37.3636 63.2888 37.3691 63.29 37.3731V60.9731ZM10.7304 21.7798L10.49 21.5982V21.8995V29.44C10.49 29.8983 10.69 30.3641 11.0557 30.8233C11.4215 31.2826 11.9601 31.7443 12.6567 32.1984C14.0499 33.1066 16.0964 33.9983 18.7233 34.7839C23.9789 36.3555 31.5839 37.51 41 37.51C50.4161 37.51 58.0211 36.3555 63.2767 34.7839C65.9036 33.9983 67.9501 33.1066 69.3433 32.1984C70.0399 31.7443 70.5785 31.2826 70.9443 30.8233C71.31 30.3641 71.51 29.8983 71.51 29.44V21.8995V21.5982L71.2696 21.7798C68.6076 23.791 64.0963 25.341 58.7095 26.387C53.3282 27.4318 47.093 27.97 41 27.97C34.907 27.97 28.6719 27.4318 23.2905 26.387C17.9037 25.341 13.3924 23.791 10.7304 21.7798ZM8.15 17.56C8.15 15.9147 9.16825 14.4368 10.9934 13.1385C12.8175 11.8411 15.4243 10.7412 18.5417 9.85208C24.7747 8.07438 33.0101 7.15 41 7.15C48.9899 7.15 57.2253 8.07438 63.4583 9.85208C66.5757 10.7412 69.1825 11.8411 71.0066 13.1385C72.8317 14.4368 73.85 15.9147 73.85 17.56V62.44C73.85 64.0853 72.8317 65.5632 71.0066 66.8615C69.1825 68.1589 66.5757 69.2588 63.4583 70.1479C57.2253 71.9256 48.9899 72.85 41 72.85C33.0101 72.85 24.7747 71.9256 18.5417 70.1479C15.4243 69.2588 12.8175 68.1589 10.9934 66.8615C9.16825 65.5632 8.15 64.0853 8.15 62.44V17.56ZM10.49 17.56C10.49 18.0183 10.69 18.4841 11.0557 18.9433C11.4215 19.4026 11.9601 19.8643 12.6567 20.3184C14.0499 21.2266 16.0964 22.1183 18.7233 22.9039C23.9789 24.4755 31.5839 25.63 41 25.63C50.4161 25.63 58.0211 24.4755 63.2767 22.9039C65.9036 22.1183 67.9501 21.2266 69.3433 20.3184C70.0399 19.8643 70.5785 19.4026 70.9443 18.9433C71.31 18.4841 71.51 18.0183 71.51 17.56C71.51 17.1017 71.31 16.6359 70.9443 16.1767C70.5785 15.7174 70.0399 15.2557 69.3433 14.8017C67.9501 13.8934 65.9036 13.0017 63.2767 12.2161C58.0211 10.6445 50.4161 9.49 41 9.49C31.5839 9.49 23.9789 10.6445 18.7233 12.2161C16.0964 13.0017 14.0499 13.8934 12.6567 14.8017C11.9601 15.2557 11.4215 15.7174 11.0557 16.1767C10.69 16.6359 10.49 17.1017 10.49 17.56Z" fill="#38497D" stroke="white" stroke-width="0.3"/>
<path d="M30.44 16.39H51.56C51.8703 16.39 52.1679 16.5133 52.3873 16.7327C52.6067 16.9521 52.73 17.2497 52.73 17.56C52.73 17.8703 52.6067 18.1679 52.3873 18.3873C52.1679 18.6067 51.8703 18.73 51.56 18.73H30.44C30.1297 18.73 29.8321 18.6067 29.6127 18.3873C29.3933 18.1679 29.27 17.8703 29.27 17.56C29.27 17.2497 29.3933 16.9521 29.6127 16.7327C29.8321 16.5133 30.1297 16.39 30.44 16.39Z" fill="#38497D" stroke="white" stroke-width="0.3"/>
</svg>
