<svg width="66" height="73" viewBox="0 0 66 73" fill="none" xmlns="http://www.w3.org/2000/svg">
<circle cx="30.3691" cy="48.963" r="14.8614" fill="#F0A500"/>
<path d="M22.4779 14.3552C22.6189 14.2799 22.7782 14.2454 22.9377 14.2557C22.5252 13.5654 22.0801 12.8921 21.6026 12.2358C19.8339 9.79847 17.637 7.70282 15.1191 6.051C14.4791 5.6238 14.1817 4.88925 14.3792 4.22298C14.4073 4.12651 14.4451 4.03312 14.4919 3.94421C14.2807 3.84488 14.0428 3.73357 13.7981 3.64002C12.8885 3.29165 10.3559 3.19983 9.35653 3.47919C9.23359 3.50902 9.11382 3.5507 8.99892 3.60364C8.80426 3.76231 8.6659 3.97949 8.60436 4.22298C8.40686 4.88925 8.70426 5.62337 9.34426 6.051C11.8622 7.70282 14.0591 9.79847 15.8278 12.2358C17.6186 14.6854 18.9683 17.4287 19.8161 20.3423H24.6893L22.1213 15.5271C22.0677 15.4268 22.0345 15.3168 22.0234 15.2036C22.0124 15.0904 22.0237 14.9761 22.0568 14.8673C22.09 14.7585 22.1442 14.6572 22.2164 14.5693C22.2887 14.4815 22.3775 14.4087 22.4779 14.3552Z" fill="#FED67E"/>
<path d="M11.1897 61.1389C7.58683 56.2159 6.56816 50.09 8.39516 44.3329C8.52639 43.9195 8.66946 43.5012 8.82134 43.0898C12.3903 33.4047 21.205 28.6095 24.1014 27.0332L24.209 26.9746H18.4342L18.3267 27.0332C15.4309 28.6095 6.61551 33.4054 3.04654 43.0902C2.89495 43.5016 2.75159 43.9199 2.62036 44.3334C0.79336 50.0904 1.81203 56.2159 5.41493 61.1389C7.28672 63.6849 9.7349 65.7514 12.559 67.1692C15.3832 68.587 18.5029 69.3157 21.6629 69.2958H27.4377C24.2777 69.3157 21.158 68.587 18.3338 67.1692C15.5097 65.7514 13.0615 63.6849 11.1897 61.1389Z" fill="#FED67E"/>
<path d="M23.0789 24.6283V22.6854C23.0791 22.523 23.1437 22.3673 23.2586 22.2525C23.3734 22.1376 23.5291 22.073 23.6915 22.0728H17.9167C17.7543 22.073 17.5986 22.1376 17.4838 22.2525C17.3689 22.3673 17.3043 22.523 17.3042 22.6854V24.6283C17.3043 24.7907 17.3689 24.9464 17.4838 25.0613C17.5986 25.1762 17.7543 25.2408 17.9167 25.241H18.2029H18.2124H23.6915C23.5291 25.2408 23.3734 25.1762 23.2586 25.0613C23.1437 24.9464 23.0791 24.7907 23.0789 24.6283Z" fill="#FED67E"/>
<path d="M58.601 44.17C57.4758 40.3102 55.5864 36.7158 53.045 33.6005C50.5036 30.4851 47.362 27.9122 43.8069 26.0347C44.1106 25.631 44.2749 25.1395 44.2751 24.6343V22.6917C44.2744 22.1879 44.1117 21.6978 43.8111 21.2936C43.5105 20.8894 43.0879 20.5925 42.6057 20.4469C43.6717 18.016 44.969 15.6934 46.4796 13.5109C48.1368 11.1168 49.6224 9.97383 51.1953 8.76227C51.7758 8.31545 52.3762 7.85274 52.9734 7.33085C53.331 7.02787 53.5933 6.62789 53.7286 6.17916C53.864 5.73042 53.8666 5.25211 53.7362 4.80192C53.4789 3.96934 52.6902 3.12145 51.2499 3.23825C49.5258 3.37872 47.5375 2.23358 45.9395 1.31365C45.3547 0.955389 44.7467 0.636398 44.1196 0.35879C41.2367 -0.784909 39.4406 1.08338 38.4747 2.08719C37.9948 2.58671 36.6627 3.27102 36.1127 3.48194C36.0145 3.51962 35.9181 3.55225 35.8264 3.57882C33.986 4.10938 32.7821 4.07184 30.9178 2.42227C28.063 -0.102617 25.6804 0.953594 24.7882 1.52515C24.1376 1.94181 23.7851 2.70899 23.3765 3.59787C23.1783 4.05046 22.9557 4.49192 22.7095 4.9203C22.3486 5.52131 22.1115 5.65514 21.7459 5.71434C21.0906 5.81973 20.7807 5.6846 20.0567 5.16299C19.9763 5.10524 19.893 5.04388 19.8054 4.97949C19.0402 4.41789 17.884 3.569 15.4818 2.49633C15.4115 2.465 15.3321 2.42761 15.2453 2.3869C15.0156 2.27891 14.7298 2.14465 14.4201 2.02597C13.1811 1.55172 10.237 1.43911 8.89304 1.81447C8.57885 1.88836 8.27944 2.01488 8.00747 2.18868C7.48926 2.5695 7.11513 3.11445 6.94592 3.73488C6.53158 5.1331 7.10992 6.64451 8.38486 7.49586C10.7327 9.03536 12.7813 10.9887 14.4308 13.2607C16.0027 15.4111 17.2114 17.8047 18.0087 20.3462H17.9206C17.2989 20.3469 16.7028 20.5942 16.2632 21.0338C15.8236 21.4734 15.5763 22.0695 15.5756 22.6912V24.6342C15.5758 25.2283 15.8026 25.8 16.2097 26.2328C13.9443 27.5144 11.809 29.0133 9.83375 30.7082C5.87166 34.1377 3.04201 38.1033 1.42334 42.4959C1.26265 42.932 1.11049 43.3755 0.97146 43.8141C-1.02489 50.1036 0.0867611 56.793 4.01925 62.167C6.05194 64.9328 8.71057 67.178 11.7776 68.719C14.8447 70.26 18.233 71.0529 21.6653 71.0329H37.8046C44.7321 71.0329 51.0814 67.921 55.2239 62.4953C59.1501 57.3529 60.4368 50.8699 58.7539 44.7089C58.7049 44.5296 58.654 44.35 58.601 44.17ZM15.8304 12.2401C14.0618 9.80281 11.8649 7.70716 9.34694 6.05534C8.70694 5.62815 8.40954 4.89359 8.60704 4.22733C8.66858 3.98384 8.80694 3.76666 9.0016 3.60798C9.1165 3.55504 9.23627 3.51336 9.35921 3.48353C10.3585 3.20418 12.8909 3.29585 13.8007 3.64436C14.0508 3.73993 14.2941 3.85427 14.5082 3.95519C14.606 4.0011 14.6958 4.04325 14.7752 4.07877C17.0078 5.07492 18.0319 5.82694 18.7796 6.37598C18.8713 6.44326 18.9586 6.50722 19.0428 6.568C19.8718 7.16583 20.6684 7.64283 22.0204 7.42454C23.1972 7.23484 23.7796 6.5026 24.1941 5.81135C24.4731 5.32894 24.7253 4.8315 24.9496 4.32131C25.1941 3.78916 25.4982 3.12665 25.7215 2.98387C26.5723 2.43887 27.965 2.12415 29.7688 3.72015C31.8871 5.59393 33.6591 6.00669 36.3058 5.2434C36.4456 5.20327 36.5895 5.15461 36.7339 5.09903C37.3547 4.86053 38.9682 4.074 39.7232 3.28777C40.7926 2.17525 41.8137 1.30802 43.4793 1.96924C44.028 2.21803 44.5608 2.50053 45.0746 2.8151C46.7861 3.79985 49.1292 5.14841 51.3899 4.96506C51.8952 4.92377 52.0243 5.12964 52.0812 5.31328C52.1124 5.44352 52.1056 5.57999 52.0616 5.70649C52.0176 5.83299 51.9382 5.9442 51.8328 6.0269C51.2764 6.51357 50.7236 6.93903 50.1385 7.3896C48.5296 8.62801 46.8661 9.90857 45.0551 12.5248C43.3593 14.9769 41.9223 17.5982 40.7673 20.3467H35.6667L39.223 14.5098C39.3425 14.3136 39.3793 14.0779 39.3251 13.8547C39.2709 13.6314 39.1302 13.4388 38.934 13.3192C38.7378 13.1997 38.5022 13.163 38.2789 13.2171C38.0556 13.2713 37.863 13.412 37.7435 13.6082L33.6383 20.3467H31.5478L31.4022 10.7998C31.3987 10.57 31.304 10.3511 31.1391 10.1911C30.9741 10.0312 30.7524 9.94331 30.5227 9.94683C30.2929 9.95035 30.074 10.045 29.9141 10.2099C29.7541 10.3749 29.6662 10.5966 29.6697 10.8263L29.8151 20.3467H26.6554L23.6525 14.7162C23.5994 14.6151 23.5268 14.5255 23.439 14.4526C23.3511 14.3796 23.2497 14.3248 23.1405 14.2912C23.0313 14.2576 22.9166 14.2459 22.8029 14.2568C22.6892 14.2677 22.5788 14.301 22.4781 14.3548C22.3773 14.4085 22.2881 14.4817 22.2157 14.57C22.1433 14.6583 22.0891 14.7601 22.0562 14.8695C22.0233 14.9788 22.0124 15.0936 22.024 15.2072C22.0356 15.3209 22.0696 15.4311 22.124 15.5315L24.692 20.3467H19.8188C18.971 17.4331 17.6213 14.6898 15.8304 12.2401ZM17.3081 22.6917C17.3083 22.5293 17.3729 22.3736 17.4877 22.2587C17.6025 22.1439 17.7582 22.0793 17.9206 22.0791H41.9301C42.0925 22.0793 42.2482 22.1438 42.363 22.2587C42.4779 22.3735 42.5425 22.5292 42.5426 22.6917V24.6346C42.5425 24.797 42.4779 24.9528 42.3631 25.0676C42.2482 25.1825 42.0925 25.2471 41.9301 25.2473H18.2163C18.2131 25.2473 18.2099 25.2473 18.2068 25.2473H17.9206C17.7582 25.2471 17.6025 25.1824 17.4877 25.0676C17.3729 24.9527 17.3083 24.797 17.3081 24.6346V22.6917ZM53.8469 61.444C50.0349 66.4369 44.1876 69.3005 37.8046 69.3005H21.6653C18.5053 69.3204 15.3856 68.5917 12.5614 67.1739C9.7373 65.7561 7.28912 63.6896 5.41733 61.1436C1.81444 56.2206 0.795762 50.0947 2.62276 44.3376C2.754 43.9241 2.89707 43.5059 3.04894 43.0945C6.61791 33.4101 15.4333 28.6141 18.3291 27.0383L18.4366 26.9797H41.7606C42.4221 27.2571 45.2399 28.5291 48.3854 31.2808C52.4664 34.8232 55.4368 39.4693 56.9393 44.6601C56.9891 44.829 57.0369 44.9974 57.0827 45.1654C58.622 50.8011 57.4426 56.7345 53.8469 61.444Z" fill="#38497D"/>
<path d="M30.3448 36.0237C22.9115 36.0237 16.864 41.8292 16.864 48.9651C16.864 56.1011 22.9115 61.9076 30.3448 61.9076C37.7781 61.9076 43.8256 56.1019 43.8256 48.9659C43.8256 41.8298 37.7782 36.0237 30.3448 36.0237ZM30.3448 60.1745C23.8668 60.1745 18.5964 55.1459 18.5964 48.9651C18.5964 42.7844 23.8668 37.7561 30.3448 37.7561C36.8228 37.7561 42.0932 42.7845 42.0932 48.9651C42.0932 55.1458 36.8228 60.1752 30.3448 60.1752V60.1745Z" fill="#FBFBFB"/>
<path d="M30.6744 43.9215C32.4726 43.9925 32.9023 45.3891 32.9469 45.5547C33.0051 45.7747 33.1475 45.9629 33.3434 46.0788C33.5393 46.1946 33.7729 46.2287 33.9937 46.1737C34.2145 46.1187 34.4048 45.979 34.5234 45.7848C34.6421 45.5907 34.6796 45.3576 34.6278 45.136C34.4185 44.4002 34.004 43.7391 33.4329 43.2301C32.8619 42.721 32.1577 42.385 31.4027 42.2612V41.5141C31.4027 41.2844 31.3115 41.064 31.149 40.9016C30.9866 40.7391 30.7662 40.6479 30.5365 40.6479C30.3068 40.6479 30.0864 40.7391 29.924 40.9016C29.7615 41.064 29.6703 41.2844 29.6703 41.5141V42.2674C29.01 42.3851 28.399 42.6949 27.9139 43.158C26.8764 44.1704 26.8154 45.5671 26.8214 45.9711C26.8453 47.5763 28.0786 48.9285 29.821 49.2594L29.9886 49.2916C30.1099 49.3147 30.2522 49.342 30.3419 49.3587C30.3903 49.3677 30.5322 49.4092 30.5862 49.4251C30.6032 49.4302 30.62 49.4362 30.6364 49.443C30.6475 49.4478 30.6588 49.4521 30.6702 49.4565L30.9 49.5422C30.9169 49.5484 30.9333 49.5556 30.9494 49.5636C31.0549 49.616 31.0879 49.6348 31.1576 49.6743L31.2963 49.7539C31.3053 49.7595 31.3154 49.7656 31.3265 49.7722C31.4648 49.8538 32.6782 50.599 32.7225 51.6295C32.7482 52.2263 32.597 52.6804 32.2606 53.0175C31.6923 53.5867 30.7379 53.7057 30.2654 53.6859C29.5868 53.6581 28.2615 53.0849 28.1473 52.0888C28.1357 51.9747 28.1016 51.864 28.0469 51.7632C27.9922 51.6624 27.918 51.5734 27.8287 51.5015C27.7393 51.4296 27.6366 51.3761 27.5264 51.3442C27.4163 51.3124 27.3009 51.3027 27.1869 51.3157C27.073 51.3288 26.9628 51.3643 26.8627 51.4203C26.7626 51.4763 26.6746 51.5516 26.6038 51.6419C26.5331 51.7321 26.4809 51.8355 26.4505 51.9461C26.42 52.0567 26.4118 52.1722 26.4263 52.286C26.5333 53.2202 27.0858 54.0617 27.9817 54.6562C28.4956 54.993 29.0688 55.2291 29.6709 55.3518V55.9665C29.6709 56.1963 29.7621 56.4166 29.9246 56.579C30.087 56.7415 30.3073 56.8328 30.5371 56.8328C30.7668 56.8328 30.9871 56.7415 31.1496 56.579C31.312 56.4166 31.4033 56.1963 31.4033 55.9665V55.3112C32.1866 55.1632 32.9103 54.7916 33.4871 54.2415C34.1657 53.5613 34.5002 52.6325 34.4544 51.555C34.3749 49.7035 32.722 48.584 32.2066 48.2793C32.1907 48.2696 32.1464 48.2425 32.1371 48.2373L32.0146 48.1681C31.9158 48.1121 31.8693 48.0857 31.7213 48.0123C31.6516 47.9776 31.58 47.9465 31.507 47.9192L31.292 47.8391C31.2208 47.8098 31.1481 47.7843 31.0743 47.7627C30.9269 47.7194 30.7844 47.6788 30.6599 47.6557C30.5733 47.6394 30.434 47.6124 30.3159 47.5902L30.145 47.5576C29.06 47.3515 28.5644 46.5994 28.5547 45.9454C28.5477 45.4731 28.6939 44.8193 29.125 44.3982C29.4752 44.0552 29.9948 43.8949 30.6744 43.9215Z" fill="#FBFBFB"/>
</svg>
