<svg width="24" height="24" viewBox="0 0 24 24" fill="none" xmlns="http://www.w3.org/2000/svg">
<g clip-path="url(#clip0_113_8482)">
<path fill-rule="evenodd" clip-rule="evenodd" d="M7.665 22C4.276 22 2 19.622 2 16.084V7.916C2 4.378 4.276 2 7.665 2H16.334C19.723 2 22 4.378 22 7.916V16.084C22 19.622 19.723 22 16.334 22H7.665ZM7.665 20.5H16.334C18.864 20.5 20.5 18.767 20.5 16.084V7.916C20.5 5.233 18.864 3.5 16.334 3.5H7.665C5.135 3.5 3.5 5.233 3.5 7.916V16.084C3.5 18.767 5.135 20.5 7.665 20.5Z" fill="#F0A500"/>
<path d="M8.69383 18.8062C8.45889 18.5712 8.43753 18.2036 8.62975 17.9445L8.69383 17.8703L14.4021 12.1618L8.69383 6.45323C8.45889 6.21829 8.43753 5.85065 8.62975 5.59158L8.69383 5.51735C8.92877 5.28241 9.29641 5.26105 9.55548 5.45328L9.6297 5.51735L15.8062 11.6938C16.0411 11.9288 16.0625 12.2964 15.8702 12.5555L15.8062 12.6297L9.6297 18.8062C9.37127 19.0646 8.95226 19.0646 8.69383 18.8062Z" fill="#F0A500"/>
</g>
<defs>
<clipPath id="clip0_113_8482">
<rect width="24" height="24" fill="white"/>
</clipPath>
</defs>
</svg>
