<svg width="62" height="53" viewBox="0 0 62 53" fill="none" xmlns="http://www.w3.org/2000/svg">
<g clip-path="url(#clip0_107_8517)">
<path d="M14.6133 34.9678C12.3546 34.9559 10.0321 34.9559 7.69174 34.9678C7.37607 34.9613 7.06234 35.0187 6.7694 35.1365C6.47647 35.2543 6.21038 35.4301 5.98712 35.6534C5.76386 35.8767 5.58804 36.1427 5.47022 36.4357C5.35241 36.7286 5.29503 37.0423 5.30155 37.358C5.28959 38.2284 5.30155 39.0969 5.30155 39.9474C5.30155 41.4592 6.25563 42.4073 7.77141 42.4252C8.56814 42.4252 9.38479 42.4252 10.1735 42.4252H11.2432H12.267C13.0418 42.4252 13.8445 42.4252 14.6332 42.4252C15.9937 42.4013 16.9139 41.5249 16.9776 40.1964C17.0254 39.2005 17.0254 38.1926 16.9776 37.2086C16.9725 36.9053 16.907 36.6061 16.7848 36.3284C16.6627 36.0508 16.4863 35.8003 16.2662 35.5916C16.046 35.3829 15.7864 35.2203 15.5026 35.1132C15.2188 35.0061 14.9165 34.9567 14.6133 34.9678ZM15.2467 39.8856C15.2551 39.9914 15.2418 40.0977 15.2075 40.1981C15.1733 40.2984 15.1188 40.3907 15.0475 40.4692C14.9684 40.5396 14.876 40.5934 14.7758 40.6276C14.6756 40.6618 14.5696 40.6757 14.4639 40.6684C11.9443 40.6684 9.83693 40.6684 7.83714 40.6684C7.72923 40.6776 7.62059 40.6646 7.51785 40.6304C7.41511 40.5961 7.32043 40.5413 7.23959 40.4692C7.16871 40.3831 7.11623 40.2833 7.0854 40.1761C7.05457 40.0689 7.04604 39.9565 7.06033 39.8458C7.08821 38.9913 7.07626 38.1468 7.06033 37.5054C7.04904 37.4009 7.05892 37.2952 7.08938 37.1946C7.11984 37.094 7.17025 37.0005 7.2376 36.9198C7.31775 36.8514 7.41102 36.8 7.51171 36.7688C7.6124 36.7376 7.71839 36.7274 7.8232 36.7386C8.61993 36.7505 9.41666 36.7386 10.1994 36.7386H11.1635H12.1156C12.8605 36.7386 13.6314 36.7386 14.3863 36.7266C14.5049 36.7126 14.6251 36.7231 14.7395 36.7573C14.8539 36.7916 14.9601 36.8489 15.0515 36.9258C15.125 37.0093 15.1806 37.1071 15.2148 37.2129C15.2491 37.3188 15.2613 37.4305 15.2507 37.5413C15.2348 38.3579 15.2408 39.1785 15.2467 39.8856Z" fill="#38497D"/>
<path d="M30.5784 47.544C29.6801 47.544 28.7857 47.544 27.8854 47.544C27.2062 47.544 26.8039 47.1735 26.7979 46.5879C26.7919 46.0023 27.1963 45.592 27.8655 45.592C29.6595 45.572 31.4521 45.572 33.2434 45.592C33.9107 45.592 34.3071 46.0142 34.2971 46.5879C34.2872 47.1615 33.8868 47.528 33.2036 47.534C32.3332 47.5519 31.4508 47.5459 30.5784 47.544Z" fill="#38497D"/>
<path d="M32.166 47.6478H29.7599C29.1325 47.6478 28.509 47.6478 27.8836 47.6478C27.1586 47.6478 26.7044 47.2374 26.6885 46.5941C26.6726 45.9507 27.1506 45.5046 27.8537 45.4986C29.6743 45.4787 31.4868 45.4787 33.2317 45.4986C33.3913 45.4932 33.5504 45.5198 33.6995 45.577C33.8487 45.6341 33.9849 45.7205 34.1001 45.8312C34.1971 45.9342 34.2724 46.0558 34.3213 46.1886C34.3702 46.3214 34.3919 46.4627 34.3849 46.604C34.375 47.2514 33.9288 47.6418 33.1898 47.6478C32.8652 47.6458 32.5146 47.6478 32.166 47.6478ZM30.5726 47.4486H31.3573C31.9728 47.4486 32.5883 47.4486 33.2058 47.4486C33.8232 47.4486 34.1917 47.1339 34.2017 46.6001C34.208 46.4851 34.1909 46.3701 34.1515 46.2619C34.1122 46.1537 34.0513 46.0547 33.9726 45.9706C33.8759 45.8788 33.7617 45.8073 33.6368 45.7604C33.5119 45.7135 33.3789 45.6922 33.2456 45.6978C31.4928 45.6778 29.6822 45.6778 27.8677 45.6978C27.2701 45.6978 26.8937 46.0543 26.8996 46.5921C26.9056 47.1299 27.2641 47.4426 27.8956 47.4486C28.527 47.4546 29.1444 47.4486 29.7679 47.4486H30.5726Z" fill="white"/>
<path d="M16.5341 45.9649C16.4538 46.054 16.3928 46.1588 16.3547 46.2725C16.3167 46.3863 16.3025 46.5067 16.313 46.6262C16.3389 47.146 16.6815 47.4368 17.281 47.4428C17.8805 47.4488 18.5358 47.4428 19.1633 47.4428H20.7687C21.3802 47.4428 21.9936 47.4428 22.6051 47.4428C23.2166 47.4428 23.6011 47.1142 23.6269 46.6043C23.6332 46.4899 23.6161 46.3755 23.5767 46.268C23.5373 46.1605 23.4765 46.0621 23.3979 45.9788C23.3027 45.8843 23.1894 45.8101 23.0648 45.7604C22.9403 45.7108 22.8069 45.6869 22.6729 45.69C21.7646 45.6794 20.8676 45.6747 19.9819 45.6761C19.0524 45.6761 18.1355 45.6814 17.2312 45.692C17.1025 45.6877 16.9744 45.7096 16.8545 45.7566C16.7346 45.8035 16.6256 45.8744 16.5341 45.9649Z" fill="#38497D"/>
<path d="M44.5505 45.9445C44.3534 45.7702 44.0962 45.6794 43.8334 45.6915C42.0408 45.6716 40.2202 45.6716 38.4555 45.6915C38.3193 45.6881 38.1838 45.7119 38.0569 45.7615C37.93 45.8111 37.8143 45.8855 37.7165 45.9804C37.6386 46.0614 37.5778 46.1573 37.5377 46.2624C37.4977 46.3674 37.4792 46.4795 37.4835 46.5918C37.4934 47.1018 37.8818 47.4364 38.4913 47.4424C39.1008 47.4483 39.7083 47.4424 40.3159 47.4424H41.9272C42.5586 47.4424 43.1861 47.4424 43.8175 47.4424C44.4489 47.4424 44.7955 47.1237 44.8014 46.5859C44.8068 46.4674 44.7872 46.3491 44.744 46.2386C44.7007 46.1281 44.6348 46.0279 44.5505 45.9445Z" fill="#38497D"/>
<path d="M12.0618 45.6913C11.1715 45.6814 10.2692 45.6774 9.37285 45.6774C8.47653 45.6774 7.58021 45.6774 6.67791 45.6913C6.08037 45.6913 5.70192 46.0479 5.70789 46.5856C5.71387 47.1234 6.09431 47.4361 6.70381 47.4421C7.31331 47.4481 7.93675 47.4421 8.55222 47.4421H10.1576C10.7811 47.4421 11.4065 47.4421 12.0299 47.4421C12.6534 47.4421 13.0259 47.0936 13.0418 46.5896C13.0461 46.3675 12.9624 46.1526 12.8088 45.9921C12.7108 45.8943 12.5942 45.8173 12.4659 45.7657C12.3376 45.714 12.2001 45.6887 12.0618 45.6913Z" fill="#38497D"/>
<path d="M10 11.3516L57.5 19.8516L58.5 13.3516L11.5 5.35156L10 11.3516Z" fill="#F0A500"/>
<path d="M50.919 41.5685C51.0733 41.5993 51.2298 41.618 51.3871 41.6243C51.5863 41.6243 51.7855 41.6362 51.9846 41.6482C52.4724 41.7005 52.9653 41.679 53.4466 41.5845C54.813 41.2279 55.6197 40.234 55.9125 38.5449C57.2311 30.9468 58.5537 23.3473 59.8802 15.7465C59.9663 15.3009 59.9631 14.8427 59.8708 14.3984C59.7785 13.9541 59.5989 13.5325 59.3425 13.1581C59.0861 12.7837 58.7579 12.4639 58.377 12.2172C57.9961 11.9705 57.5701 11.8019 57.1236 11.721C52.9686 10.9641 48.74 10.2132 44.6527 9.48421L41.3284 8.88666C36.3501 7.99831 31.3706 7.11261 26.3897 6.22957L23.1888 5.6599C20.2011 5.1241 17.0978 4.57237 14.0483 4.05051C12.1442 3.72982 10.4431 4.96476 10.1005 6.94264C9.81903 8.54539 9.53752 10.1521 9.25601 11.7629C8.65846 15.1948 8.03303 18.7442 7.43349 22.2359C7.35581 22.688 7.18053 22.8334 6.74631 22.8334C6.03324 22.8215 5.30622 22.8334 4.6051 22.8334H3.34228C2.34637 22.8334 1.56956 23.1382 1.04172 23.7516C0.7498 24.1211 0.499945 24.522 0.296782 24.9467C0.201174 25.126 0.0975994 25.3132 0 25.4945V50.6712C0.0411441 50.705 0.0738709 50.748 0.0956076 50.7966C0.693155 52.4937 1.80659 53.2844 3.57333 53.2844C18.018 53.2844 32.4628 53.2844 46.9075 53.2844C49.1682 53.2844 50.5187 51.918 50.5206 49.6314V41.5088L50.6342 41.5247L50.919 41.5685ZM11.1702 10.9542C11.2478 10.5439 11.3195 10.1355 11.3932 9.72721C11.5625 8.76914 11.7398 7.77721 11.9669 6.81715C12.1342 6.10607 12.9628 5.62206 13.7595 5.76945C17.0434 6.35107 20.3272 6.936 23.6111 7.52425L28.3915 8.38074L38.741 10.2232L47.268 11.737C50.3766 12.2907 53.4845 12.8464 56.5917 13.4041C57.7868 13.6192 58.3127 14.3741 58.1195 15.5852C57.99 16.3958 57.8446 17.2005 57.6892 18.051C57.6189 18.4268 57.5491 18.8119 57.4801 19.2063L57.4622 19.3059L11.1522 11.0518L11.1702 10.9542ZM48.7519 49.5697C48.7519 50.9918 48.2141 51.5197 46.7601 51.5197H3.73666C2.28064 51.5197 1.76476 51.0078 1.76476 49.5617C1.77007 41.8733 1.77272 34.1822 1.77272 26.4884C1.77272 25.0941 2.32048 24.5603 3.72471 24.5603H46.8059C48.2002 24.5603 48.7519 25.1021 48.7519 26.4944V49.5697ZM50.5246 26.4087C50.5246 24.164 49.1821 22.8235 46.9393 22.8235H9.12057L10.8674 12.7926L10.965 12.8086L57.1455 21.0448L57.1275 21.1424C57.0691 21.4956 57.0113 21.8461 56.9542 22.194C56.8307 22.9509 56.7073 23.6999 56.5758 24.4448C56.2159 26.5163 55.8534 28.5865 55.4883 30.6553C55.0408 33.2009 54.5946 35.7458 54.1497 38.29C53.9366 39.513 53.5084 39.9193 52.3571 39.9193H52.14C50.5605 39.8575 50.5147 39.8117 50.5147 38.2721V34.8103C50.5226 32.0098 50.526 29.2093 50.5246 26.4087Z" fill="#38497D"/>
</g>
<defs>
<clipPath id="clip0_107_8517">
<rect width="62" height="53" fill="white"/>
</clipPath>
</defs>
</svg>
