<svg width="82" height="80" viewBox="0 0 82 80" fill="none" xmlns="http://www.w3.org/2000/svg">
<rect x="57" y="39" width="14" height="25" rx="3" fill="#F0A500"/>
<rect x="12" y="39" width="14" height="25" rx="3" fill="#F0A500"/>
<mask id="path-3-inside-1_107_8344" fill="white">
<path d="M66.1522 36.7609H64.7826V31.2826C64.7826 25.1077 62.3296 19.1857 57.9633 14.8193C53.597 10.453 47.6749 8 41.5 8C35.3251 8 29.403 10.453 25.0367 14.8193C20.6704 19.1857 18.2174 25.1077 18.2174 31.2826V36.7609H16.8478C15.0323 36.763 13.2918 37.4852 12.008 38.7689C10.7243 40.0527 10.0021 41.7932 10 43.6087V58.6739C10.0021 60.4894 10.7243 62.2299 12.008 63.5137C13.2918 64.7975 15.0323 65.5196 16.8478 65.5217H23.6957C24.785 65.5205 25.8294 65.0873 26.5996 64.317C27.3699 63.5467 27.8032 62.5024 27.8043 61.413V40.8696C27.8032 39.7802 27.3699 38.7359 26.5996 37.9656C25.8294 37.1953 24.785 36.7621 23.6957 36.7609H20.9565V32.6522H22.524C23.5027 32.6581 24.4508 32.3118 25.1953 31.6766C25.9398 31.0414 26.431 30.1595 26.5792 29.1921C27.0837 25.5938 28.8716 22.299 31.6135 19.9148C34.3553 17.5305 37.8665 16.2174 41.5 16.2174C45.1335 16.2174 48.6447 17.5305 51.3865 19.9148C54.1284 22.299 55.9163 25.5938 56.4208 29.1921C56.569 30.1595 57.0602 31.0414 57.8047 31.6766C58.5492 32.3118 59.4973 32.6581 60.476 32.6522H62.0435V36.7609H59.3043C58.215 36.7621 57.1706 37.1953 56.4004 37.9656C55.6301 38.7359 55.1968 39.7802 55.1957 40.8696V61.413C55.1968 62.5024 55.6301 63.5467 56.4004 64.317C57.1706 65.0873 58.215 65.5205 59.3043 65.5217H61.7911C61.5097 66.3206 60.988 67.0127 60.2975 67.5031C59.6071 67.9936 58.7817 68.2583 57.9348 68.2609H41.5C41.1368 68.2609 40.7884 68.4052 40.5316 68.662C40.2747 68.9188 40.1304 69.2672 40.1304 69.6304C40.1304 69.9937 40.2747 70.342 40.5316 70.5989C40.7884 70.8557 41.1368 71 41.5 71H57.9348C59.5126 70.9978 61.0414 70.4518 62.2636 69.4539C63.4857 68.456 64.3265 67.0672 64.6442 65.5217H66.1522C67.9677 65.5196 69.7082 64.7975 70.992 63.5137C72.2757 62.2299 72.9979 60.4894 73 58.6739V43.6087C72.9979 41.7932 72.2757 40.0527 70.992 38.7689C69.7082 37.4852 67.9677 36.763 66.1522 36.7609ZM12.7391 58.6739V43.6087C12.7403 42.5194 13.1736 41.475 13.9439 40.7047C14.7141 39.9345 15.7585 39.5012 16.8478 39.5H18.2174V62.7826H16.8478C15.7585 62.7814 14.7141 62.3482 13.9439 61.5779C13.1736 60.8076 12.7403 59.7632 12.7391 58.6739ZM23.6957 39.5C24.0587 39.5005 24.4068 39.6449 24.6636 39.9017C24.9203 40.1584 25.0647 40.5065 25.0652 40.8696V61.413C25.0647 61.7761 24.9203 62.1242 24.6636 62.381C24.4068 62.6377 24.0587 62.7821 23.6957 62.7826H20.9565V39.5H23.6957ZM59.1332 28.8137C58.5374 24.5608 56.4248 20.6665 53.1844 17.8484C49.9441 15.0303 45.7944 13.4783 41.5 13.4783C37.2056 13.4783 33.0559 15.0303 29.8156 17.8484C26.5752 20.6665 24.4626 24.5608 23.8668 28.8137C23.8119 29.1274 23.6461 29.4109 23.3996 29.6127C23.1532 29.8145 22.8424 29.9211 22.524 29.913H21.0259C21.3672 24.7152 23.6727 19.8417 27.4748 16.2811C31.2769 12.7204 36.291 10.7392 41.5 10.7392C46.709 10.7392 51.7231 12.7204 55.5252 16.2811C59.3273 19.8417 61.6328 24.7152 61.9741 29.913H60.476C60.1576 29.9211 59.8469 29.8145 59.6004 29.6127C59.3539 29.4109 59.1881 29.1274 59.1332 28.8137ZM57.9348 61.413V40.8696C57.9353 40.5065 58.0797 40.1584 58.3364 39.9017C58.5932 39.6449 58.9413 39.5005 59.3043 39.5H62.0435V62.7826H59.3043C58.9413 62.7821 58.5932 62.6377 58.3364 62.381C58.0797 62.1242 57.9353 61.7761 57.9348 61.413ZM70.2609 58.6739C70.2597 59.7632 69.8264 60.8076 69.0561 61.5779C68.2859 62.3482 67.2415 62.7814 66.1522 62.7826H64.7826V39.5H66.1522C67.2415 39.5012 68.2859 39.9345 69.0561 40.7047C69.8264 41.475 70.2597 42.5194 70.2609 43.6087V58.6739Z"/>
</mask>
<path d="M66.1522 36.7609H64.7826V31.2826C64.7826 25.1077 62.3296 19.1857 57.9633 14.8193C53.597 10.453 47.6749 8 41.5 8C35.3251 8 29.403 10.453 25.0367 14.8193C20.6704 19.1857 18.2174 25.1077 18.2174 31.2826V36.7609H16.8478C15.0323 36.763 13.2918 37.4852 12.008 38.7689C10.7243 40.0527 10.0021 41.7932 10 43.6087V58.6739C10.0021 60.4894 10.7243 62.2299 12.008 63.5137C13.2918 64.7975 15.0323 65.5196 16.8478 65.5217H23.6957C24.785 65.5205 25.8294 65.0873 26.5996 64.317C27.3699 63.5467 27.8032 62.5024 27.8043 61.413V40.8696C27.8032 39.7802 27.3699 38.7359 26.5996 37.9656C25.8294 37.1953 24.785 36.7621 23.6957 36.7609H20.9565V32.6522H22.524C23.5027 32.6581 24.4508 32.3118 25.1953 31.6766C25.9398 31.0414 26.431 30.1595 26.5792 29.1921C27.0837 25.5938 28.8716 22.299 31.6135 19.9148C34.3553 17.5305 37.8665 16.2174 41.5 16.2174C45.1335 16.2174 48.6447 17.5305 51.3865 19.9148C54.1284 22.299 55.9163 25.5938 56.4208 29.1921C56.569 30.1595 57.0602 31.0414 57.8047 31.6766C58.5492 32.3118 59.4973 32.6581 60.476 32.6522H62.0435V36.7609H59.3043C58.215 36.7621 57.1706 37.1953 56.4004 37.9656C55.6301 38.7359 55.1968 39.7802 55.1957 40.8696V61.413C55.1968 62.5024 55.6301 63.5467 56.4004 64.317C57.1706 65.0873 58.215 65.5205 59.3043 65.5217H61.7911C61.5097 66.3206 60.988 67.0127 60.2975 67.5031C59.6071 67.9936 58.7817 68.2583 57.9348 68.2609H41.5C41.1368 68.2609 40.7884 68.4052 40.5316 68.662C40.2747 68.9188 40.1304 69.2672 40.1304 69.6304C40.1304 69.9937 40.2747 70.342 40.5316 70.5989C40.7884 70.8557 41.1368 71 41.5 71H57.9348C59.5126 70.9978 61.0414 70.4518 62.2636 69.4539C63.4857 68.456 64.3265 67.0672 64.6442 65.5217H66.1522C67.9677 65.5196 69.7082 64.7975 70.992 63.5137C72.2757 62.2299 72.9979 60.4894 73 58.6739V43.6087C72.9979 41.7932 72.2757 40.0527 70.992 38.7689C69.7082 37.4852 67.9677 36.763 66.1522 36.7609ZM12.7391 58.6739V43.6087C12.7403 42.5194 13.1736 41.475 13.9439 40.7047C14.7141 39.9345 15.7585 39.5012 16.8478 39.5H18.2174V62.7826H16.8478C15.7585 62.7814 14.7141 62.3482 13.9439 61.5779C13.1736 60.8076 12.7403 59.7632 12.7391 58.6739ZM23.6957 39.5C24.0587 39.5005 24.4068 39.6449 24.6636 39.9017C24.9203 40.1584 25.0647 40.5065 25.0652 40.8696V61.413C25.0647 61.7761 24.9203 62.1242 24.6636 62.381C24.4068 62.6377 24.0587 62.7821 23.6957 62.7826H20.9565V39.5H23.6957ZM59.1332 28.8137C58.5374 24.5608 56.4248 20.6665 53.1844 17.8484C49.9441 15.0303 45.7944 13.4783 41.5 13.4783C37.2056 13.4783 33.0559 15.0303 29.8156 17.8484C26.5752 20.6665 24.4626 24.5608 23.8668 28.8137C23.8119 29.1274 23.6461 29.4109 23.3996 29.6127C23.1532 29.8145 22.8424 29.9211 22.524 29.913H21.0259C21.3672 24.7152 23.6727 19.8417 27.4748 16.2811C31.2769 12.7204 36.291 10.7392 41.5 10.7392C46.709 10.7392 51.7231 12.7204 55.5252 16.2811C59.3273 19.8417 61.6328 24.7152 61.9741 29.913H60.476C60.1576 29.9211 59.8469 29.8145 59.6004 29.6127C59.3539 29.4109 59.1881 29.1274 59.1332 28.8137ZM57.9348 61.413V40.8696C57.9353 40.5065 58.0797 40.1584 58.3364 39.9017C58.5932 39.6449 58.9413 39.5005 59.3043 39.5H62.0435V62.7826H59.3043C58.9413 62.7821 58.5932 62.6377 58.3364 62.381C58.0797 62.1242 57.9353 61.7761 57.9348 61.413ZM70.2609 58.6739C70.2597 59.7632 69.8264 60.8076 69.0561 61.5779C68.2859 62.3482 67.2415 62.7814 66.1522 62.7826H64.7826V39.5H66.1522C67.2415 39.5012 68.2859 39.9345 69.0561 40.7047C69.8264 41.475 70.2597 42.5194 70.2609 43.6087V58.6739Z" fill="#38497D" stroke="#FBFBFB" stroke-width="0.6" mask="url(#path-3-inside-1_107_8344)"/>
</svg>
