<svg width="24" height="24" viewBox="0 0 24 24" fill="none" xmlns="http://www.w3.org/2000/svg">
<g clip-path="url(#clip0_113_8548)">
<path fill-rule="evenodd" clip-rule="evenodd" d="M16.335 2C19.724 2 22 4.378 22 7.916V16.084C22 19.622 19.724 22 16.335 22H7.666C4.277 22 2 19.622 2 16.084L2 7.916C2 4.378 4.277 2 7.666 2L16.335 2ZM16.335 3.5L7.666 3.5C5.136 3.5 3.5 5.233 3.5 7.916L3.5 16.084C3.5 18.767 5.136 20.5 7.666 20.5H16.335C18.865 20.5 20.5 18.767 20.5 16.084V7.916C20.5 5.233 18.865 3.5 16.335 3.5Z" fill="#F0A500"/>
<path d="M15.3062 5.19383C15.5411 5.42877 15.5625 5.79641 15.3702 6.05548L15.3062 6.1297L9.59794 11.8382L15.3062 17.5468C15.5411 17.7817 15.5625 18.1494 15.3702 18.4084L15.3062 18.4826C15.0712 18.7176 14.7036 18.7389 14.4445 18.5467L14.3703 18.4826L8.19383 12.3062C7.95889 12.0712 7.93753 11.7036 8.12975 11.4445L8.19383 11.3703L14.3703 5.19383C14.6287 4.93539 15.0477 4.93539 15.3062 5.19383Z" fill="#F0A500"/>
</g>
<defs>
<clipPath id="clip0_113_8548">
<rect width="24" height="24" fill="white"/>
</clipPath>
</defs>
</svg>
