<svg width="29" height="24" viewBox="0 0 29 24" fill="none" xmlns="http://www.w3.org/2000/svg">
<g clip-path="url(#clip0_113_8529)">
<path d="M20.16 10.87C20.06 10.86 19.94 10.86 19.83 10.87C17.45 10.79 15.56 8.84 15.56 6.44C15.56 3.99 17.54 2 20 2C22.45 2 24.44 3.99 24.44 6.44C24.43 8.84 22.54 10.79 20.16 10.87Z" stroke="#424242" stroke-width="1.5" stroke-linecap="round" stroke-linejoin="round"/>
<path d="M15.16 14.56C12.74 16.18 12.74 18.82 15.16 20.43C17.91 22.27 22.42 22.27 25.17 20.43C27.59 18.81 27.59 16.17 25.17 14.56C22.43 12.73 17.92 12.73 15.16 14.56Z" stroke="#424242" stroke-width="1.5" stroke-linecap="round" stroke-linejoin="round"/>
<mask id="path-3-inside-1_113_8529" fill="white">
<path d="M0.113378 17.1134C0.250806 16.976 0.465858 16.9635 0.6174 17.0759L0.660815 17.1134L4 20.4524L7.33918 17.1134C7.47661 16.976 7.69166 16.9635 7.84321 17.0759L7.88662 17.1134C8.02405 17.2508 8.03654 17.4659 7.9241 17.6174L7.88662 17.6608L4.27372 21.2737C4.13629 21.4111 3.92124 21.4236 3.7697 21.3112L3.72628 21.2737L0.113378 17.6608C-0.0377927 17.5096 -0.0377927 17.2645 0.113378 17.1134Z"/>
</mask>
<path d="M0.113378 17.1134C0.250806 16.976 0.465858 16.9635 0.6174 17.0759L0.660815 17.1134L4 20.4524L7.33918 17.1134C7.47661 16.976 7.69166 16.9635 7.84321 17.0759L7.88662 17.1134C8.02405 17.2508 8.03654 17.4659 7.9241 17.6174L7.88662 17.6608L4.27372 21.2737C4.13629 21.4111 3.92124 21.4236 3.7697 21.3112L3.72628 21.2737L0.113378 17.6608C-0.0377927 17.5096 -0.0377927 17.2645 0.113378 17.1134Z" fill="#424242"/>
<path d="M0.6174 17.0759L1.92433 15.562L1.86844 15.5137L1.80914 15.4697L0.6174 17.0759ZM0.660815 17.1134L2.07499 15.6991L2.0232 15.6473L1.96775 15.5995L0.660815 17.1134ZM4 20.4524L2.58582 21.8666L4 23.2807L5.41418 21.8666L4 20.4524ZM7.33918 17.1134L8.75336 18.5276L8.7534 18.5276L7.33918 17.1134ZM7.84321 17.0759L9.15015 15.562L9.09425 15.5137L9.03495 15.4697L7.84321 17.0759ZM7.88662 17.1134L9.30084 15.6992L9.24902 15.6474L9.19356 15.5995L7.88662 17.1134ZM7.9241 17.6174L9.43801 18.9243L9.48626 18.8684L9.53026 18.8091L7.9241 17.6174ZM7.88662 17.6608L9.30084 19.075L9.35265 19.0232L9.40053 18.9678L7.88662 17.6608ZM4.27372 21.2737L5.68793 22.6879L5.68793 22.6879L4.27372 21.2737ZM3.7697 21.3112L2.46276 22.8251L2.51865 22.8734L2.57795 22.9174L3.7697 21.3112ZM3.72628 21.2737L2.31207 22.6879L2.36388 22.7397L2.41934 22.7876L3.72628 21.2737ZM0.113378 17.6608L-1.30084 19.075L0.113378 17.6608ZM1.52759 18.5276C0.953719 19.1015 0.0585487 19.1517 -0.574343 18.6821L1.80914 15.4697C0.873168 14.7753 -0.452108 14.8504 -1.30084 15.6992L1.52759 18.5276ZM-0.689536 18.5898L-0.64612 18.6273L1.96775 15.5995L1.92433 15.562L-0.689536 18.5898ZM-0.753361 18.5276L2.58582 21.8666L5.41418 19.0381L2.07499 15.6991L-0.753361 18.5276ZM5.41418 21.8666L8.75336 18.5276L5.92501 15.6991L2.58582 19.0381L5.41418 21.8666ZM8.7534 18.5276C8.17953 19.1015 7.28436 19.1517 6.65146 18.6821L9.03495 15.4697C8.09897 14.7753 6.7737 14.8504 5.92497 15.6992L8.7534 18.5276ZM6.53627 18.5898L6.57968 18.6273L9.19356 15.5995L9.15015 15.562L6.53627 18.5898ZM6.47241 18.5276C5.89854 17.9537 5.84835 17.0586 6.31794 16.4257L9.53026 18.8091C10.2247 17.8732 10.1496 16.5479 9.30084 15.6992L6.47241 18.5276ZM6.4102 16.3105L6.37272 16.3539L9.40053 18.9678L9.43801 18.9243L6.4102 16.3105ZM6.47241 16.2466L2.8595 19.8595L5.68793 22.6879L9.30084 19.075L6.47241 16.2466ZM2.8595 19.8595C3.43338 19.2856 4.32855 19.2354 4.96144 19.705L2.57795 22.9174C3.51393 23.6118 4.83921 23.5367 5.68793 22.6879L2.8595 19.8595ZM5.07664 19.7973L5.03322 19.7598L2.41934 22.7876L2.46276 22.8251L5.07664 19.7973ZM5.14049 19.8595L1.52759 16.2466L-1.30084 19.075L2.31207 22.6879L5.14049 19.8595ZM1.52759 16.2466C2.15747 16.8765 2.15747 17.8977 1.52759 18.5276L-1.30084 15.6992C-2.23305 16.6314 -2.23305 18.1428 -1.30084 19.075L1.52759 16.2466Z" fill="#424242" mask="url(#path-3-inside-1_113_8529)"/>
</g>
<defs>
<clipPath id="clip0_113_8529">
<rect width="29" height="24" fill="white"/>
</clipPath>
</defs>
</svg>
