<svg width="150" height="155" viewBox="0 0 150 155" fill="none" xmlns="http://www.w3.org/2000/svg">
<g filter="url(#filter0_b_107_8673)">
<circle cx="75" cy="78" r="74" fill="#F0A500" fill-opacity="0.85"/>
</g>
<g clip-path="url(#clip0_107_8673)">
<path d="M115.988 57.6552C115.988 54.4822 115.988 51.3107 115.988 48.1404C115.988 45.9504 115.283 45.2448 113.093 45.2244C106.897 45.2413 100.737 44.2777 94.8441 42.3696C86.9705 39.7635 81.398 36.142 77.2995 30.9706C77.0965 30.685 76.8303 30.4497 76.5215 30.2828C76.2127 30.1159 75.8695 30.0219 75.5184 30.0081C75.1412 30.0253 74.7728 30.1274 74.4409 30.3068C74.109 30.4863 73.8222 30.7383 73.6022 31.044C70.4987 34.9633 66.4452 38.0262 61.1552 40.4242C54.1947 43.5849 46.5217 45.1592 37.7597 45.2367C35.7575 45.2367 35.0123 45.9993 35.0123 47.9773C35.0123 50.8484 35.0123 53.7182 35.0123 56.5867C35.0123 64.1561 34.9918 71.9824 35.045 79.6741C35.0525 82.7672 35.2577 85.8567 35.6592 88.9238C36.5802 95.7718 39.027 102.328 42.8204 108.112C48.7777 117.24 57.069 123.936 68.1771 128.586C69.6675 129.21 71.2234 129.756 72.7301 130.286C73.418 130.527 74.1018 130.768 74.7773 131.016H76.1694C76.2635 130.942 76.3685 130.883 76.4806 130.841C77.2586 130.555 78.0406 130.286 78.8226 130.025C80.4236 129.479 82.0736 128.912 83.6418 128.235C93.6813 123.904 101.657 117.541 107.344 109.332C113.032 101.122 115.943 91.4075 115.984 80.555C115.988 72.9082 115.988 65.1552 115.988 57.6552ZM111.644 80.2696C111.553 98.1123 103.561 111.905 87.8959 121.265C84.2997 123.396 80.4587 125.087 76.4561 126.302C76.122 126.407 75.7745 126.463 75.4243 126.469C75.205 126.472 74.9865 126.441 74.7773 126.375C63.5504 122.807 54.948 116.966 48.4748 108.557C43.9353 102.719 41.0104 95.7977 39.9911 88.4833C39.593 85.6168 39.3865 82.727 39.3729 79.8332C39.3155 72.9286 39.3278 65.9138 39.336 59.1275C39.336 56.4901 39.336 53.8528 39.336 51.2155V49.5842L39.7209 49.5597C55.6482 48.6176 66.5885 44.4128 75.2032 35.938L75.4898 35.6566L75.7805 35.9421C84.301 44.3884 95.229 48.5809 111.222 49.5678L111.59 49.5923L111.623 50.2775C111.623 50.5099 111.648 50.7343 111.648 50.9586V59.6291C111.668 66.3951 111.676 73.3894 111.644 80.2696Z" fill="white" fill-opacity="0.65"/>
<path d="M94.7909 77.9449C95.1126 77.6631 95.3434 77.2928 95.4541 76.8805C95.5649 76.4683 95.5506 76.0326 95.4132 75.6284C95.2909 75.2217 95.0464 74.8621 94.7125 74.5981C94.3787 74.3341 93.9716 74.1784 93.5462 74.1521C92.2482 73.9563 90.9544 73.7442 89.6605 73.5526C87.6502 73.2385 85.5661 72.9123 83.5189 72.6227C83.1928 72.5986 82.8804 72.4821 82.6185 72.287C82.3567 72.0919 82.1562 71.8263 82.0408 71.5216C81.2219 69.7475 80.4031 67.9816 79.5514 66.2197C78.9291 64.9065 78.3231 63.5973 77.6966 62.28C77.1807 61.1748 76.5011 60.6813 75.4938 60.6813C74.4907 60.6813 73.811 61.1789 73.2951 62.2923C72.6196 63.7442 71.9317 65.1961 71.2479 66.6439C70.4782 68.2752 69.7084 69.9065 68.9509 71.5379C68.8347 71.8421 68.634 72.1071 68.3723 72.3021C68.1106 72.4971 67.7987 72.6139 67.4729 72.639C65.7368 72.8837 63.9762 73.161 62.2729 73.4261C60.7293 73.6668 59.1857 73.9074 57.6381 74.1317C56.5039 74.2989 55.8693 74.7638 55.5908 75.6447C55.3124 76.5257 55.5417 77.2761 56.3606 78.0918C57.4292 79.1725 58.4938 80.2614 59.5542 81.3544C60.8604 82.688 62.2074 84.0665 63.5463 85.4083C63.7962 85.6406 63.9798 85.9347 64.0783 86.2607C64.1769 86.5867 64.1868 86.9328 64.1072 87.2639C63.5545 90.4369 63.0263 93.671 62.5186 96.795L62.3507 97.5209C62.146 98.8015 62.404 99.5601 63.2147 100.103C64.0254 100.645 64.8524 100.584 65.9743 99.9557C67.305 99.2094 68.648 98.4753 69.9868 97.7371C71.469 96.9214 73.0044 96.1058 74.4907 95.2412C74.7782 95.0507 75.1158 94.9491 75.4611 94.9491C75.8064 94.9491 76.1439 95.0507 76.4315 95.2412C79.3385 96.8725 82.3274 98.5364 85.3082 100.135C85.6599 100.351 86.063 100.47 86.4761 100.479C86.8891 100.489 87.2972 100.388 87.6584 100.188C87.9872 99.9724 88.2522 99.673 88.4257 99.3209C88.5992 98.9688 88.675 98.5768 88.6451 98.1857V98.0634C88.6514 97.9914 88.6514 97.9191 88.6451 97.8472L88.2357 95.3513C87.8262 92.7697 87.3881 90.1024 86.9296 87.4842C86.829 87.0917 86.8376 86.6793 86.9544 86.2913C87.0713 85.9033 87.292 85.5544 87.5929 85.2819C89.1446 83.7402 90.7005 82.1456 92.2032 80.6081C93.0657 79.7027 93.9283 78.815 94.7909 77.9449ZM88.2398 78.4384L86.7412 79.9841C85.5457 81.2076 84.4197 82.3985 83.2282 83.5526C82.4093 84.3357 82.1678 85.184 82.4093 86.4279C82.7041 88.0225 82.9539 89.6049 83.2282 91.2811C83.3429 91.9907 83.4589 92.7099 83.5762 93.4385L83.7113 94.2542L82.9743 93.8464L81.1523 92.8553C79.7725 92.1049 78.4705 91.3994 77.1807 90.6367C76.696 90.3004 76.1194 90.1201 75.5286 90.1201C74.9379 90.1201 74.3613 90.3004 73.8765 90.6367C72.5909 91.4034 71.2848 92.1131 69.9049 92.8594C69.3044 93.1857 68.6903 93.5215 68.0625 93.8667L67.3255 94.2746L67.7349 91.8561C67.9806 90.3471 68.2099 88.9197 68.4391 87.4923L68.4678 87.3251C68.5292 86.9173 68.5988 86.5094 68.6807 86.1016C68.7864 85.6832 68.7775 85.2442 68.6551 84.8304C68.5327 84.4165 68.3012 84.0429 67.9847 83.7484C66.8259 82.5861 65.6631 81.387 64.5372 80.2288L63.5299 79.1929C63.3784 79.0379 63.2351 78.8748 63.055 78.679L62.2361 77.7818L67.6203 76.9294L67.9069 76.8764C68.1585 76.8125 68.417 76.7797 68.6766 76.7785C70.6911 76.8315 71.9522 75.8609 72.771 73.626C73.2224 72.4582 73.7405 71.3171 74.3228 70.2083C74.5958 69.6781 74.8688 69.1344 75.1417 68.577L75.5061 67.8021L76.325 69.4334C76.5993 69.9922 76.845 70.4979 77.0866 71.0036C77.7362 72.3794 78.3845 73.7551 79.0314 75.1309C79.1877 75.5139 79.4455 75.8474 79.7772 76.0959C80.1089 76.3444 80.5021 76.4986 80.9149 76.542C82.6181 76.7826 84.3419 77.0559 86.0124 77.3169L87.3144 77.5208C87.4861 77.5543 87.6557 77.5978 87.8222 77.6513L88.1169 77.741L88.7802 77.9245L88.2398 78.4384Z" fill="white" fill-opacity="0.65"/>
</g>
<defs>
<filter id="filter0_b_107_8673" x="-14" y="-11" width="178" height="178" filterUnits="userSpaceOnUse" color-interpolation-filters="sRGB">
<feFlood flood-opacity="0" result="BackgroundImageFix"/>
<feGaussianBlur in="BackgroundImage" stdDeviation="7.5"/>
<feComposite in2="SourceAlpha" operator="in" result="effect1_backgroundBlur_107_8673"/>
<feBlend mode="normal" in="SourceGraphic" in2="effect1_backgroundBlur_107_8673" result="shape"/>
</filter>
<clipPath id="clip0_107_8673">
<rect width="81" height="101" fill="white" transform="translate(35 30)"/>
</clipPath>
</defs>
</svg>
