<svg width="82" height="80" viewBox="0 0 82 80" fill="none" xmlns="http://www.w3.org/2000/svg">
<path fill-rule="evenodd" clip-rule="evenodd" d="M20.1016 37.0422C21.1592 26.9153 30.3358 19 41.4999 19C52.8079 19 62.0769 27.1209 62.935 37.4352L50.9947 37.3256C50.9981 37.2175 50.9999 37.109 50.9999 37C50.9999 31.4772 46.5227 27 40.9999 27C35.477 27 30.9999 31.4772 30.9999 37C30.9999 37.0475 31.0002 37.0949 31.0009 37.1422L20.1016 37.0422Z" fill="#F0A500"/>
<path d="M22.6959 13.1285C28.4491 8.28297 35.6136 5.42527 43.1223 4.98095C42.4137 4.93826 41.6997 4.91646 40.9803 4.91554C36.3753 4.915 31.8152 5.82163 27.5606 7.58365C23.306 9.34567 19.4402 11.9286 16.184 15.1848C12.9277 18.441 10.3449 22.3069 8.58284 26.5614C6.82082 30.816 5.91419 35.3761 5.91473 39.9811C5.91473 59.348 21.6134 75.0467 40.9803 75.0467C41.6968 75.0467 42.4084 75.0226 43.1147 74.9802C24.7422 73.8767 10.1836 58.6309 10.1836 39.9811C10.1711 31.2243 13.4473 22.7821 19.3636 16.3262C20.4034 15.1887 21.5165 14.1205 22.6959 13.1285Z" fill="#FED67E"/>
<path d="M67.5769 45.2061C65.4056 45.2069 63.2496 45.5687 61.197 46.2767C53.8166 48.8134 47.9205 55.6071 45.4251 64.4511C45.0059 65.942 44.69 67.46 44.4799 68.9944L46.2924 69.2434C46.491 67.7928 46.7896 66.3577 47.1859 64.9483C49.5185 56.682 54.9785 50.349 61.7914 48.0072C63.6527 47.365 65.6078 47.0368 67.5768 47.0359C68.1567 47.0486 68.7354 47.0968 69.3095 47.1803C69.4279 47.1955 69.5461 47.2094 69.6639 47.2234L69.8798 45.4067C69.7648 45.393 69.6494 45.3789 69.5337 45.3645C68.8854 45.2712 68.2319 45.2183 67.5769 45.2061Z" fill="#38497D"/>
<path d="M21.2257 46.4067C19.0677 45.6289 16.7906 45.2332 14.4966 45.2374C13.6894 45.2471 12.8836 45.3078 12.084 45.4191L12.3092 47.2347C13.0341 47.1333 13.7647 47.0773 14.4966 47.067C16.5785 47.063 18.6452 47.4218 20.6038 48.1274C27.2639 50.5344 32.6242 56.7813 34.9425 64.8369C35.3492 66.2547 35.6561 67.6993 35.8609 69.16L37.6725 68.9052C37.4557 67.3598 37.131 65.8315 36.7008 64.3315C34.2207 55.7133 28.4355 49.0124 21.2257 46.4067Z" fill="#38497D"/>
<path d="M16.5572 44.7088H22.7399C24.1767 44.7088 25.3454 43.4809 25.3454 42.0408C25.3454 40.6007 24.1767 39.3727 22.7399 39.3727H16.5572C15.1206 39.3727 13.9518 40.6007 13.9518 42.0408C13.9518 43.4809 15.1206 44.7088 16.5572 44.7088ZM23.5159 42.0408C23.5159 42.4721 23.1677 42.8793 22.7399 42.8793H20.5503V41.2023H22.7399C23.1677 41.2023 23.5159 41.6095 23.5159 42.0408ZM16.5572 41.2023H18.7208V42.8793H16.5572C16.1293 42.8793 15.7814 42.4721 15.7814 42.0408C15.7814 41.6095 16.129 41.2023 16.5572 41.2023Z" fill="#38497D"/>
<path d="M65.1463 44.7088C66.5829 44.7088 67.7517 43.4809 67.7517 42.0408C67.7517 40.6007 66.5829 39.3727 65.1463 39.3727H58.9635C57.5268 39.3727 56.3581 40.6007 56.3581 42.0408C56.3581 43.4809 57.5268 44.7088 58.9635 44.7088H65.1463ZM65.9221 42.0408C65.9221 42.4721 65.5741 42.8793 65.1463 42.8793H62.934V41.2023H65.1463C65.5741 41.2023 65.9221 41.6095 65.9221 42.0408ZM58.1876 42.0408C58.1876 41.6095 58.5357 41.2023 58.9635 41.2023H61.1044V42.8793H58.9635C58.5357 42.8793 58.1876 42.4721 58.1876 42.0408Z" fill="#38497D"/>
<path d="M47.993 49.7403C47.993 48.689 47.5754 47.6808 46.832 46.9374C46.0886 46.194 45.0804 45.7764 44.0291 45.7764H37.9307C36.8794 45.7764 35.8712 46.194 35.1278 46.9374C34.3844 47.6808 33.9668 48.689 33.9668 49.7403V50.6551C33.9668 51.1756 34.0693 51.6911 34.2685 52.172C34.4677 52.6529 34.7597 53.0899 35.1278 53.458C35.4959 53.8261 35.9329 54.1181 36.4138 54.3173C36.8947 54.5165 37.4102 54.619 37.9307 54.619H44.0291C44.5496 54.619 45.0651 54.5165 45.546 54.3173C46.0269 54.1181 46.4639 53.8261 46.832 53.458C47.2001 53.0899 47.4921 52.6529 47.6913 52.172C47.8905 51.6911 47.993 51.1756 47.993 50.6551V49.7403ZM46.1635 50.6551C46.1635 51.2212 45.9386 51.7641 45.5384 52.1644C45.1381 52.5646 44.5952 52.7895 44.0291 52.7895H37.9307C37.3646 52.7895 36.8217 52.5646 36.4215 52.1644C36.0212 51.7641 35.7963 51.2212 35.7963 50.6551V49.7403C35.7963 49.1742 36.0212 48.6313 36.4215 48.2311C36.8217 47.8308 37.3646 47.6059 37.9307 47.6059H44.0291C44.5952 47.6059 45.1381 47.8308 45.5384 48.2311C45.9386 48.6313 46.1635 49.1742 46.1635 49.7403V50.6551Z" fill="#38497D"/>
<path d="M56.0428 23.2849C53.0159 20.5546 49.3039 18.6984 45.3037 17.9147C41.3035 17.131 37.1655 17.4493 33.3321 18.8354C29.4988 20.2216 26.1143 22.6236 23.5405 25.7846C20.9667 28.9455 19.3005 32.7466 18.7199 36.7813H11.7077V38.6108H30.0932C30.3351 38.6108 30.5672 38.515 30.7386 38.3443C30.9101 38.1736 31.0069 37.9419 31.0079 37.7C31.0319 32.1325 35.412 27.771 40.9798 27.771C46.5476 27.771 50.9278 32.1322 50.9517 37.6997C50.9528 37.9416 51.0496 38.1733 51.221 38.344C51.3925 38.5147 51.6245 38.6105 51.8665 38.6105H70.2519V36.7813H63.2397C62.4952 31.5785 59.9481 26.8021 56.0428 23.2849ZM49.3059 29.3392C47.7091 27.7494 45.6905 26.6501 43.4888 26.1711C41.287 25.6921 38.9941 25.8535 36.8812 26.6362C34.7683 27.4189 32.9236 28.7902 31.5653 30.588C30.2069 32.3858 29.3917 34.5349 29.2159 36.7813H20.5683C21.3325 31.9168 23.8088 27.4852 27.5512 24.2849C31.2935 21.0846 36.0557 19.326 40.9798 19.326C45.9039 19.326 50.6662 21.0846 54.4085 24.2849C58.1508 27.4852 60.6271 31.9168 61.3913 36.7813H52.7437C52.5338 33.9668 51.3125 31.3234 49.3055 29.3392H49.3059Z" fill="#38497D"/>
<path d="M38.2404 21.7578C37.9286 21.8035 37.6133 21.8596 37.3031 21.9224C37.1853 21.9462 37.0734 21.993 36.9737 22.0601C36.8741 22.1272 36.7886 22.2132 36.7222 22.3133C36.6558 22.4134 36.6097 22.5256 36.5867 22.6435C36.5636 22.7614 36.564 22.8827 36.5879 23.0004C36.6117 23.1182 36.6585 23.2301 36.7256 23.3298C36.7926 23.4294 36.8787 23.5149 36.9788 23.5813C37.0789 23.6477 37.1911 23.6938 37.309 23.7168C37.4269 23.7399 37.5482 23.7395 37.6659 23.7156C37.9454 23.6591 38.23 23.6089 38.5102 23.5673C38.629 23.5496 38.7432 23.5086 38.8462 23.4468C38.9492 23.3849 39.039 23.3034 39.1105 23.2069C39.182 23.1103 39.2337 23.0007 39.2628 22.8841C39.2919 22.7676 39.2978 22.6464 39.2801 22.5276C39.2624 22.4088 39.2214 22.2946 39.1596 22.1916C39.0977 22.0886 39.0162 21.9988 38.9197 21.9273C38.8231 21.8559 38.7134 21.8041 38.5969 21.775C38.4803 21.7459 38.3592 21.74 38.2404 21.7578Z" fill="#FBFBFB"/>
<path d="M33.7694 23.0194C29.4595 24.847 26.0086 28.2493 24.1201 32.5329C24.0218 32.7547 24.0157 33.0066 24.103 33.233C24.1904 33.4594 24.3641 33.6418 24.586 33.7401C24.8078 33.8384 25.0597 33.8446 25.2861 33.7572C25.5125 33.6699 25.6949 33.4961 25.7932 33.2743C27.4943 29.4151 30.6031 26.35 34.4858 24.7035C34.7091 24.6085 34.8854 24.4287 34.9761 24.2036C35.0667 23.9786 35.0643 23.7267 34.9693 23.5035C34.8743 23.2803 34.6944 23.1039 34.4694 23.0132C34.2444 22.9226 33.9925 22.925 33.7693 23.02L33.7694 23.0194Z" fill="#38497D"/>
<path d="M40.9803 4.00013C33.864 4.00015 26.9076 6.11036 20.9907 10.0639C15.0738 14.0175 10.4621 19.6368 7.73885 26.2114C5.01559 32.7859 4.30306 40.0203 5.69136 46.9998C7.07967 53.9793 10.5064 60.3904 15.5384 65.4223C18.8776 68.7719 22.8444 71.4303 27.212 73.2453C31.5796 75.0604 36.2621 75.9965 40.9918 76.0002C45.7215 76.0038 50.4055 75.075 54.7759 73.2667C59.1462 71.4584 63.1172 68.8062 66.4616 65.4618C69.806 62.1174 72.4582 58.1464 74.2665 53.7761C76.0748 49.4057 77.0036 44.7217 77 39.992C76.9963 35.2623 76.0602 30.5797 74.2451 26.2122C72.4301 21.8446 69.7717 17.8778 66.4222 14.5386C63.0889 11.187 59.1239 8.52982 54.7568 6.72089C50.3897 4.91197 45.7072 3.98721 40.9803 4.00013ZM61.4238 12.6185L60.2781 16.5387C54.6635 11.9053 47.5692 9.44666 40.2915 9.61204C33.0138 9.77742 26.0386 12.5557 20.6403 17.4394L19.4794 13.445C25.3839 8.66339 32.7136 5.98618 40.3099 5.83655C47.9062 5.68693 55.3356 8.07343 61.4238 12.6188V12.6185ZM40.9803 11.4337C56.721 11.4337 69.527 24.2403 69.527 39.9804C69.527 55.7206 56.721 68.5272 40.9803 68.5272C25.2395 68.5272 12.4335 55.7212 12.4335 39.9804C12.4335 24.2397 25.2395 11.4337 40.9803 11.4337ZM65.1285 64.1287C58.724 70.5332 50.0376 74.1313 40.9803 74.1313C31.9229 74.1313 23.2365 70.5332 16.832 64.1287C10.4275 57.7242 6.82944 49.0378 6.82944 39.9804C6.82944 30.9231 10.4275 22.2367 16.832 15.8322C17.1996 15.4645 17.5743 15.1068 17.9561 14.759L19.153 18.8778C13.6658 24.5315 10.599 32.1018 10.604 39.9804C10.604 56.7299 24.2308 70.3567 40.9803 70.3567C57.7297 70.3567 71.3565 56.7299 71.3565 39.9804C71.3584 35.838 70.5107 31.7392 68.8658 27.9373C67.2209 24.1354 64.8138 20.7113 61.7932 17.8765L62.9697 13.8516C63.7117 14.4785 64.4313 15.1391 65.1285 15.8335C68.2997 19.0047 70.8153 22.7695 72.5315 26.9129C74.2477 31.0562 75.1311 35.4971 75.1311 39.9818C75.1311 44.4666 74.2477 48.9074 72.5315 53.0508C70.8153 57.1941 68.2997 60.9589 65.1285 64.1301V64.1287Z" fill="#38497D"/>
<path d="M40.9806 43.3766C42.159 43.3766 43.3111 43.0272 44.2909 42.3724C45.2708 41.7177 46.0345 40.7871 46.4855 39.6983C46.9364 38.6095 47.0544 37.4114 46.8244 36.2556C46.5945 35.0997 46.0269 34.0381 45.1936 33.2048C44.3602 32.3715 43.2985 31.8041 42.1426 31.5742C40.9868 31.3444 39.7887 31.4625 38.7 31.9136C37.6112 32.3646 36.6807 33.1284 36.026 34.1084C35.3714 35.0883 35.022 36.2403 35.0222 37.4188C35.0241 38.9984 35.6525 40.5128 36.7695 41.6297C37.8865 42.7466 39.4009 43.3748 40.9806 43.3766ZM40.9806 33.2893C41.7971 33.2893 42.5954 33.5315 43.2744 33.9851C43.9534 34.4388 44.4826 35.0836 44.7951 35.838C45.1076 36.5924 45.1894 37.4226 45.0302 38.2235C44.8709 39.0244 44.4777 39.7601 43.9003 40.3376C43.323 40.915 42.5873 41.3083 41.7864 41.4677C40.9856 41.6271 40.1554 41.5454 39.4009 41.233C38.6465 40.9206 38.0016 40.3915 37.5478 39.7126C37.094 39.0336 36.8518 38.2354 36.8517 37.4188C36.8528 36.3241 37.2881 35.2744 38.0622 34.5002C38.8362 33.7261 39.8858 33.2906 40.9806 33.2893Z" fill="#F0A500"/>
</svg>
