<svg width="82" height="80" viewBox="0 0 82 80" fill="none" xmlns="http://www.w3.org/2000/svg">
<path d="M15.0001 20.671V28H19.5493V20.671C19.5453 19.7983 19.7091 18.9334 20.0312 18.1257C20.3534 17.318 20.8275 16.5834 21.4266 15.9638C22.0258 15.3443 22.738 14.8519 23.5228 14.515C24.3075 14.178 25.1493 14.003 26 14H21.4508C20.6001 14.003 19.7583 14.178 18.9736 14.515C18.1889 14.8519 17.4766 15.3443 16.8775 15.9638C16.2784 16.5834 15.8042 17.318 15.482 18.1257C15.1599 18.9334 14.9961 19.7983 15.0001 20.671Z" fill="#FED67E"/>
<path d="M19.5492 69.0461V64H15.0001V69.0461C14.9965 69.8263 15.1606 70.5995 15.4831 71.3214C15.8056 72.0432 16.2801 72.6995 16.8794 73.2527C17.4787 73.8058 18.191 74.2449 18.9754 74.5447C19.7599 74.8446 20.6011 74.9993 21.4508 75H26C25.1503 74.9993 24.3091 74.8446 23.5246 74.5447C22.7402 74.2449 22.0279 73.8058 21.4286 73.2527C20.8293 72.6995 20.3548 72.0432 20.0323 71.3214C19.7098 70.5995 19.5457 69.8263 19.5492 69.0461Z" fill="#FED67E"/>
<path d="M15 32H19V59H15V32Z" fill="#FED67E"/>
<path d="M23.3315 8.60229C23.3315 8.56852 23.3477 8.60229 23.3816 8.60229H25.9977V14.0827H27.7751V8.60229H30.4413V14.2308H32.2187V8.60229H35.0992C35.1331 8.60229 35.1811 8.56881 35.1811 8.60229V14.2308H36.9586V8.60229C36.9586 7.58841 36.1131 6.82485 35.0992 6.82485H23.3816C23.1441 6.81852 22.9077 6.8598 22.6864 6.94626C22.4652 7.03271 22.2634 7.16259 22.0931 7.32824C21.9228 7.49389 21.7873 7.69196 21.6948 7.91077C21.6022 8.12958 21.5544 8.3647 21.5541 8.60229V14.2308H23.3315V8.60229Z" fill="#38497D"/>
<path d="M14.8887 62.5189H66.1382V64.2963H14.8887V62.5189Z" fill="#38497D"/>
<path d="M14.8887 58.0742H66.1382V59.8516H14.8887V58.0742Z" fill="#38497D"/>
<path d="M14.8887 31.118H66.1382V32.8955H14.8887V31.118Z" fill="#38497D"/>
<path d="M14.8887 26.6733H66.1382V28.4508H14.8887V26.6733Z" fill="#38497D"/>
<rect x="16" y="32" width="50" height="27" fill="#F0A500"/>
<path d="M21.1865 76H59.8134C60.7594 75.9983 61.6958 75.8098 62.5691 75.4452C63.4423 75.0806 64.2353 74.5471 64.9028 73.8752C65.5702 73.2032 66.0989 72.4061 66.4588 71.5292C66.8186 70.6524 67.0025 69.7131 67 68.765V8.01504C67.0029 7.3584 66.8766 6.70763 66.6283 6.09998C66.3799 5.49234 66.0144 4.93977 65.5527 4.47391C65.0909 4.00806 64.542 3.63808 63.9374 3.38516C63.3327 3.13225 62.6842 3.00136 62.0291 3H44.842C44.1887 3.0021 43.5423 3.13376 42.9401 3.38739C42.3378 3.64103 41.7916 4.01162 41.333 4.47781C40.8743 4.94401 40.5122 5.49657 40.2676 6.10366C40.023 6.71075 39.9007 7.36036 39.9078 8.01504V13.2378H21.1865C17.2059 13.2378 14 16.5221 14 20.5114V68.765C13.9975 69.7131 14.1814 70.6524 14.5412 71.5292C14.901 72.4061 15.4298 73.2032 16.0972 73.8752C16.7646 74.5471 17.5576 75.0806 18.4309 75.4452C19.3042 75.8098 20.2405 75.9983 21.1865 76ZM15.7766 20.5114C15.7766 17.5039 18.1855 15.0183 21.1865 15.0183H40.7271C41.2177 15.0183 41.6843 14.6585 41.6843 14.1668V8.01504C41.6843 6.23114 43.0629 4.78049 44.842 4.78049H62.0291C62.451 4.78159 62.8686 4.86625 63.2578 5.0296C63.647 5.19295 64.0002 5.43177 64.297 5.73234C64.5939 6.03291 64.8285 6.38931 64.9875 6.78105C65.1465 7.17279 65.2267 7.59215 65.2234 8.01504V68.765C65.2262 69.4793 65.0885 70.1872 64.818 70.8482C64.5475 71.5091 64.1496 72.1101 63.6471 72.6167C63.1446 73.1234 62.5474 73.5257 61.8895 73.8007C61.2317 74.0758 60.5262 74.2181 59.8134 74.2195H21.1865C20.4738 74.2181 19.7683 74.0758 19.1104 73.8007C18.4526 73.5257 17.8553 73.1234 17.3528 72.6167C16.8503 72.1101 16.4525 71.5091 16.182 70.8482C15.9115 70.1872 15.7737 69.4793 15.7766 68.765V20.5114Z" fill="#38497D"/>
<path d="M46.8506 16H59.1414C59.2544 16.0006 59.3663 15.9774 59.4708 15.9315C59.5753 15.8857 59.6702 15.8183 59.7501 15.7331C59.8299 15.6479 59.8931 15.5466 59.936 15.4352C59.9789 15.3238 60.0007 15.2044 60 15.084V10.9429C60.0025 10.1709 59.7193 9.42905 59.212 8.87813C58.7047 8.32722 58.0141 8.0117 57.2899 8H48.7024C47.2036 8 46.0001 9.34569 46.0001 10.9429V15.084C45.9985 15.204 46.0193 15.3231 46.0614 15.4344C46.1035 15.5456 46.1659 15.6469 46.2451 15.7321C46.3243 15.8174 46.4186 15.885 46.5226 15.931C46.6265 15.977 46.7381 16.0005 46.8506 16ZM47.732 10.9429C47.7273 10.6613 47.8261 10.3888 48.0074 10.1839C48.1887 9.97889 48.438 9.85768 48.7021 9.84615H57.2896C57.5546 9.85727 57.805 9.97806 57.9877 10.1829C58.1704 10.3877 58.2709 10.6603 58.268 10.9429V14.1538H47.732V10.9429Z" fill="#38497D"/>
<path d="M18 54C18.2652 54 18.5196 53.9111 18.7071 53.7528C18.8946 53.5946 19 53.3799 19 53.1561V38.8439C19 38.6201 18.8946 38.4054 18.7071 38.2472C18.5196 38.0889 18.2652 38 18 38C17.7348 38 17.4804 38.0889 17.2929 38.2472C17.1054 38.4054 17 38.6201 17 38.8439V53.1561C17 53.3799 17.1054 53.5946 17.2929 53.7528C17.4804 53.9111 17.7348 54 18 54Z" fill="#38497D"/>
<path d="M18 37C18.2652 37 18.5196 36.9251 18.7071 36.7918C18.8946 36.6586 19 36.4778 19 36.2893V35.7107C19 35.5222 18.8946 35.3414 18.7071 35.2082C18.5196 35.0749 18.2652 35 18 35C17.7348 35 17.4804 35.0749 17.2929 35.2082C17.1054 35.3414 17 35.5222 17 35.7107V36.2893C17 36.4778 17.1054 36.6586 17.2929 36.7918C17.4804 36.9251 17.7348 37 18 37Z" fill="#38497D"/>
<path d="M48.9917 52.7953C49.1753 52.9741 49.4152 53.0836 49.6705 53.1053C49.9259 53.127 50.1808 53.0595 50.392 52.9143C50.6032 52.7691 50.7574 52.5552 50.8286 52.309C50.8997 52.0628 50.8833 51.7996 50.7821 51.5642C50.6809 51.3287 50.5012 51.1356 50.2736 51.0178C50.0461 50.9 49.7847 50.8647 49.534 50.918C49.2834 50.9713 49.0589 51.1098 48.899 51.31C48.739 51.5102 48.6534 51.7597 48.6567 52.0159C48.6584 52.1615 48.6889 52.3053 48.7464 52.439C48.8039 52.5728 48.8872 52.6939 48.9917 52.7953ZM49.7597 51.5548C49.8631 51.5535 49.9639 51.5881 50.0447 51.6527C50.1255 51.7173 50.1814 51.8079 50.2029 51.9092C50.2244 52.0104 50.2101 52.1159 50.1625 52.2078C50.1148 52.2996 50.0369 52.3722 49.9418 52.413C49.8467 52.4538 49.7404 52.4603 49.641 52.4316C49.5416 52.4028 49.4553 52.3404 49.3967 52.2551C49.3381 52.1698 49.311 52.0669 49.3198 51.9638C49.3287 51.8607 49.373 51.7638 49.4452 51.6898C49.528 51.605 49.6411 51.5565 49.7596 51.5549L49.7597 51.5548Z" fill="#FBFBFB"/>
<path d="M50.3713 37.7978C50.2143 37.6447 50.0154 37.5417 49.7999 37.5017C49.5843 37.4617 49.3617 37.4864 49.1602 37.5729C48.9588 37.6593 48.7874 37.8035 48.6679 37.9873C48.5484 38.1711 48.486 38.3862 48.4887 38.6054C48.491 38.7877 48.5382 38.9667 48.6261 39.1264C48.7141 39.2861 48.8401 39.4217 48.9929 39.5211C49.1458 39.6205 49.3208 39.6806 49.5025 39.6962C49.6841 39.7118 49.8668 39.6824 50.0344 39.6105C50.202 39.5386 50.3492 39.4265 50.4631 39.2841C50.577 39.1417 50.654 38.9734 50.6873 38.7942C50.7206 38.6149 50.7092 38.4302 50.6541 38.2564C50.599 38.0826 50.5018 37.9251 50.3713 37.7978ZM49.6028 39.0387C49.4843 39.0402 49.37 38.9945 49.2851 38.9117C49.2002 38.8289 49.1517 38.7158 49.1501 38.5973C49.149 38.5088 49.1742 38.4221 49.2224 38.3479C49.2706 38.2738 49.3397 38.2156 49.4209 38.1808C49.5022 38.1459 49.592 38.1359 49.6789 38.1521C49.7659 38.1682 49.8461 38.2098 49.9094 38.2715C49.9727 38.3333 50.0163 38.4124 50.0346 38.4989C50.053 38.5854 50.0452 38.6754 50.0124 38.7575C49.9796 38.8396 49.9232 38.9102 49.8503 38.9602C49.7774 39.0103 49.6913 39.0376 49.6029 39.0387L49.6028 39.0387Z" fill="#FBFBFB"/>
<path d="M43.7513 44.587C43.6473 44.485 43.5241 44.4047 43.3889 44.3506C43.2536 44.2966 43.109 44.2699 42.9633 44.2721C42.7069 44.2754 42.4594 44.3675 42.2632 44.5327C42.067 44.6979 41.9342 44.926 41.8874 45.1782C41.8405 45.4304 41.8825 45.691 42.0063 45.9157C42.1301 46.1404 42.3279 46.3152 42.5661 46.4103C42.8043 46.5055 43.0681 46.5151 43.3126 46.4375C43.5571 46.36 43.7671 46.2001 43.9069 45.985C44.0467 45.77 44.1076 45.5131 44.0793 45.2582C44.0509 45.0032 43.9351 44.766 43.7514 44.587L43.7513 44.587ZM42.983 45.8279C42.8652 45.828 42.7521 45.7818 42.6683 45.6991C42.5844 45.6165 42.5366 45.5041 42.5351 45.3863C42.5336 45.2686 42.5786 45.155 42.6603 45.0703C42.7421 44.9855 42.854 44.9364 42.9717 44.9336C43.0903 44.9321 43.2046 44.9778 43.2895 45.0606C43.3744 45.1434 43.4229 45.2565 43.4244 45.3751C43.4259 45.4937 43.3802 45.608 43.2974 45.6929C43.2146 45.7778 43.1015 45.8263 42.9829 45.8278L42.983 45.8279Z" fill="#FBFBFB"/>
<path d="M55.6117 46.0063C55.7953 46.185 56.0352 46.2946 56.2905 46.3163C56.5459 46.338 56.8009 46.2705 57.012 46.1253C57.2232 45.9801 57.3774 45.7662 57.4486 45.52C57.5197 45.2738 57.5033 45.0105 57.4021 44.7751C57.3009 44.5397 57.1212 44.3466 56.8936 44.2288C56.6661 44.111 56.4047 44.0757 56.154 44.129C55.9034 44.1822 55.6789 44.3208 55.519 44.521C55.359 44.7212 55.2734 44.9706 55.2767 45.2269C55.2784 45.3724 55.3089 45.5162 55.3664 45.65C55.4239 45.7838 55.5072 45.9048 55.6117 46.0063ZM56.3797 44.7658C56.4831 44.7645 56.5838 44.7991 56.6647 44.8637C56.7455 44.9283 56.8014 45.0189 56.8229 45.1202C56.8443 45.2214 56.83 45.3269 56.7824 45.4188C56.7348 45.5106 56.6568 45.5831 56.5617 45.624C56.4667 45.6648 56.3604 45.6713 56.261 45.6426C56.1616 45.6138 56.0753 45.5514 56.0167 45.4661C55.9581 45.3808 55.9309 45.2779 55.9398 45.1748C55.9486 45.0717 55.9929 44.9748 56.0652 44.9007C56.1061 44.8587 56.155 44.8251 56.209 44.8019C56.2629 44.7787 56.3209 44.7665 56.3797 44.7658Z" fill="#FBFBFB"/>
<path d="M44.2254 50.892C44.3824 51.0451 44.5813 51.1482 44.7969 51.1883C45.0125 51.2284 45.2351 51.2036 45.4367 51.1172C45.6382 51.0307 45.8096 50.8865 45.9291 50.7026C46.0486 50.5187 46.1109 50.3036 46.1082 50.0843C46.1054 49.865 46.0377 49.6515 45.9136 49.4707C45.7895 49.2899 45.6145 49.15 45.4109 49.0686C45.2072 48.9873 44.9841 48.9681 44.7695 49.0136C44.555 49.0591 44.3588 49.1672 44.2057 49.3242C44.0007 49.5349 43.8877 49.8183 43.8914 50.1122C43.8951 50.4061 44.0152 50.6866 44.2254 50.892ZM45.3116 49.7781C45.375 49.8398 45.4186 49.919 45.4369 50.0055C45.4553 50.092 45.4476 50.182 45.4147 50.2642C45.3819 50.3463 45.3255 50.4169 45.2526 50.4669C45.1797 50.517 45.0936 50.5443 45.0051 50.5454C44.9167 50.5465 44.8299 50.5214 44.7557 50.4732C44.6816 50.425 44.6234 50.3559 44.5885 50.2746C44.5537 50.1933 44.5437 50.1035 44.5598 50.0165C44.576 49.9296 44.6176 49.8494 44.6794 49.7861C44.7622 49.7013 44.8753 49.6528 44.9938 49.6513C45.1124 49.6498 45.2267 49.6954 45.3116 49.7781Z" fill="#FBFBFB"/>
<path d="M53.5881 41.2903C53.7451 41.4434 53.944 41.5465 54.1596 41.5865C54.3752 41.6266 54.5978 41.6019 54.7994 41.5154C55.0009 41.4289 55.1723 41.2847 55.2918 41.1008C55.4113 40.9169 55.4736 40.7018 55.4709 40.4825C55.4681 40.2632 55.4004 40.0497 55.2763 39.8689C55.1521 39.6881 54.9772 39.5482 54.7735 39.4668C54.5699 39.3855 54.3467 39.3664 54.1322 39.4119C53.9177 39.4574 53.7215 39.5654 53.5684 39.7225C53.3634 39.9331 53.2504 40.2165 53.2541 40.5104C53.2578 40.8044 53.3779 41.0848 53.5881 41.2903ZM54.6743 40.1763C54.7377 40.2381 54.7813 40.3172 54.7996 40.4037C54.818 40.4902 54.8103 40.5802 54.7775 40.6624C54.7447 40.7445 54.6882 40.8151 54.6153 40.8651C54.5424 40.9152 54.4563 40.9425 54.3678 40.9436C54.2794 40.9448 54.1926 40.9196 54.1185 40.8714C54.0443 40.8232 53.9861 40.7541 53.9512 40.6728C53.9164 40.5916 53.9064 40.5018 53.9225 40.4148C53.9387 40.3279 53.9803 40.2477 54.042 40.1843C54.1249 40.0995 54.238 40.051 54.3566 40.0494C54.4751 40.0479 54.5895 40.0935 54.6744 40.1762L54.6743 40.1763Z" fill="#FBFBFB"/>
<path d="M45.6551 39.8212C45.4981 39.6681 45.2993 39.5649 45.0837 39.5249C44.8681 39.4848 44.6454 39.5096 44.4439 39.596C44.2424 39.6825 44.071 39.8267 43.9515 40.0106C43.8319 40.1945 43.7696 40.4096 43.7724 40.6289C43.7751 40.8482 43.8428 41.0617 43.967 41.2425C44.0911 41.4233 44.266 41.5632 44.4697 41.6446C44.6733 41.7259 44.8965 41.7451 45.111 41.6996C45.3255 41.6541 45.5218 41.546 45.6748 41.389C45.8798 41.1783 45.9929 40.8949 45.9892 40.601C45.9855 40.3071 45.8653 40.0266 45.6551 39.8212ZM44.5689 40.9351C44.5055 40.8734 44.4619 40.7943 44.4436 40.7078C44.4252 40.6212 44.433 40.5312 44.4658 40.4491C44.4986 40.3669 44.555 40.2964 44.6279 40.2463C44.7008 40.1963 44.7869 40.1689 44.8754 40.1678C44.9638 40.1667 45.0506 40.1918 45.1247 40.24C45.1989 40.2882 45.2571 40.3573 45.292 40.4386C45.3268 40.5199 45.3368 40.6097 45.3207 40.6966C45.3045 40.7836 45.2629 40.8638 45.2012 40.9271C45.1183 41.0119 45.0052 41.0604 44.8867 41.0619C44.7682 41.0634 44.6539 41.0178 44.5689 40.9351Z" fill="#FBFBFB"/>
<path d="M53.7076 50.7704C53.8646 50.9235 54.0635 51.0266 54.2791 51.0667C54.4947 51.1068 54.7173 51.082 54.9189 50.9955C55.1204 50.9091 55.2918 50.7648 55.4113 50.5809C55.5308 50.3971 55.5932 50.1819 55.5904 49.9627C55.5876 49.7434 55.5199 49.5298 55.3958 49.3491C55.2717 49.1683 55.0967 49.0284 54.8931 48.947C54.6895 48.8656 54.4663 48.8465 54.2517 48.892C54.0372 48.9375 53.841 49.0455 53.6879 49.2025C53.4829 49.4132 53.3699 49.6966 53.3736 49.9905C53.3773 50.2845 53.4974 50.5649 53.7076 50.7704ZM54.7939 49.6564C54.8572 49.7181 54.9008 49.7973 54.9192 49.8838C54.9375 49.9703 54.9298 50.0603 54.897 50.1425C54.8642 50.2246 54.8078 50.2952 54.7349 50.3452C54.662 50.3953 54.5758 50.4226 54.4874 50.4237C54.399 50.4249 54.3122 50.3997 54.238 50.3515C54.1639 50.3033 54.1057 50.2342 54.0708 50.1529C54.0359 50.0717 54.0259 49.9819 54.0421 49.8949C54.0583 49.808 54.0998 49.7277 54.1616 49.6644C54.2444 49.5796 54.3575 49.5312 54.4761 49.5297C54.5946 49.5282 54.7089 49.5738 54.7939 49.6564Z" fill="#FBFBFB"/>
<path d="M31.4199 44.4036C31.1548 44.1452 30.8083 43.9866 30.4394 43.955C30.0705 43.9234 29.702 44.0207 29.3968 44.2303C29.0915 44.4399 28.8684 44.7489 28.7655 45.1045C28.6625 45.4602 28.686 45.8405 28.8321 46.1808C28.9781 46.521 29.2376 46.8001 29.5663 46.9705C29.8951 47.1409 30.2727 47.192 30.6349 47.1151C30.9971 47.0383 31.3215 46.8382 31.5527 46.5491C31.7839 46.2599 31.9077 45.8995 31.903 45.5292C31.9009 45.319 31.8571 45.1113 31.7742 44.9181C31.6913 44.7248 31.5709 44.55 31.4199 44.4036ZM30.3143 46.4884C30.0971 46.4911 29.8858 46.4184 29.7162 46.2828C29.5466 46.1471 29.4293 45.9568 29.3843 45.7444C29.3392 45.5319 29.3693 45.3104 29.4692 45.1176C29.5692 44.9248 29.7329 44.7727 29.9325 44.6871C30.1321 44.6014 30.3552 44.5877 30.5638 44.6481C30.7724 44.7085 30.9536 44.8394 31.0765 45.0185C31.1994 45.1975 31.2564 45.4136 31.2379 45.63C31.2193 45.8464 31.1263 46.0496 30.9747 46.2051C30.8888 46.2937 30.7862 46.3643 30.6729 46.4129C30.5595 46.4616 30.4376 46.4872 30.3143 46.4884Z" fill="#FBFBFB"/>
<path d="M55.1689 39.6792C54.1603 38.6959 52.9059 38.0016 51.537 37.6691C50.1682 37.3365 48.7351 37.3778 47.3877 37.7888L30.1742 41.0965C29.0051 41.1298 27.896 41.6213 27.0862 42.4651C26.2763 43.3089 25.8307 44.4373 25.8454 45.6067C25.8601 46.7762 26.334 47.8929 27.1649 48.7161C27.9957 49.5392 29.1168 50.0027 30.2863 50.0065L48.1145 53.0081C48.2868 53.0432 48.4612 53.0726 48.6374 53.0962L48.6389 53.0964C49.0175 53.1469 49.3991 53.1698 49.781 53.1651C54.1143 53.1105 57.5953 49.5406 57.5407 45.2072C57.5305 44.1747 57.3157 43.1545 56.9085 42.2056C56.5014 41.2567 55.9102 40.398 55.1689 39.6792ZM27.6514 48.2681C27.0227 47.6551 26.626 46.843 26.5289 45.9702C26.4318 45.0975 26.6403 44.2181 27.1189 43.4819C27.5975 42.7456 28.3166 42.1981 29.1536 41.9326C29.9907 41.6671 30.8938 41.7001 31.7093 42.0259C32.5248 42.3517 33.202 42.9501 33.6257 43.7193C34.0494 44.4884 34.1933 45.3807 34.0328 46.244C33.8724 47.1074 33.4176 47.8884 32.7459 48.454C32.0742 49.0196 31.2271 49.3348 30.349 49.3458C29.8505 49.3535 29.3553 49.2622 28.8923 49.0772C28.4292 48.8922 28.0074 48.6172 27.6514 48.2681ZM32.083 49.6381C32.8861 49.287 33.5679 48.707 34.0434 47.9707C34.5188 47.2343 34.7669 46.3742 34.7565 45.4978C34.7461 44.6213 34.4777 43.7674 33.9849 43.0425C33.4921 42.3177 32.7966 41.7541 31.9854 41.4221L45.1431 38.8938C44.0995 39.6337 43.2522 40.6172 42.6749 41.7589C42.0975 42.9006 41.8075 44.1659 41.8301 45.445C41.8526 46.7241 42.187 47.9785 42.8042 49.0991C43.4214 50.2197 44.3028 51.1727 45.3718 51.8755L32.083 49.6381ZM49.7729 52.5035C49.4256 52.5078 49.0785 52.4871 48.7342 52.4414L48.237 52.3578C44.994 51.6937 42.5282 48.8394 42.4848 45.3969C42.4348 41.4286 45.6229 38.1591 49.5913 38.1089C50.5365 38.097 51.4748 38.2713 52.3526 38.622C53.2303 38.9727 54.0304 39.4928 54.7072 40.1528C55.384 40.8127 55.9241 41.5994 56.2968 42.4681C56.6695 43.3367 56.8675 44.2703 56.8794 45.2155C56.9293 49.1842 53.7413 52.4536 49.7728 52.5036L49.7729 52.5035Z" fill="#FBFBFB"/>
<path d="M49.6042 39.1172C48.3804 39.1326 47.1887 39.5106 46.1797 40.2033C45.1707 40.8961 44.3898 41.8724 43.9357 43.009C43.4817 44.1455 43.3748 45.3912 43.6287 46.5885C43.8826 47.7858 44.4858 48.8809 45.3621 49.7353C46.2383 50.5898 47.3483 51.1652 48.5516 51.3888C49.7549 51.6124 50.9975 51.4742 52.1222 50.9916C53.247 50.5091 54.2034 49.7038 54.8704 48.6777C55.5375 47.6515 55.8853 46.4506 55.8699 45.2268C55.8474 43.5864 55.175 42.0218 54.0004 40.8764C52.8258 39.7311 51.2448 39.0984 49.6042 39.1172ZM49.7519 50.831C48.6596 50.8443 47.5879 50.5335 46.6722 49.9378C45.7566 49.3421 45.0381 48.4883 44.6076 47.4843C44.1771 46.4804 44.0539 45.3713 44.2536 44.2974C44.4534 43.2234 44.967 42.2328 45.7296 41.4507C46.4922 40.6686 47.4696 40.1302 48.5382 39.9034C49.6068 39.6767 50.7186 39.7719 51.7331 40.177C52.7475 40.582 53.6192 41.2787 54.2378 42.1791C54.8564 43.0794 55.1941 44.1429 55.2084 45.2352C55.2252 46.7004 54.6601 48.1123 53.6372 49.1614C52.6143 50.2105 51.217 50.8109 49.7519 50.831Z" fill="#FBFBFB"/>
<path d="M49.6185 40.2708C48.6226 40.2834 47.6529 40.591 46.8318 41.1546C46.0108 41.7183 45.3753 42.5128 45.0059 43.4377C44.6364 44.3625 44.5494 45.3761 44.756 46.3504C44.9626 47.3246 45.4534 48.2158 46.1665 48.911C46.8795 49.6063 47.7827 50.0745 48.7619 50.2565C49.741 50.4385 50.7521 50.326 51.6674 49.9333C52.5826 49.5406 53.3608 48.8853 53.9036 48.0504C54.4464 47.2154 54.7295 46.2382 54.7169 45.2423C54.6985 43.9075 54.1514 42.6344 53.1956 41.7024C52.2398 40.7704 50.9534 40.2555 49.6185 40.2708ZM49.7371 49.6793C48.8727 49.6898 48.0245 49.4438 47.2999 48.9723C46.5752 48.5009 46.0066 47.8252 45.6659 47.0306C45.3253 46.2361 45.2278 45.3584 45.3858 44.5084C45.5439 43.6585 45.9504 42.8745 46.5539 42.2555C47.1575 41.6366 47.931 41.2105 48.7766 41.031C49.6223 40.8516 50.5022 40.9269 51.3051 41.2475C52.108 41.568 52.7978 42.1194 53.2874 42.8319C53.7769 43.5445 54.0443 44.3861 54.0556 45.2506C54.0689 46.4101 53.6217 47.5277 52.8121 48.3579C52.0025 49.1882 50.8966 49.6634 49.7371 49.6793Z" fill="#FBFBFB"/>
</svg>
