<svg width="82" height="80" viewBox="0 0 82 80" fill="none" xmlns="http://www.w3.org/2000/svg">
<rect x="27" y="47" width="20" height="18" fill="#F0A500"/>
<path d="M36.0113 21.7951V25.6939C33.1052 26.0726 30.4394 27.4551 28.5066 29.5857C26.5737 31.7163 25.5047 34.451 25.497 37.2842H25.431C24.7826 37.2937 24.1645 37.5511 23.7121 38C23.2551 38.4488 22.9992 39.0535 23 39.6831C22.9993 40.3086 23.2546 40.9089 23.71 41.3534C24.1655 41.7978 24.7843 42.0503 25.4317 42.0558H25.497V70.8392H25.4317C25.1139 70.8347 24.7984 70.8911 24.5034 71.0051C24.2083 71.1191 23.9396 71.2885 23.7127 71.5034C23.4872 71.7158 23.308 71.9697 23.1857 72.2502C23.0634 72.5306 23.0004 72.8319 23.0006 73.1362C23.0013 73.4432 23.0648 73.747 23.1876 74.0301C23.3103 74.3132 23.4899 74.5701 23.7159 74.7858C23.9419 75.0015 24.2098 75.1719 24.5043 75.2871C24.7988 75.4023 25.114 75.46 25.4317 75.4569H30.2109C29.8925 75.4587 29.577 75.3996 29.2823 75.2832C28.9876 75.1668 28.7197 74.9953 28.4938 74.7786C28.2679 74.5618 28.0885 74.3041 27.966 74.0202C27.8435 73.7363 27.7802 73.4318 27.7799 73.1242C27.7796 72.8205 27.8426 72.5198 27.9649 72.24C28.0872 71.9601 28.2664 71.7069 28.492 71.4953C28.724 71.2728 29.0031 71.1016 29.3102 70.9932H30.2762V41.5941H28.773C28.4654 41.375 28.2152 41.0892 28.0428 40.7597C27.8703 40.4302 27.7802 40.0662 27.7799 39.697C27.779 39.0647 28.0347 38.4572 28.492 38.0049C28.9438 37.5546 29.5618 37.2955 30.2109 37.2842H30.2762V37.3227C30.2754 34.5368 31.3008 31.8415 33.1689 29.7193C35.0369 27.5971 37.6257 26.1866 40.4719 25.7401H40.7905V25.6939C40.8015 25.6925 40.8125 25.6905 40.8234 25.6891C41.3463 25.6221 41.8731 25.5876 42.4006 25.586H40.7905V21.7951C40.7947 20.5155 41.1989 19.267 41.9501 18.2132C42.7012 17.1593 43.7643 16.3493 45 15.8891C44.003 15.5152 42.9269 15.381 41.8643 15.4981C40.8017 15.6151 39.7844 15.9798 38.9001 16.5609C38.0157 17.142 37.2907 17.9219 36.7875 18.8337C36.2843 19.7455 36.0179 20.7618 36.0113 21.7951Z" fill="#FED67E"/>
<path d="M12.0491 22.7661H37V20.9036H35.8147L25.809 10.732C25.6341 10.5568 25.3965 10.4579 25.1484 10.457C24.9002 10.4562 24.6619 10.5534 24.4858 10.7274C24.398 10.8112 24.3279 10.9116 24.2795 11.0227C24.2311 11.1338 24.2054 11.2534 24.2039 11.3744C24.2025 11.4955 24.2253 11.6157 24.271 11.7279C24.3167 11.8401 24.3844 11.9421 24.4702 12.028L33.1976 20.9036H12.0491C7.05941 20.9036 3 24.9868 3 29.9523V39.4549C3 41.8424 3.95304 44.1321 5.64947 45.8204C7.3459 47.5086 9.64676 48.457 12.0459 48.457C14.445 48.457 16.7458 47.5086 18.4423 45.8204C20.1387 44.1321 21.0917 41.8424 21.0917 39.4549V31.5876C21.0936 31.2819 21.1563 30.9795 21.2761 30.698C21.3959 30.4165 21.5705 30.1614 21.7899 29.9473C22.0092 29.7333 22.269 29.5645 22.5541 29.4508C22.8393 29.3371 23.1443 29.2807 23.4515 29.2849H30.7615V27.4224H23.4515C22.8986 27.4185 22.3504 27.5233 21.8382 27.7307C21.3261 27.9381 20.8601 28.244 20.4671 28.6309C20.074 29.0179 19.7615 29.4782 19.5475 29.9856C19.3336 30.493 19.2223 31.0374 19.2202 31.5876V39.455C19.2202 40.3926 19.0346 41.321 18.6741 42.1872C18.3135 43.0535 17.7851 43.8405 17.1189 44.5035C16.4527 45.1665 15.6618 45.6924 14.7914 46.0512C13.9209 46.41 12.988 46.5947 12.0459 46.5947C11.1037 46.5947 10.1708 46.41 9.30038 46.0512C8.42995 45.6924 7.63906 45.1665 6.97287 44.5035C6.30667 43.8405 5.77821 43.0535 5.41767 42.1872C5.05713 41.321 4.87156 40.3926 4.87156 39.455V29.9523C4.87156 26.0137 8.09158 22.7661 12.0491 22.7661Z" fill="#38497D"/>
<path d="M78.5676 4.0004H69.2228C68.513 3.99293 67.8287 4.26459 67.3173 4.75685L50.8003 20.7776C50.6563 18.8831 49.7845 17.118 48.3676 15.8523C46.9507 14.5866 45.0988 13.9186 43.2002 13.9884C41.3015 14.0583 39.5037 14.8605 38.1836 16.2269C36.8635 17.5933 36.1238 19.4177 36.1194 21.3176V24.4662C33.3557 25.02 30.852 26.4703 28.9968 28.5923C27.1415 30.7142 26.0384 33.3891 25.8586 36.202C25.1586 36.3914 24.5405 36.8059 24.0998 37.3817C23.659 37.9574 23.4201 38.6623 23.4199 39.3874C23.4198 40.1125 23.6584 40.8175 24.0989 41.3934C24.5394 41.9693 25.1573 42.3842 25.8572 42.5739V70.002C25.0865 70.2091 24.4175 70.6898 23.9754 71.3541C23.5333 72.0185 23.3482 72.8211 23.4547 73.612C23.5612 74.403 23.9521 75.128 24.5542 75.6517C25.1564 76.1755 25.9286 76.462 26.7267 76.4578H60.2444C61.1204 76.4609 61.9618 76.1163 62.584 75.4997C63.2062 74.883 63.5583 74.0448 63.563 73.1688C63.5651 72.4495 63.3302 71.7496 62.8945 71.1772C62.4589 70.6049 61.8468 70.192 61.153 70.0024V42.5739C61.8507 42.3782 62.4647 41.9585 62.9003 41.3794C63.3358 40.8003 63.5689 40.094 63.5634 39.3694C63.5579 38.6448 63.3141 37.9421 62.8698 37.3697C62.4255 36.7972 61.8052 36.3869 61.1046 36.2018C60.9596 33.9252 60.2091 31.7286 58.9307 29.8391C57.6523 27.9497 55.8924 26.436 53.8331 25.4546L70.3327 9.44248H78.5676C78.8153 9.44203 79.0526 9.34332 79.2275 9.16802C79.4024 8.99272 79.5006 8.75517 79.5006 8.50753V4.90099C79.4999 4.78017 79.4751 4.6607 79.4275 4.54962C79.38 4.43854 79.3107 4.33808 79.2238 4.25417C79.1369 4.17026 79.034 4.10458 78.9214 4.06099C78.8087 4.01741 78.6884 3.99681 78.5676 4.0004ZM37.9852 21.3176C37.9852 18.3011 40.4886 15.8463 43.5051 15.8463C46.5215 15.8463 49.0249 18.3006 49.0249 21.3176V24.2381C48.7139 24.2286 48.5505 24.2139 48.3462 24.2139H38.6248C38.4201 24.2139 38.1407 24.2294 37.9852 24.2387V21.3176ZM27.723 69.9273V66.8176H47.6215C47.7437 66.8188 47.8649 66.7958 47.9782 66.75C48.0915 66.7042 48.1946 66.6364 48.2817 66.5507C48.3688 66.4649 48.438 66.3628 48.4855 66.2502C48.533 66.1375 48.5578 66.0167 48.5584 65.8945V46.6819C48.5584 46.1666 48.1366 45.8267 47.6215 45.8267H27.723V42.7169H59.2871V69.9273H27.723ZM27.723 47.6926H46.6926V64.9517H27.723V47.6926ZM61.6838 73.1926C61.6828 73.3795 61.6446 73.5643 61.5714 73.7362C61.4982 73.9082 61.3915 74.0638 61.2575 74.1941C61.1235 74.3243 60.965 74.4266 60.791 74.4949C60.6171 74.5633 60.4313 74.5962 60.2444 74.592H26.7267C26.3555 74.592 25.9996 74.4446 25.7371 74.1821C25.4747 73.9197 25.3273 73.5637 25.3273 73.1926C25.3273 72.8215 25.4747 72.4655 25.7371 72.2031C25.9996 71.9406 26.3555 71.7932 26.7267 71.7932H60.2444C60.4313 71.7889 60.6171 71.8219 60.791 71.8903C60.965 71.9586 61.1235 72.0609 61.2575 72.1911C61.3915 72.3214 61.4982 72.477 61.5714 72.649C61.6446 72.8209 61.6828 73.0057 61.6838 73.1926ZM61.6838 39.3739C61.6848 39.7595 61.5347 40.1301 61.2656 40.4062C60.9965 40.6824 60.6299 40.8421 60.2444 40.8511H26.7267C26.3349 40.8511 25.9592 40.6955 25.6822 40.4184C25.4051 40.1414 25.2495 39.7657 25.2495 39.3739C25.2495 38.9822 25.4051 38.6065 25.6822 38.3294C25.9592 38.0524 26.3349 37.8968 26.7267 37.8968H60.2444C60.6299 37.9058 60.9965 38.0655 61.2656 38.3416C61.5347 38.6178 61.6848 38.9884 61.6838 39.3739ZM59.2188 36.0309H27.7527C27.9859 33.3107 29.2333 30.7776 31.2472 28.9342C33.2612 27.0908 35.8946 26.0719 38.6248 26.0797H48.3463C49.7786 26.0716 51.1983 26.3479 52.5229 26.8927C53.8476 27.4375 55.0509 28.2399 56.0631 29.2534C57.8762 31.0733 58.993 33.4719 59.2188 36.0309ZM77.6347 7.57663H69.9544C69.7119 7.57626 69.4789 7.67041 69.3047 7.83909L51.9367 24.7259C51.5814 24.6234 51.2017 24.5338 50.8908 24.4625V23.3476L68.6514 6.09576C68.7258 6.02034 68.8149 5.96105 68.9132 5.92157C69.0115 5.88208 69.1169 5.86326 69.2228 5.86626H77.6347V7.57663Z" fill="#38497D"/>
<path d="M55.3998 45.1112C55.1524 45.1112 54.9151 45.2095 54.7401 45.3845C54.5651 45.5594 54.4669 45.7967 54.4669 46.0442V46.9996C54.4669 47.2471 54.5651 47.4844 54.7401 47.6593C54.9151 47.8343 55.1524 47.9326 55.3998 47.9326C55.6472 47.9326 55.8845 47.8343 56.0595 47.6593C56.2344 47.4844 56.3327 47.2471 56.3327 46.9996V46.0442C56.3327 45.7967 56.2344 45.5594 56.0595 45.3845C55.8845 45.2095 55.6472 45.1112 55.3998 45.1112Z" fill="#38497D"/>
<path d="M55.3998 48.8399C55.1524 48.8399 54.9151 48.9382 54.7401 49.1132C54.5651 49.2881 54.4669 49.5254 54.4669 49.7728V59.695C54.4669 59.9424 54.5651 60.1797 54.7401 60.3547C54.9151 60.5296 55.1524 60.6279 55.3998 60.6279C55.6472 60.6279 55.8845 60.5296 56.0595 60.3547C56.2344 60.1797 56.3327 59.9424 56.3327 59.695V49.7728C56.3327 49.5254 56.2344 49.2881 56.0595 49.1132C55.8845 48.9382 55.6472 48.8399 55.3998 48.8399Z" fill="#38497D"/>
</svg>
