<svg width="82" height="80" viewBox="0 0 82 80" fill="none" xmlns="http://www.w3.org/2000/svg">
<path fill-rule="evenodd" clip-rule="evenodd" d="M45 58C53.2843 58 60 51.2843 60 43C60 34.7157 53.2843 28 45 28C36.7157 28 30 34.7157 30 43C30 51.2843 36.7157 58 45 58ZM44.5 50C48.6421 50 52 46.6421 52 42.5C52 38.3579 48.6421 35 44.5 35C40.3579 35 37 38.3579 37 42.5C37 46.6421 40.3579 50 44.5 50Z" fill="#F0A500"/>
<path d="M15.0824 44.901C15.0824 44.6114 15.106 44.3233 15.106 44.0352V44.026H10.5327V44.0352C10.5327 44.3233 10.5091 44.6114 10.5091 44.901C10.5091 63.7811 25.8094 79.0879 44.6894 79.0879C45.4583 79.0879 46.2206 79.06 46.9761 79.01C29.1634 77.8335 15.0824 63.0126 15.0824 44.901Z" fill="#FED67E"/>
<path d="M23.3996 44.8968C23.3996 56.6228 32.9394 66.1626 44.6654 66.1626C56.3915 66.1626 65.9312 56.6228 65.9312 44.8968C65.9312 33.1709 56.3915 23.631 44.6654 23.631C32.9394 23.631 23.3996 33.1708 23.3996 44.8968ZM44.6654 25.4604C48.5096 25.4604 52.2675 26.6003 55.4638 28.736C58.6601 30.8717 61.1513 33.9073 62.6224 37.4588C64.0935 41.0104 64.4784 44.9184 63.7285 48.6887C62.9785 52.459 61.1274 55.9223 58.4091 58.6405C55.6909 61.3588 52.2276 63.2099 48.4573 63.9599C44.687 64.7098 40.779 64.3249 37.2274 62.8538C33.6759 61.3827 30.6403 58.8915 28.5046 55.6952C26.3689 52.4989 25.229 48.741 25.229 44.8968C25.2348 39.7438 27.2844 34.8034 30.9282 31.1596C34.572 27.5158 39.5123 25.4662 44.6654 25.4604Z" fill="#38497D"/>
<path d="M44.665 49.8831C45.6509 49.8831 46.6147 49.5908 47.4345 49.043C48.2542 48.4953 48.8932 47.7168 49.2705 46.8059C49.6477 45.895 49.7465 44.8927 49.5541 43.9258C49.3618 42.9588 48.887 42.0706 48.1899 41.3734C47.4927 40.6763 46.6045 40.2015 45.6375 40.0092C44.6705 39.8168 43.6683 39.9155 42.7574 40.2928C41.8465 40.6701 41.068 41.309 40.5202 42.1288C39.9725 42.9486 39.6801 43.9123 39.6801 44.8983C39.6816 46.2199 40.2072 47.487 41.1418 48.4215C42.0763 49.356 43.3434 49.8817 44.665 49.8831ZM44.665 41.7427C45.2891 41.7427 45.8992 41.9278 46.4182 42.2745C46.9371 42.6212 47.3415 43.1141 47.5804 43.6907C47.8192 44.2673 47.8817 44.9018 47.76 45.5139C47.6382 46.126 47.3377 46.6883 46.8963 47.1296C46.455 47.5709 45.8928 47.8714 45.2806 47.9932C44.6685 48.115 44.034 48.0525 43.4574 47.8136C42.8808 47.5748 42.388 47.1703 42.0413 46.6514C41.6945 46.1325 41.5094 45.5224 41.5094 44.8983C41.5104 44.0617 41.8432 43.2596 42.4348 42.6681C43.0263 42.0765 43.8284 41.7438 44.665 41.7428V41.7427Z" fill="#38497D"/>
<path d="M44.6702 60.3485C47.7268 60.3485 50.7147 59.4422 53.2561 57.7441C55.7976 56.046 57.7784 53.6324 58.9481 50.8085C60.1178 47.9847 60.4238 44.8773 59.8275 41.8795C59.2312 38.8817 57.7594 36.1281 55.5981 33.9668C53.4368 31.8055 50.6831 30.3336 47.6853 29.7373C44.6875 29.141 41.5802 29.4471 38.7563 30.6168C35.9325 31.7865 33.5189 33.7673 31.8208 36.3087C30.1227 38.8501 29.2163 41.8381 29.2163 44.8946C29.221 48.9918 30.8506 52.9199 33.7478 55.817C36.645 58.7142 40.573 60.3439 44.6702 60.3485ZM31.0771 45.849H35.8275C36.0233 47.5635 36.7015 49.1872 37.7832 50.5316L34.427 53.898C32.4579 51.655 31.2808 48.8268 31.0771 45.849ZM39.07 51.8038C40.404 52.908 42.0389 53.5861 43.7629 53.7503V58.4893C40.7864 58.2914 37.9571 57.1217 35.7098 55.16L39.07 51.8038ZM45.5922 53.7476C47.3185 53.58 48.9551 52.8993 50.2911 51.7934L53.6313 55.1378C51.3901 57.1034 48.5661 58.2798 45.5922 58.4866V53.7476ZM51.5915 50.5184C52.6681 49.177 53.3425 47.558 53.5366 45.849H58.2634C58.0627 48.8158 56.8935 51.6347 54.9356 53.8727L51.5915 50.5184ZM53.5366 44.0197C53.3716 42.2913 52.6943 40.6516 51.5915 39.3106L54.9356 35.9761C56.8939 38.2217 58.0628 41.0469 58.2634 44.0197H53.5366ZM50.2911 37.9956C48.955 36.8898 47.3185 36.2092 45.5922 36.0415V31.3028C48.5661 31.5095 51.39 32.6857 53.6313 34.6512L50.2911 37.9956ZM43.7629 36.0389C42.039 36.203 40.404 36.8811 39.07 37.9853L35.7098 34.6292C37.9571 32.6674 40.7863 31.4977 43.7629 31.2999V36.0389ZM44.682 37.8225C46.0807 37.8225 47.448 38.2372 48.611 39.0143C49.774 39.7914 50.6804 40.8959 51.2156 42.1881C51.7509 43.4803 51.891 44.9023 51.6181 46.2741C51.3452 47.6459 50.6717 48.9061 49.6826 49.8951C48.6936 50.8841 47.4335 51.5577 46.0617 51.8305C44.6898 52.1034 43.2679 51.9634 41.9757 51.4281C40.6834 50.8928 39.5789 49.9864 38.8018 48.8234C38.0248 47.6604 37.61 46.2931 37.61 44.8944C37.6122 43.0195 38.358 41.222 39.6838 39.8963C41.0096 38.5705 42.8071 37.8248 44.682 37.8226V37.8225ZM34.427 35.941L37.7832 39.3071C36.6754 40.6475 35.9942 42.2888 35.8275 44.0197H31.0771C31.2807 41.0331 32.4574 38.1955 34.427 35.9412V35.941Z" fill="#38497D"/>
<path d="M44.6804 9.79475C44.3869 9.79475 44.088 9.7984 43.7921 9.80587L43.8378 11.6352C44.1185 11.6282 44.4019 11.6247 44.6805 11.6247C51.2613 11.6245 57.6944 13.5758 63.1662 17.2319C68.638 20.8879 72.9027 26.0845 75.4211 32.1644C77.9394 38.2443 78.5982 44.9344 77.3143 51.3888C76.0303 57.8431 72.8612 63.7718 68.2077 68.4249C63.5544 73.0783 57.6257 76.2473 51.1713 77.5311C44.717 78.8149 38.0269 78.1559 31.9471 75.6374C25.8672 73.119 20.6708 68.8541 17.0149 63.3823C13.3589 57.9105 11.4077 51.4774 11.408 44.8966C11.408 44.615 11.4115 44.3313 11.4185 44.0534L9.58922 44.0077C9.5819 44.3007 9.57809 44.5998 9.57809 44.8966C9.57802 51.8392 11.6367 58.6258 15.4938 64.3984C19.3508 70.1709 24.8331 74.6701 31.2472 77.3269C37.6613 79.9836 44.7192 80.6787 51.5284 79.3242C58.3375 77.9697 64.5921 74.6264 69.5011 69.7172C74.4102 64.8081 77.7533 58.5536 79.1077 51.7445C80.462 44.9354 79.7669 37.8776 77.1101 31.4637C74.4534 25.0497 69.9543 19.5675 64.1818 15.7105C58.4094 11.8535 51.6228 9.79477 44.6804 9.79475Z" fill="#38497D"/>
<path d="M38.3392 23.5237C38.4007 23.5237 38.462 23.5175 38.5222 23.5052C38.8483 23.4392 39.1798 23.381 39.5077 23.3322C39.6265 23.3145 39.7407 23.2736 39.8437 23.2117C39.9466 23.1499 40.0364 23.0684 40.1079 22.9718C40.1794 22.8753 40.2312 22.7656 40.2602 22.6491C40.2893 22.5326 40.2952 22.4114 40.2775 22.2926C40.2598 22.1738 40.2188 22.0597 40.157 21.9567C40.0952 21.8537 40.0136 21.7639 39.9171 21.6924C39.8206 21.621 39.7109 21.5692 39.5944 21.5401C39.4778 21.511 39.3567 21.5052 39.2379 21.5229C38.8789 21.5764 38.5159 21.6401 38.1591 21.7125C37.9368 21.7574 37.7392 21.8833 37.6045 22.0657C37.4698 22.2482 37.4077 22.4741 37.4302 22.6997C37.4527 22.9254 37.5581 23.1346 37.7262 23.2868C37.8942 23.4391 38.1128 23.5235 38.3395 23.5237H38.3392Z" fill="#FED67E"/>
<path d="M23.72 34.4735C23.8281 34.5259 23.9454 34.5565 24.0653 34.5636C24.1853 34.5707 24.3054 34.554 24.4189 34.5147C24.5323 34.4753 24.637 34.414 24.7268 34.3342C24.8165 34.2544 24.8897 34.1578 24.9422 34.0497C26.9881 29.829 30.4927 26.4916 34.8083 24.6543C35.0315 24.5593 35.2078 24.3795 35.2985 24.1545C35.3891 23.9295 35.3867 23.6776 35.2917 23.4544C35.1967 23.2312 35.0169 23.0549 34.7918 22.9642C34.5668 22.8736 34.315 22.876 34.0918 22.971C29.3696 24.9813 25.5348 28.6331 23.2961 33.2513C23.2437 33.3594 23.2131 33.4768 23.206 33.5967C23.1989 33.7166 23.2156 33.8367 23.2549 33.9502C23.2943 34.0637 23.3556 34.1683 23.4354 34.2581C23.5152 34.3479 23.6119 34.4211 23.72 34.4735Z" fill="#38497D"/>
<path d="M5.91466 44.9401H18.9615C19.2041 44.9401 19.4367 44.8437 19.6083 44.6722C19.7798 44.5006 19.8762 44.268 19.8762 44.0254C19.8678 40.8532 20.4861 37.7107 21.6955 34.7781C22.9049 31.8455 24.6816 29.1807 26.9236 26.9366C31.4487 22.384 37.4294 19.8768 43.7637 19.8768C44.0062 19.8768 44.2389 19.7804 44.4104 19.6089C44.582 19.4373 44.6783 19.2047 44.6783 18.9621V5.91466C44.6783 5.67208 44.582 5.43943 44.4104 5.2679C44.2389 5.09637 44.0062 5 43.7637 5C33.4904 5 23.7787 9.08181 16.4157 16.4942C9.0527 23.9066 5 33.6825 5 44.0254C5 44.268 5.09637 44.5006 5.2679 44.6722C5.43943 44.8437 5.67208 44.9401 5.91466 44.9401ZM17.7137 17.783C24.5104 10.9401 33.4062 7.07551 42.8493 6.84075V18.0633C29.3916 18.5414 18.5307 29.5148 18.0628 43.1108H6.84044C7.07201 33.5936 10.9125 24.6299 17.7136 17.783H17.7137Z" fill="#38497D"/>
<path d="M13.5796 38.3463H13.5798C13.9833 38.3458 14.3701 38.1853 14.6553 37.9C14.9406 37.6147 15.1011 37.2279 15.1016 36.8245V36.8243C15.1016 36.5233 15.0124 36.229 14.8451 35.9787C14.6779 35.7284 14.4402 35.5334 14.1621 35.4182C13.884 35.303 13.5779 35.2728 13.2827 35.3316C12.9875 35.3903 12.7163 35.5352 12.5034 35.7481C12.2906 35.9609 12.1456 36.2321 12.0869 36.5274C12.0282 36.8226 12.0583 37.1286 12.1735 37.4067C12.2887 37.6849 12.4838 37.9226 12.7341 38.0898C12.9843 38.257 13.2786 38.3463 13.5796 38.3463ZM11.8844 34.2872C12.3862 33.952 12.9761 33.773 13.5795 33.773C14.3885 33.7739 15.1642 34.0957 15.7362 34.6677C16.3083 35.2398 16.6301 36.0154 16.6309 36.8245C16.6309 37.4279 16.4519 38.0178 16.1167 38.5195C15.7814 39.0213 15.3049 39.4124 14.7473 39.6433C14.1898 39.8743 13.5762 39.9347 12.9844 39.817C12.3925 39.6992 11.8488 39.4086 11.422 38.9819C10.9953 38.5552 10.7047 38.0115 10.587 37.4196C10.4692 36.8277 10.5296 36.2142 10.7606 35.6566C10.9915 35.0991 11.3826 34.6225 11.8844 34.2872Z" fill="#F0A500" stroke="white" stroke-width="0.3"/>
<path d="M16.4769 27.0728L16.4767 27.0728C16.0733 27.0732 15.6865 27.2337 15.4012 27.519C15.1159 27.8043 14.9554 28.1911 14.9549 28.5946V28.5947C14.9549 28.8958 15.0442 29.19 15.2114 29.4403C15.3787 29.6906 15.6164 29.8857 15.8945 30.0009C16.1726 30.1161 16.4786 30.1462 16.7738 30.0875C17.0691 30.0288 17.3403 29.8838 17.5531 29.6709C17.766 29.4581 17.9109 29.1869 17.9697 28.8917C18.0284 28.5964 17.9983 28.2904 17.8831 28.0123C17.7679 27.7342 17.5728 27.4965 17.3225 27.3293C17.0722 27.162 16.7779 27.0728 16.4769 27.0728ZM18.1721 31.1318C17.6704 31.4671 17.0805 31.646 16.4771 31.646C15.6681 31.6452 14.8924 31.3234 14.3204 30.7513C13.7483 30.1793 13.4265 29.4037 13.4256 28.5947C13.4256 27.9912 13.6046 27.4013 13.9399 26.8995C14.2751 26.3977 14.7517 26.0066 15.3092 25.7757C15.8668 25.5448 16.4803 25.4843 17.0722 25.6021C17.6641 25.7198 18.2078 26.0104 18.6345 26.4371C19.0613 26.8639 19.3519 27.4076 19.4696 27.9995C19.5873 28.5914 19.5269 29.2049 19.296 29.7624C19.065 30.32 18.6739 30.7965 18.1721 31.1318Z" fill="#F0A500" stroke="white" stroke-width="0.3"/>
<path d="M21.8129 19.9078L21.8127 19.9078C21.4093 19.9083 21.0225 20.0688 20.7372 20.3541C20.4519 20.6393 20.2914 21.0261 20.2909 21.4296V21.4298C20.2909 21.7308 20.3802 22.0251 20.5474 22.2753C20.7146 22.5256 20.9523 22.7207 21.2305 22.8359C21.5086 22.9511 21.8146 22.9812 22.1098 22.9225C22.4051 22.8638 22.6762 22.7188 22.8891 22.506C23.102 22.2931 23.2469 22.0219 23.3056 21.7267C23.3644 21.4315 23.3342 21.1254 23.219 20.8473C23.1038 20.5692 22.9088 20.3315 22.6585 20.1643C22.4082 19.9971 22.1139 19.9078 21.8129 19.9078ZM23.5081 23.9668C23.0064 24.3021 22.4165 24.481 21.8131 24.4811C21.004 24.4802 20.2284 24.1584 19.6563 23.5863C19.0843 23.0143 18.7625 22.2387 18.7616 21.4297C18.7616 20.8262 18.9406 20.2363 19.2758 19.7346C19.6111 19.2328 20.0877 18.8417 20.6452 18.6107C21.2028 18.3798 21.8163 18.3194 22.4082 18.4371C23.0001 18.5548 23.5438 18.8454 23.9705 19.2722C24.3972 19.6989 24.6878 20.2426 24.8056 20.8345C24.9233 21.4264 24.8629 22.0399 24.6319 22.5975C24.401 23.155 24.0099 23.6316 23.5081 23.9668Z" fill="#F0A500" stroke="white" stroke-width="0.3"/>
<path d="M28.2153 14.57L28.2151 14.57C27.8117 14.5705 27.4249 14.731 27.1396 15.0163C26.8543 15.3015 26.6938 15.6883 26.6933 16.0918V16.092C26.6933 16.393 26.7826 16.6872 26.9498 16.9375C27.1171 17.1878 27.3548 17.3829 27.6329 17.4981C27.911 17.6133 28.217 17.6434 28.5122 17.5847C28.8075 17.526 29.0787 17.381 29.2915 17.1682C29.5044 16.9553 29.6493 16.6841 29.708 16.3889C29.7668 16.0937 29.7366 15.7876 29.6214 15.5095C29.5062 15.2314 29.3112 14.9937 29.0609 14.8265C28.8106 14.6592 28.5163 14.57 28.2153 14.57ZM29.9105 18.629C29.4088 18.9643 28.8189 19.1432 28.2155 19.1433C27.4064 19.1424 26.6308 18.8206 26.0587 18.2485C25.4867 17.6765 25.1649 16.9009 25.164 16.0919C25.164 15.4884 25.343 14.8985 25.6782 14.3968C26.0135 13.895 26.4901 13.5039 27.0476 13.2729C27.6052 13.042 28.2187 12.9816 28.8106 13.0993C29.4025 13.217 29.9462 13.5076 30.3729 13.9344C30.7996 14.3611 31.0902 14.9048 31.208 15.4967C31.3257 16.0886 31.2653 16.7021 31.0343 17.2597C30.8034 17.8172 30.4123 18.2938 29.9105 18.629Z" fill="#F0A500" stroke="white" stroke-width="0.3"/>
<path d="M36.4467 11.3688L36.4465 11.3688C36.0431 11.3693 35.6563 11.5298 35.371 11.815C35.0857 12.1003 34.9252 12.4871 34.9247 12.8906V12.8908C34.9247 13.1918 35.014 13.486 35.1812 13.7363C35.3485 13.9866 35.5862 14.1817 35.8643 14.2969C36.1424 14.4121 36.4484 14.4422 36.7436 14.3835C37.0389 14.3248 37.3101 14.1798 37.5229 13.967C37.7358 13.7541 37.8807 13.4829 37.9395 13.1877C37.9982 12.8925 37.968 12.5864 37.8528 12.3083C37.7377 12.0302 37.5426 11.7925 37.2923 11.6253C37.042 11.458 36.7477 11.3688 36.4467 11.3688ZM38.1419 15.4278C37.6402 15.7631 37.0503 15.942 36.4469 15.9421C35.6379 15.9412 34.8622 15.6194 34.2901 15.0473C33.7181 14.4753 33.3963 13.6997 33.3954 12.8907C33.3954 12.2872 33.5744 11.6973 33.9097 11.1956C34.2449 10.6938 34.7215 10.3027 35.279 10.0717C35.8366 9.84078 36.4501 9.78036 37.042 9.89809C37.6339 10.0158 38.1776 10.3064 38.6043 10.7332C39.031 11.1599 39.3217 11.7036 39.4394 12.2955C39.5571 12.8874 39.4967 13.5009 39.2658 14.0584C39.0348 14.616 38.6437 15.0926 38.1419 15.4278Z" fill="#F0A500" stroke="white" stroke-width="0.3"/>
</svg>
