<svg width="58" height="80" viewBox="0 0 58 80" fill="none" xmlns="http://www.w3.org/2000/svg">
<g clip-path="url(#clip0_107_8278)">
<rect x="5" y="20" width="40" height="40" fill="#F0A500"/>
<path d="M19.75 3C19.75 1.75736 20.7574 0.75 22 0.75H27C28.2426 0.75 29.25 1.75736 29.25 3V7.25H19.75V3Z" stroke="#38497D" stroke-width="1.5"/>
<path d="M19.75 78C19.75 79.2426 20.7574 80.25 22 80.25H27C28.2426 80.25 29.25 79.2426 29.25 78V73.75H19.75V78Z" stroke="#38497D" stroke-width="1.5"/>
<path d="M19 75C19 76.6569 20.3431 78 22 78H27C28.6569 78 30 76.6569 30 75V73H19V75Z" fill="#FED67E"/>
<path d="M0.50004 20.5L3.50008 21L4.59672 60H10.0954L9 19.5C8.99605 18.752 9.01804 18.4637 9.5 17.5C9.82214 16.8077 10.4009 16.0311 11 15.5C11.5991 14.9689 11.7393 14.7302 12.5241 14.4414C13.3088 14.1526 15.1 14.0026 15.9507 14H10.4521C9.60141 14.0026 5.38145 13.4688 4.59672 13.7576C3.81198 14.0464 3.0997 14.4684 2.50059 14.9995C1.90148 15.5306 1.4273 16.1602 1.10516 16.8526C0.783022 17.5449 0.496089 19.752 0.50004 20.5Z" fill="#FED67E"/>
<path d="M48.1176 21.4459C48.5774 21.4459 48.9588 21.083 48.9588 20.6452V17.7948C48.9588 14.9017 46.48 12.5424 43.4404 12.5424H35.8022V9.37174C35.8022 7.70633 34.3777 6.33984 32.6168 6.33984H16.3308C14.5811 6.33984 13.1454 7.69565 13.1454 9.37174V12.5424H5.51838C2.47878 12.5424 0 14.9017 0 17.7948V20.6452C0 21.083 0.381351 21.4459 0.841216 21.4459H3.44338V59.5581H0.841216C0.381351 59.5581 0 59.9211 0 60.3588V63.2092C0 66.1023 2.47878 68.4616 5.51838 68.4616H13.1566V71.6323C13.1566 73.2977 14.5811 74.6642 16.342 74.6642H32.628C34.3777 74.6642 35.8134 73.3084 35.8134 71.6323V68.4723H43.4516C46.4912 68.4723 48.97 66.113 48.97 63.2198V60.3588C48.97 59.9211 48.5887 59.5581 48.1288 59.5581H45.5266V21.4459H48.1176ZM38.0566 59.5581H33.9739V21.4459H38.0566V59.5581ZM39.7391 21.4459H43.8218V59.5581H39.7391V21.4459ZM10.8909 21.4459H14.9737V59.5581H10.8909V21.4459ZM9.20851 59.5581H5.11459V21.4459H9.20851V59.5581ZM26.5151 21.4459V59.5581H22.4324V21.4459H26.5151ZM20.75 21.4459V59.5581H16.6673V21.4459H20.75ZM28.1976 59.5581V21.4459H32.2803V59.5581H28.1976ZM14.8391 9.37174C14.8391 8.58174 15.512 7.9412 16.342 7.9412H32.628C33.458 7.9412 34.131 8.58174 34.131 9.37174V12.5424H14.8391V9.37174ZM1.67122 17.7842C1.67122 15.7665 3.3873 14.1331 5.50716 14.1331H43.4292C45.5491 14.1331 47.2651 15.7665 47.2651 17.7842V19.8339H1.67122V17.7842ZM34.1085 71.6323C34.1085 72.4223 33.4355 73.0628 32.6055 73.0628H16.3308C15.5008 73.0628 14.8278 72.4223 14.8278 71.6323V68.4723H34.1085V71.6323ZM47.2764 63.2198C47.2764 65.2375 45.5603 66.8709 43.4404 66.8709H5.51838C3.39851 66.8709 1.68243 65.2375 1.68243 63.2198V61.1701H47.2764V63.2198Z" fill="#38497D"/>
<path d="M19.75 78C19.75 79.2426 20.7574 80.25 22 80.25H27C28.2426 80.25 29.25 79.2426 29.25 78V73.75H19.75V78Z" stroke="#38497D" stroke-width="1.5"/>
</g>
<defs>
<clipPath id="clip0_107_8278">
<rect width="58" height="80" fill="white"/>
</clipPath>
</defs>
</svg>
