<svg width="24" height="24" viewBox="0 0 24 24" fill="none" xmlns="http://www.w3.org/2000/svg">
<g clip-path="url(#clip0_113_8474)">
<path d="M10.5 21.75C4.85 21.75 0.25 17.15 0.25 11.5C0.25 5.85 4.85 1.25 10.5 1.25C16.15 1.25 20.75 5.85 20.75 11.5C20.75 17.15 16.15 21.75 10.5 21.75ZM10.5 2.75C5.67 2.75 1.75 6.68 1.75 11.5C1.75 16.32 5.67 20.25 10.5 20.25C15.33 20.25 19.25 16.32 19.25 11.5C19.25 6.68 15.33 2.75 10.5 2.75Z" fill="#B0B0B0"/>
<path d="M21 22.75C20.81 22.75 20.62 22.68 20.47 22.53L18.47 20.53C18.18 20.24 18.18 19.76 18.47 19.47C18.76 19.18 19.24 19.18 19.53 19.47L21.53 21.47C21.82 21.76 21.82 22.24 21.53 22.53C21.38 22.68 21.19 22.75 21 22.75Z" fill="#B0B0B0"/>
</g>
<defs>
<clipPath id="clip0_113_8474">
<rect width="24" height="24" fill="white"/>
</clipPath>
</defs>
</svg>
