<svg width="58" height="80" viewBox="0 0 58 80" fill="none" xmlns="http://www.w3.org/2000/svg">
<g clip-path="url(#clip0_107_8270)">
<path d="M14.3085 73.6699L13.8929 72.5H10.5844L11 73.6699C10.9974 74.2373 11.1168 74.7996 11.3514 75.3246C11.5859 75.8496 11.931 76.3269 12.3668 76.7292C12.8027 77.1315 13.3207 77.4508 13.8912 77.6689C14.4617 77.8869 15.0735 77.9995 15.6915 78H19C18.382 77.9995 17.7702 77.8869 17.1997 77.6689C16.6292 77.4508 16.1112 77.1315 15.6753 76.7292C15.2395 76.3269 14.8944 75.8496 14.6599 75.3246C14.4253 74.7996 14.3059 74.2373 14.3085 73.6699Z" fill="#FED67E"/>
<path d="M18.2989 58.3602L42.1963 58.2361L45.3285 46.1004C45.3285 46.1004 32.3357 37.5072 15.0507 46.1004L18.2989 58.3602Z" fill="#F0A500"/>
<path d="M42.4268 58.9124C42.9697 58.9124 43.2324 58.7167 43.35 58.2377C44.2866 54.2264 45.2217 50.2141 46.1551 46.2007C46.2872 45.631 46.1551 45.3668 45.6476 45.1552L44.9693 44.8751C43.7786 44.3834 42.5524 43.8725 41.3134 43.4429C38.5371 42.4462 35.6476 41.7894 32.7095 41.4871C30.4396 41.2731 28.1513 41.3475 25.9006 41.7083C22.2109 42.286 18.5679 43.3967 14.7655 45.1042C14.4819 45.2095 14.2508 45.4195 14.121 45.6899V46.1068V46.1163C14.146 46.1672 14.1654 46.2205 14.179 46.2755C14.5582 47.8923 14.9341 49.5086 15.3069 51.1243C15.8514 53.4477 16.3955 55.7711 16.939 58.0944C17.1001 58.7628 17.2935 58.9156 17.9944 58.9156H26.4758C26.5861 58.9038 26.6974 58.9261 26.7943 58.9794C26.8913 59.0327 26.9691 59.1144 27.0171 59.2132C27.2008 59.5633 27.3958 59.9149 27.5843 60.2555C27.7551 60.5626 27.9307 60.8809 28.0983 61.196C28.137 61.282 28.1534 61.3762 28.1461 61.4701C28.1388 61.564 28.1079 61.6547 28.0564 61.7339C27.6616 62.2381 27.4668 62.8674 27.5085 63.5034C27.5811 64.5505 28.0966 65.3033 29.0424 65.7313C30.0301 66.1849 30.9759 66.0719 31.825 65.3924C32.2121 65.1038 32.5063 64.7107 32.6721 64.2606C32.8379 63.8105 32.8683 63.3225 32.7595 62.8558C32.5033 61.5333 31.3835 60.674 29.9721 60.7233C29.9093 60.7233 29.587 60.7233 29.4646 60.5276C29.2761 60.2221 29.1037 59.9086 28.9232 59.5728C28.8587 59.4582 28.7943 59.3389 28.7282 59.2179L28.5558 58.9092H42.4123L42.4268 58.9124ZM29.3453 62.5486C29.4522 62.4425 29.5793 62.3582 29.7191 62.3006C29.859 62.243 30.009 62.2132 30.1606 62.2129C30.468 62.2174 30.7615 62.3401 30.9787 62.5549C31.1959 62.7698 31.3197 63.0598 31.3239 63.3634C31.3201 63.6662 31.1954 63.9552 30.977 64.1677C30.7585 64.3802 30.464 64.4989 30.1574 64.498C30.0033 64.4986 29.8507 64.4687 29.7085 64.4103C29.5663 64.3518 29.4374 64.2658 29.3292 64.1575C29.2234 64.053 29.1394 63.929 29.0822 63.7925C29.025 63.6559 28.9956 63.5096 28.9957 63.3618C28.996 63.2101 29.027 63.0599 29.0871 62.9202C29.1471 62.7806 29.235 62.6542 29.3453 62.5486ZM28.2014 57.4213C28.0566 57.4312 27.9122 57.3972 27.7875 57.3239C27.6628 57.2505 27.5638 57.1412 27.5037 57.0107C26.3759 54.9499 25.2174 52.8557 24.0992 50.8315L22.2915 47.5533C22.1126 47.2271 21.9305 47.0759 21.6679 47.0489C21.5328 47.0229 21.393 47.037 21.2659 47.0894C21.1389 47.1418 21.0304 47.2301 20.9541 47.3433C20.863 47.4638 20.8118 47.6092 20.8074 47.7596C20.8031 47.91 20.8459 48.058 20.93 48.1835C21.4359 49.0959 21.9402 50.0088 22.4429 50.9222L22.9037 51.7561L25.6637 56.7577C25.7008 56.8245 25.7362 56.8914 25.7765 56.9678L26.0005 57.3942H18.3263L18.1071 56.4713C17.9734 55.9095 17.8381 55.3462 17.7076 54.7828C17.5271 54.0126 17.3477 53.2429 17.1694 52.4738C16.7328 50.5928 16.28 48.6545 15.8305 46.7449C15.7773 46.5253 15.7725 46.2787 16.127 46.1275C19.2753 44.7587 22.5805 43.7733 25.9698 43.193C29.6321 42.5867 33.3911 42.7952 37.4626 43.8296C39.7312 44.412 41.9519 45.1631 44.1056 46.0766C44.4682 46.2357 44.5745 46.4394 44.4843 46.8229C43.8752 49.3929 43.2662 52.0075 42.6781 54.5362C42.4858 55.3552 42.2946 56.1753 42.1045 56.9964C42.09 57.0569 42.0707 57.1158 42.0513 57.1762L42.0207 57.2701L41.9756 57.4181H39.098C35.5243 57.4149 31.833 57.4149 28.1982 57.4213H28.2014Z" fill="#38497D"/>
<path d="M8.00623 70.0916C7.99495 60.7918 7.99656 51.3376 8.00623 42.1921V42.1189C8.00623 37.0807 8.00623 32.0414 8.00623 27.0011C7.9859 25.3685 8.37327 23.7561 9.13408 22.3066C9.47726 21.6557 9.80273 20.9842 10.1201 20.3365C10.6422 19.2639 11.1819 18.1563 11.799 17.1267C12.898 15.3435 13.3814 13.2561 13.1766 11.1783C13.1267 10.6149 12.9833 10.2235 12.3984 9.91474C11.2335 9.28934 10.6261 8.28679 10.5922 6.93573C10.5761 6.2244 10.5761 5.44623 10.5922 4.48983C10.6196 2.48314 12.11 1.01591 14.1401 1.00955C17.5011 0.996817 20.9072 0.996817 24.2666 1.00955C26.2886 1.00955 27.7516 2.42426 27.8241 4.43254C27.8547 5.30778 27.8547 6.18302 27.8241 7.01848C27.7935 7.85394 27.5567 8.97425 26.6334 9.45961C25.1705 10.2298 25.1447 11.4249 25.2349 12.4832C25.2494 12.6021 25.2494 12.7223 25.2349 12.8412C25.0641 13.796 25.6828 14.1716 26.2403 14.3896C32.0729 16.6668 37.9925 19.0045 43.7171 21.2738L45.0754 21.8101C48.9842 23.3569 50.9708 26.1926 50.9805 30.2442C51.0062 41.1084 50.9998 52.1555 50.9934 62.8398V70.2523C50.9934 73.4032 49.7366 75.8221 47.2602 77.4548C46.5255 77.9322 45.6312 78.2584 44.766 78.5687C44.3793 78.7072 43.9846 78.8472 43.6027 79.0032H15.4678C15.3969 78.9459 15.3137 78.9056 15.2245 78.8854C10.6406 77.8892 8.01267 74.6826 8.00623 70.0916ZM26.0083 6.88322C26.0308 6.17507 26.0308 5.4144 26.0083 4.55667C25.9809 3.43158 25.3445 2.80618 24.2134 2.79186C23.0549 2.77754 21.8771 2.77754 20.738 2.77754H18.3583C17.0919 2.77754 15.8265 2.77754 14.5622 2.77754C12.951 2.77754 12.4016 3.31223 12.3968 4.8813V5.31096C12.3968 5.8011 12.3968 6.30715 12.3968 6.81161C12.4306 8.33612 13.4827 8.57005 14.1063 8.57482C15.7497 8.58437 17.4318 8.59073 19.101 8.59073C20.8299 8.59073 22.578 8.59073 24.2988 8.57323C25.338 8.57482 25.9664 7.93987 26.0083 6.88322ZM49.1018 72.0903V30.7853H44.9787C44.7432 30.7853 44.5174 30.6929 44.3509 30.5285C44.1844 30.364 44.0909 30.141 44.0909 29.9084C44.0913 29.6762 44.1851 29.4536 44.3515 29.2895C44.518 29.1254 44.7435 29.0332 44.9787 29.0332H49.1034L48.9954 28.5558C48.475 26.2468 47.1571 24.6395 45.0786 23.7818C42.8632 22.862 40.6043 21.9756 38.4211 21.1178C37.5618 20.7805 36.7024 20.4426 35.8431 20.1041L33.5423 19.1923C30.3747 17.9367 27.0975 16.6461 23.8622 15.3731C23.4964 15.2314 23.4255 15.1264 23.4368 14.7508C23.4626 13.8358 23.4577 12.9415 23.4529 11.993C23.4529 11.6127 23.4529 11.2292 23.4529 10.8409V10.4319H14.9264V10.8298C14.9264 11.148 14.9264 11.4663 14.9344 11.7734C14.9441 12.5277 14.9538 13.2359 14.9087 13.952C14.8883 14.5046 14.762 15.0484 14.5365 15.5545C13.4682 17.7489 12.1873 20.3444 10.7888 22.9622C9.95256 24.5297 9.66093 26.2643 9.82206 28.5844L9.84945 28.9536H39.7568C39.9873 28.9545 40.2081 29.0453 40.371 29.2063C40.534 29.3672 40.626 29.5853 40.6268 29.813C40.6264 30.0407 40.5346 30.2591 40.3715 30.4201C40.2084 30.5812 39.9874 30.6719 39.7568 30.6723H9.88006V72.0903H49.1018ZM16.0816 77.1827C16.855 77.2145 17.6799 77.2288 18.7595 77.2288C19.2127 77.2288 19.6617 77.2288 20.1064 77.2288H20.166H21.6274H28.0304H28.1818C32.7222 77.2288 37.4189 77.2288 42.0382 77.2415H42.0785C44.2311 77.2415 45.9551 76.5318 47.3488 75.0725C47.4289 74.9858 47.5037 74.8944 47.5727 74.7988C47.6162 74.7415 47.6581 74.6874 47.7081 74.6254L48.2188 73.9888H10.7243L11.2754 74.6413C12.6546 76.2645 14.2303 77.1015 16.0816 77.1811V77.1827Z" fill="#38497D"/>
<path d="M12 55C12.2652 55 12.5196 54.9111 12.7071 54.7528C12.8946 54.5946 13 54.3799 13 54.1561V39.8439C13 39.6201 12.8946 39.4054 12.7071 39.2472C12.5196 39.0889 12.2652 39 12 39C11.7348 39 11.4804 39.0889 11.2929 39.2472C11.1054 39.4054 11 39.6201 11 39.8439V54.1561C11 54.3799 11.1054 54.5946 11.2929 54.7528C11.4804 54.9111 11.7348 55 12 55Z" fill="#38497D"/>
<path d="M12 38C12.2652 38 12.5196 37.9251 12.7071 37.7918C12.8946 37.6586 13 37.4778 13 37.2893V36.7107C13 36.5222 12.8946 36.3414 12.7071 36.2082C12.5196 36.0749 12.2652 36 12 36C11.7348 36 11.4804 36.0749 11.2929 36.2082C11.1054 36.3414 11 36.5222 11 36.7107V37.2893C11 37.4778 11.1054 37.6586 11.2929 37.7918C11.4804 37.9251 11.7348 38 12 38Z" fill="#38497D"/>
</g>
<defs>
<clipPath id="clip0_107_8270">
<rect width="43" height="78" fill="white" transform="translate(8 1)"/>
</clipPath>
</defs>
</svg>
