<svg width="70" height="67" viewBox="0 0 70 67" fill="none" xmlns="http://www.w3.org/2000/svg">
<g clip-path="url(#clip0_107_8352)">
<circle cx="34" cy="34" r="15" fill="#F0A500"/>
<path d="M61.7971 41.4533C61.506 42.819 61.4222 44.2206 61.5488 45.6112C61.7118 49.6496 61.4182 50.1901 57.7853 52.0851C56.4957 52.595 55.3244 53.364 54.3438 54.3446C53.3633 55.3251 52.5943 56.4964 52.0844 57.786C50.1883 61.4226 49.6479 61.7106 45.6112 61.5495C41.8194 61.3923 40.8762 61.6865 37.8478 63.6145M61.7971 41.4533L61.942 41.4921C61.9423 41.4909 61.9427 41.4896 61.943 41.4884M61.7971 41.4533C62.1281 40.2155 62.8857 39.0068 63.6101 37.851C64.4685 36.4813 65.2804 35.1859 65.2804 34.0047L6.30946 45.6038M61.7971 41.4533L61.9438 41.4846C61.9435 41.4859 61.9433 41.4872 61.943 41.4884M61.943 41.4884C61.6557 42.8381 61.5731 44.2233 61.6982 45.5976L61.6988 45.6052L61.6987 45.6052C61.7797 47.6144 61.7531 48.8059 61.2203 49.727C60.6876 50.6481 59.6626 51.275 57.8547 52.2181L57.8477 52.2217L57.8405 52.2245C56.57 52.7269 55.416 53.4846 54.4499 54.4506C53.4838 55.4167 52.7262 56.5707 52.2238 57.8412L52.221 57.8485L52.2174 57.8554C51.2738 59.6652 50.6466 60.6897 49.7256 61.2218C48.8045 61.7538 47.6134 61.7795 45.6052 61.6994L45.6049 61.6994C43.7104 61.6208 42.5467 61.6564 41.4825 61.9448C40.4183 62.2332 39.4423 62.7772 37.9284 63.741L37.8478 63.6145M61.943 41.4884C62.2683 40.275 63.0128 39.0868 63.7391 37.9276C63.8054 37.8218 63.8716 37.7162 63.9373 37.6108C64.3274 36.985 64.6997 36.3683 64.9742 35.7695C65.2485 35.1711 65.4304 34.5798 65.4304 34.0047V33.9939L65.4288 33.9832C65.221 32.5531 64.6368 31.2041 63.736 30.0743C62.769 28.5555 62.2272 27.5791 61.9412 26.5181C61.6548 25.4553 61.6221 24.2965 61.6987 22.4057C61.7802 20.4049 61.7571 19.2146 61.226 18.292C60.6947 17.3692 59.6694 16.7379 57.854 15.7914L57.8471 15.7878L57.8399 15.785C56.57 15.2821 55.4166 14.5244 54.4508 13.5586C53.485 12.5929 52.7273 11.4395 52.2245 10.1696L52.2216 10.1624L52.218 10.1555C51.2773 8.35114 50.65 7.32471 49.7281 6.79007C48.806 6.2553 47.6132 6.22653 45.6042 6.31015L45.5963 6.31048L45.5884 6.31165C44.2424 6.51147 42.8698 6.43409 41.5548 6.08424C40.2397 5.73439 39.0101 5.11947 37.9413 4.27721L37.9354 4.27253L37.929 4.26848C36.1902 3.16191 35.1043 2.57841 34.0043 2.57842C32.9042 2.57844 31.8184 3.16196 30.0797 4.26848L30.0733 4.27253L30.0674 4.2772C28.9984 5.11949 27.7685 5.73442 26.4532 6.08427C25.138 6.43411 23.7651 6.51149 22.4189 6.31165L22.4111 6.31049L22.4032 6.31016C20.3944 6.22496 19.2013 6.25468 18.2791 6.79022C17.3571 7.32557 16.73 8.3524 15.7907 10.1541L15.7871 10.1611L15.7842 10.1683C15.2819 11.4388 14.5242 12.5928 13.5582 13.5589C12.5921 14.525 11.4382 15.2826 10.1676 15.785L10.1604 15.7879L10.1534 15.7915C8.34547 16.7345 7.32051 17.3614 6.78776 18.2825C6.25498 19.2037 6.22837 20.3952 6.30946 22.4044C6.38614 24.2996 6.3523 25.4606 6.06525 26.5235C5.77826 27.5862 5.23521 28.562 4.26784 30.081C3.16033 31.8191 2.57728 32.9062 2.57775 34.0069C2.57821 35.1076 3.16216 36.1934 4.26784 37.9285C5.23754 39.4512 5.7805 40.4288 6.06687 41.4914C6.3533 42.5542 6.38596 43.713 6.30946 45.6038M37.8478 63.6145L37.9284 63.741C36.1897 64.8475 35.1038 65.4311 34.0038 65.4311C32.9037 65.4311 31.8178 64.8476 30.079 63.741L30.1596 63.6145M37.8478 63.6145C34.3562 65.8366 33.6514 65.8367 30.1596 63.6145M30.1596 63.6145L30.079 63.741C28.582 62.788 27.6176 62.2432 26.555 61.9517C25.4924 61.6603 24.3205 61.6192 22.4039 61.6994L22.4037 61.6994C20.3964 61.7812 19.2046 61.7543 18.2827 61.221C17.3608 60.6878 16.7328 59.6621 15.7901 57.854L15.7865 57.8472L15.7836 57.8399C15.2808 56.57 14.5231 55.4166 13.5573 54.4509C12.5915 53.4851 11.4381 52.7274 10.1682 52.2245L10.161 52.2217L10.1541 52.2181C8.33872 51.2716 7.31336 50.6403 6.78214 49.7175C6.25099 48.7949 6.22786 47.6047 6.30946 45.6038M30.1596 63.6145C27.1658 61.7085 26.2342 61.389 22.3976 61.5495C18.3633 61.714 17.8172 61.4177 15.9231 57.7847L6.30946 45.6038M45.5071 3.89287L45.5074 3.89286C48.077 3.78203 49.6935 3.95426 50.9621 4.69575C52.2312 5.43751 53.1775 6.76363 54.3636 9.03519C55.089 10.4278 55.5375 11.2213 56.1623 11.8458C56.7871 12.4703 57.5812 12.9188 58.9735 13.6458L59.0429 13.5129L58.9735 13.6458C61.2718 14.8458 62.5943 15.801 63.3278 17.0707C64.0612 18.3404 64.2202 19.9499 64.1166 22.5024C64.0519 24.1004 64.0483 25.0235 64.2757 25.8728C64.5032 26.7226 64.9595 27.489 65.7812 28.7813L65.7806 28.7817L65.7893 28.7928C66.9597 30.3004 67.6746 32.1112 67.85 34.0116C67.848 35.6233 67.1324 37.0392 66.3208 38.362C66.1473 38.6448 65.967 38.927 65.7889 39.2058C65.5557 39.5709 65.3261 39.9302 65.1201 40.2779C64.7532 40.8969 64.4425 41.5077 64.2795 42.117L64.2792 42.1169L64.2771 42.1275C64.0629 43.2424 64.0087 44.3821 64.116 45.5123C64.2198 48.0721 64.0551 49.6839 63.3194 50.9519C62.5833 52.2208 61.2607 53.1708 58.9735 54.3636L58.9735 54.3636C57.5789 55.0914 56.7854 55.5398 56.1612 56.1641C55.5372 56.7884 55.0895 57.5815 54.3623 58.9741L54.3622 58.9742C53.1607 61.279 52.1982 62.6024 50.9255 63.3346C49.6527 64.0668 48.0445 64.2223 45.5078 64.1166L45.5076 64.1166C43.9065 64.0525 42.9793 64.0504 42.1286 64.2786C41.2775 64.5069 40.5124 64.9632 39.2279 65.7827C37.0307 67.1811 35.5097 67.8595 34.0034 67.8594C32.4971 67.8594 30.9763 67.1809 28.7794 65.7813L28.6988 65.9078L28.7793 65.7813C27.4939 64.9628 26.7274 64.5061 25.876 64.2776C25.0249 64.0491 24.0986 64.051 22.501 64.1166C19.9395 64.2215 18.3269 64.0569 17.0581 63.3205C15.7891 62.5841 14.8385 61.261 13.6444 58.9741C12.919 57.5816 12.4706 56.7881 11.8457 56.1636C11.221 55.5392 10.4268 55.0906 9.03461 54.3636L8.96518 54.4966L9.0346 54.3636C6.73632 53.1637 5.41378 52.2085 4.68033 50.9388C3.94689 49.6691 3.78784 48.0596 3.89149 45.507L3.74161 45.501L3.89149 45.507C3.95615 43.9091 3.95981 42.986 3.73241 42.1366C3.50491 41.2869 3.04863 40.5205 2.22686 39.2282L2.22679 39.228C0.822846 37.0247 0.14734 35.4989 0.150008 33.9921C0.152676 32.4851 0.83364 30.9678 2.22679 28.7814L2.22686 28.7813C3.0518 27.484 3.50812 26.7148 3.73496 25.8648C3.96168 25.0151 3.95664 24.0941 3.8922 22.5011L3.8922 22.5011C3.78813 19.9391 3.95256 18.3263 4.68864 17.0576C5.4248 15.7887 6.7474 14.8387 9.03458 13.6459L9.03461 13.6458C10.4292 12.9181 11.2227 12.4696 11.8468 11.8454C12.4709 11.2211 12.9186 10.428 13.6458 9.03532L13.6459 9.03524C14.8474 6.7305 15.8098 5.40705 17.0825 4.67489C18.3552 3.9427 19.9634 3.78719 22.5003 3.89285L22.5004 3.89286C24.0964 3.95829 25.0234 3.96056 25.8753 3.7321C26.7277 3.50354 27.4953 3.04657 28.7802 2.22675C30.9774 0.828285 32.4984 0.149931 34.0047 0.15C35.511 0.150069 37.0318 0.828582 39.2287 2.22818L39.2287 2.2282C40.5163 3.04801 41.2842 3.50459 42.1358 3.73279C42.9871 3.96089 43.9124 3.95828 45.5071 3.89287ZM3.74232 22.5072C3.8715 25.7007 3.75437 26.0996 2.10029 28.7008L3.74232 22.5072Z" fill="#38497D" stroke="#FBFBFB" stroke-width="0.3"/>
<path d="M48.3206 19.5459L48.2638 19.6453L48.3447 19.7264C50.2187 21.6015 51.7049 23.8275 52.7183 26.2772C53.7318 28.7269 54.2527 31.3522 54.2512 34.0033V34.0035C54.2569 38.5655 52.7199 42.9954 49.8899 46.5735C47.0599 50.1515 43.1032 52.6676 38.6626 53.7129C34.222 54.7582 29.5584 54.2713 25.4294 52.3314C21.3005 50.3914 17.9488 47.1123 15.9189 43.0268C13.889 38.9414 13.3001 34.2895 14.248 29.8271C15.1958 25.3647 17.6247 21.3539 21.1399 18.4462C24.6552 15.5386 29.0504 13.9049 33.6114 13.8107C38.1724 13.7165 42.6312 15.1673 46.2636 17.9273L46.3997 18.0307L46.4845 17.8823L49.2714 13.0055L49.1412 12.9311L49.2714 13.0055C49.4306 12.727 49.6939 12.523 50.0034 12.4386C50.313 12.3542 50.6434 12.3962 50.9219 12.5554C51.2005 12.7146 51.4044 12.9779 51.4888 13.2874C51.5732 13.5969 51.5312 13.9273 51.3721 14.2059L48.3206 19.5459ZM18.897 24.52C17.1147 27.3617 16.1714 30.649 16.1757 34.0033C16.1738 36.8997 16.8781 39.7528 18.2275 42.3156C19.5769 44.8785 21.5309 47.0737 23.92 48.7111C26.3092 50.3485 29.0615 51.3787 31.9386 51.7125C34.8157 52.0463 37.7308 51.6736 40.4314 50.6268C43.132 49.5799 45.5366 47.8904 47.437 45.7046C49.3374 43.5188 50.6762 40.9026 51.3375 38.0827C51.9988 35.2628 51.9626 32.3242 51.2321 29.5215C50.5016 26.7187 49.0988 24.1363 47.1451 21.998L47.0063 21.846L46.9042 22.0247L35.054 42.7624C34.9586 42.9291 34.8249 43.0706 34.664 43.1754C34.5032 43.2802 34.3196 43.3452 34.1287 43.365C33.9377 43.3849 33.7447 43.359 33.5657 43.2896C33.3867 43.2202 33.2268 43.1092 33.0992 42.9657C33.0992 42.9657 33.0991 42.9657 33.0991 42.9657L22.2205 30.7272C22.0074 30.4873 21.8983 30.1727 21.9173 29.8524C21.9362 29.5321 22.0816 29.2325 22.3215 29.0194C22.5614 28.8063 22.8761 28.6973 23.1963 28.7162C23.5166 28.7351 23.8162 28.8805 24.0293 29.1204L24.0294 29.1204L33.6498 39.9434L33.7885 40.0995L33.8922 39.9182L45.1269 20.2581L45.1906 20.1466L45.0902 20.0665C42.4689 17.9735 39.3096 16.6636 35.9764 16.2876C32.6431 15.9116 29.2715 16.4849 26.2498 17.9414C23.2281 19.3979 20.6793 21.6783 18.897 24.52Z" fill="#38497D" stroke="#FBFBFB" stroke-width="0.3"/>
<path d="M34.0047 8.16779V8.31779C34.3256 8.31779 34.6333 8.44525 34.8602 8.67214C35.0871 8.89903 35.2146 9.20676 35.2146 9.52762C35.2146 9.84849 35.0871 10.1562 34.8602 10.3831C34.6333 10.61 34.3256 10.7375 34.0047 10.7375L34.0046 10.7375C27.8359 10.7443 21.9218 13.1979 17.5598 17.5598C13.1979 21.9218 10.7443 27.8359 10.7375 34.0046V34.0047C10.7375 34.3256 10.61 34.6333 10.3831 34.8602C10.1562 35.0871 9.84849 35.2146 9.52762 35.2146C9.20676 35.2146 8.89903 35.0871 8.67214 34.8602C8.44527 34.6334 8.31781 34.3257 8.31779 34.0048C8.32554 27.1946 11.0343 20.6655 15.8499 15.8499C20.6655 11.0343 27.1946 8.32552 34.0049 8.31779L34.0047 8.16779ZM34.0047 8.16779C34.3654 8.16779 34.7113 8.31105 34.9663 8.56607C35.2213 8.82109 35.3646 9.16697 35.3646 9.52762C35.3646 9.88828 35.2213 10.2342 34.9663 10.4892C34.7113 10.7442 34.3654 10.8875 34.0047 10.8875M34.0047 8.16779V10.8875M34.0047 10.8875C27.8758 10.8943 21.9998 13.3321 17.6659 17.6659C13.3321 21.9998 10.8943 27.8758 10.8875 34.0047C10.8875 34.3654 10.7442 34.7113 10.4892 34.9663C10.2342 35.2213 9.88828 35.3646 9.52762 35.3646C9.16697 35.3646 8.82109 35.2213 8.56607 34.9663C8.31105 34.7113 8.16779 34.3654 8.16779 34.0047L34.0047 10.8875Z" fill="#38497D" stroke="#FBFBFB" stroke-width="0.3"/>
<path d="M57.2717 34.0046V34.0044C57.2717 33.8455 57.3029 33.6882 57.3637 33.5414C57.4245 33.3946 57.5136 33.2612 57.6259 33.1488C57.7383 33.0365 57.8717 32.9474 58.0185 32.8866L57.9612 32.7482L58.0185 32.8866C58.1653 32.8258 58.3226 32.7945 58.4815 32.7946L58.4816 32.7946C58.6405 32.7946 58.7978 32.8258 58.9446 32.8866C59.0914 32.9474 59.2248 33.0365 59.3371 33.1488C59.4495 33.2612 59.5386 33.3946 59.5994 33.5414C59.6601 33.6881 59.6914 33.8454 59.6914 34.0043C59.6836 40.8145 56.9748 47.3437 52.1593 52.1593C47.3437 56.9748 40.8145 59.6836 34.0043 59.6914C33.6835 59.6913 33.3758 59.5639 33.1489 59.337C32.9221 59.1101 32.7946 58.8024 32.7946 58.4815C32.7946 58.1607 32.9221 57.8529 33.1489 57.6261C33.3758 57.3992 33.6836 57.2717 34.0044 57.2717H34.0046C40.1733 57.2648 46.0874 54.8113 50.4493 50.4493C54.8113 46.0874 57.2648 40.1733 57.2717 34.0046Z" fill="#38497D" stroke="#FBFBFB" stroke-width="0.3"/>
</g>
<defs>
<clipPath id="clip0_107_8352">
<rect width="70" height="67" fill="white"/>
</clipPath>
</defs>
</svg>
