<svg width="24" height="24" viewBox="0 0 24 24" fill="none" xmlns="http://www.w3.org/2000/svg">
<path d="M13.7299 3.51063L15.4899 7.03063C15.7299 7.52063 16.3699 7.99063 16.9099 8.08063L20.0999 8.61062C22.1399 8.95062 22.6199 10.4306 21.1499 11.8906L18.6699 14.3706C18.2499 14.7906 18.0199 15.6006 18.1499 16.1806L18.8599 19.2506C19.4199 21.6806 18.1299 22.6206 15.9799 21.3506L12.9899 19.5806C12.4499 19.2606 11.5599 19.2606 11.0099 19.5806L8.01991 21.3506C5.87991 22.6206 4.57991 21.6706 5.13991 19.2506L5.84991 16.1806C5.97991 15.6006 5.74991 14.7906 5.32991 14.3706L2.84991 11.8906C1.38991 10.4306 1.85991 8.95062 3.89991 8.61062L7.08991 8.08063C7.61991 7.99063 8.25991 7.52063 8.49991 7.03063L10.2599 3.51063C11.2199 1.60063 12.7799 1.60063 13.7299 3.51063Z" fill="#F0A500" stroke="#F0A500" stroke-width="1.5" stroke-linecap="round" stroke-linejoin="round"/>
</svg>
