<svg width="52" height="64" viewBox="0 0 52 64" fill="none" xmlns="http://www.w3.org/2000/svg">
<rect x="17" y="5" width="18" height="6" fill="#F0A500"/>
<path d="M25.7251 16.7627H38.2999C38.4829 16.7627 38.6584 16.69 38.7878 16.5606C38.9172 16.4313 38.9899 16.2558 38.9899 16.0728C38.9899 15.8898 38.9172 15.7143 38.7878 15.5849C38.6584 15.4555 38.4829 15.3828 38.2999 15.3828H25.7251C25.5421 15.3828 25.3666 15.4555 25.2372 15.5849C25.1078 15.7143 25.0352 15.8898 25.0352 16.0728C25.0352 16.2558 25.1078 16.4313 25.2372 16.5606C25.3666 16.69 25.5421 16.7627 25.7251 16.7627Z" fill="#38497D"/>
<path d="M25.7251 19.5205H28.7905C28.9735 19.5205 29.149 19.4478 29.2784 19.3185C29.4077 19.1891 29.4804 19.0136 29.4804 18.8306C29.4804 18.6476 29.4077 18.4721 29.2784 18.3427C29.149 18.2133 28.9735 18.1406 28.7905 18.1406H25.7251C25.5421 18.1406 25.3666 18.2133 25.2372 18.3427C25.1078 18.4721 25.0352 18.6476 25.0352 18.8306C25.0352 19.0136 25.1078 19.1891 25.2372 19.3185C25.3666 19.4478 25.5421 19.5205 25.7251 19.5205Z" fill="#38497D"/>
<path d="M25.69 25.3799H38.2648C38.4478 25.3799 38.6233 25.3072 38.7527 25.1778C38.882 25.0484 38.9547 24.8729 38.9547 24.69C38.9547 24.507 38.882 24.3315 38.7527 24.2021C38.6233 24.0727 38.4478 24 38.2648 24H25.69C25.507 24 25.3315 24.0727 25.2021 24.2021C25.0727 24.3315 25 24.507 25 24.69C25 24.8729 25.0727 25.0484 25.2021 25.1778C25.3315 25.3072 25.507 25.3799 25.69 25.3799Z" fill="#38497D"/>
<path d="M25.69 28.2549H28.7553C28.9383 28.2549 29.1138 28.1822 29.2432 28.0528C29.3726 27.9234 29.4453 27.7479 29.4453 27.565C29.4453 27.382 29.3726 27.2065 29.2432 27.0771C29.1138 26.9477 28.9383 26.875 28.7553 26.875H25.69C25.507 26.875 25.3315 26.9477 25.2021 27.0771C25.0727 27.2065 25 27.382 25 27.565C25 27.7479 25.0727 27.9234 25.2021 28.0528C25.3315 28.1822 25.507 28.2549 25.69 28.2549Z" fill="#38497D"/>
<path d="M13.69 35.3799H38.2648C38.4478 35.3799 38.6233 35.3072 38.7527 35.1778C38.882 35.0484 38.9547 34.8729 38.9547 34.69C38.9547 34.507 38.882 34.3315 38.7527 34.2021C38.6233 34.0727 38.4478 34 38.2648 34H13.69C13.507 34 13.3315 34.0727 13.2021 34.2021C13.0727 34.3315 13 34.507 13 34.69C13 34.8729 13.0727 35.0484 13.2021 35.1778C13.3315 35.3072 13.507 35.3799 13.69 35.3799Z" fill="#38497D"/>
<path d="M13.69 39.3799H38.2648C38.4478 39.3799 38.6233 39.3072 38.7527 39.1778C38.882 39.0484 38.9547 38.8729 38.9547 38.69C38.9547 38.507 38.882 38.3315 38.7527 38.2021C38.6233 38.0727 38.4478 38 38.2648 38H13.69C13.507 38 13.3315 38.0727 13.2021 38.2021C13.0727 38.3315 13 38.507 13 38.69C13 38.8729 13.0727 39.0484 13.2021 39.1778C13.3315 39.3072 13.507 39.3799 13.69 39.3799Z" fill="#38497D"/>
<path d="M13.69 43.3799H28.7553C28.9383 43.3799 29.1138 43.3072 29.2432 43.1778C29.3726 43.0484 29.4453 42.8729 29.4453 42.69C29.4453 42.507 29.3726 42.3315 29.2432 42.2021C29.1138 42.0727 28.9383 42 28.7553 42H13.69C13.507 42 13.3315 42.0727 13.2021 42.2021C13.0727 42.3315 13 42.507 13 42.69C13 42.8729 13.0727 43.0484 13.2021 43.1778C13.3315 43.3072 13.507 43.3799 13.69 43.3799Z" fill="#38497D"/>
<path d="M13.69 47.3799H28.7553C28.9383 47.3799 29.1138 47.3072 29.2432 47.1778C29.3726 47.0484 29.4453 46.8729 29.4453 46.69C29.4453 46.507 29.3726 46.3315 29.2432 46.2021C29.1138 46.0727 28.9383 46 28.7553 46H13.69C13.507 46 13.3315 46.0727 13.2021 46.2021C13.0727 46.3315 13 46.507 13 46.69C13 46.8729 13.0727 47.0484 13.2021 47.1778C13.3315 47.3072 13.507 47.3799 13.69 47.3799Z" fill="#38497D"/>
<path d="M7.13227 60.3465H45.3249C46.4216 60.345 47.4729 59.9081 48.2478 59.1319C49.0226 58.3557 49.4576 57.3036 49.4571 56.2068V9.82336C49.4566 9.28245 49.3491 8.74699 49.1408 8.24779C48.9325 7.74858 48.6276 7.2955 48.2435 6.91459C47.8595 6.53368 47.4039 6.23248 46.903 6.0283C46.4021 5.82413 45.8658 5.72101 45.3249 5.72489H36.3479V4.68996C36.3498 4.60024 36.3337 4.51106 36.3007 4.4276C36.2678 4.34415 36.2185 4.2681 36.1558 4.20388C36.0931 4.13966 36.0183 4.08856 35.9357 4.05356C35.8531 4.01855 35.7643 4.00035 35.6745 4H16.7826C16.6929 4.00035 16.6041 4.01855 16.5215 4.05356C16.4388 4.08856 16.364 4.13966 16.3013 4.20388C16.2386 4.2681 16.1894 4.34415 16.1564 4.4276C16.1234 4.51106 16.1074 4.60024 16.1092 4.68996V5.72489H7.13227C6.59137 5.72101 6.05505 5.82413 5.55415 6.0283C5.05326 6.23248 4.59768 6.53368 4.21363 6.91459C3.82958 7.2955 3.52464 7.74858 3.31636 8.24779C3.10808 8.74699 3.00056 9.28245 3 9.82336V56.2068C2.99954 57.3036 3.43452 58.3557 4.20936 59.1319C4.98419 59.9081 6.0355 60.345 7.13227 60.3465ZM17.4891 5.37992H34.968V11.0146H17.4891V5.37992ZM16.7826 12.3945H35.6745C35.7625 12.3978 35.8503 12.3831 35.9324 12.3515C36.0146 12.3198 36.0894 12.2717 36.1524 12.2102C36.2154 12.1487 36.2652 12.075 36.2988 11.9936C36.3325 11.9122 36.3492 11.8249 36.3479 11.7368V10.8996H43.0175V54.1369H9.32461V10.8996H16.1092V11.7368C16.108 11.8249 16.1247 11.9122 16.1583 11.9936C16.1919 12.075 16.2417 12.1487 16.3047 12.2102C16.3677 12.2717 16.4426 12.3198 16.5247 12.3515C16.6069 12.3831 16.6946 12.3978 16.7826 12.3945ZM4.37992 9.82336C4.38029 9.4636 4.45198 9.10749 4.59085 8.77562C4.72972 8.44375 4.93301 8.14271 5.18896 7.8899C5.44491 7.63709 5.74845 7.43754 6.08201 7.30278C6.41557 7.16802 6.77254 7.10074 7.13227 7.10481H16.1092V9.51966H8.69215C8.31118 9.51966 7.9447 9.82865 7.9447 10.2096V54.8599C7.9447 55.241 8.31118 55.5168 8.69215 55.5168H43.765C43.8508 55.5194 43.9363 55.504 44.0158 55.4715C44.0953 55.4391 44.1672 55.3903 44.2268 55.3285C44.2863 55.2666 44.3323 55.1929 44.3617 55.1122C44.3911 55.0315 44.4033 54.9456 44.3975 54.8599V10.2096C44.3975 9.82865 44.146 9.51966 43.765 9.51966H36.3479V7.10481H45.3249C45.6846 7.10074 46.0416 7.16802 46.3751 7.30278C46.7087 7.43754 47.0122 7.63709 47.2682 7.8899C47.5241 8.14271 47.7274 8.44375 47.8663 8.77562C48.0052 9.10749 48.0769 9.4636 48.0772 9.82336V56.2068C48.0781 56.9377 47.7887 57.6391 47.2725 58.1566C46.7564 58.6742 46.0558 58.9655 45.3249 58.9666H7.13227C6.40134 58.9655 5.70077 58.6742 5.18463 58.1566C4.66849 57.6391 4.37903 56.9377 4.37992 56.2068V9.82336Z" fill="#38497D"/>
<path d="M5.87746 28.7452C6.06045 28.7452 6.23594 28.6725 6.36533 28.5431C6.49472 28.4137 6.56742 28.2382 6.56742 28.0552V16.354C6.56742 16.171 6.49472 15.9955 6.36533 15.8661C6.23594 15.7368 6.06045 15.6641 5.87746 15.6641C5.69447 15.6641 5.51898 15.7368 5.38958 15.8661C5.26019 15.9955 5.1875 16.171 5.1875 16.354V28.0552C5.1875 28.2382 5.26019 28.4137 5.38958 28.5431C5.51898 28.6725 5.69447 28.7452 5.87746 28.7452Z" fill="#38497D"/>
<path d="M5.87746 14.8947C6.06045 14.8947 6.23594 14.822 6.36533 14.6926C6.49472 14.5632 6.56742 14.3877 6.56742 14.2047V13.6431C6.56742 13.4601 6.49472 13.2846 6.36533 13.1552C6.23594 13.0258 6.06045 12.9531 5.87746 12.9531C5.69447 12.9531 5.51898 13.0258 5.38958 13.1552C5.26019 13.2846 5.1875 13.4601 5.1875 13.6431V14.2047C5.1875 14.3877 5.26019 14.5632 5.38958 14.6926C5.51898 14.822 5.69447 14.8947 5.87746 14.8947Z" fill="#38497D"/>
<path d="M13.9749 26.0185C14.5263 26.3173 15.1022 26.5733 15.697 26.784L16.1941 26.9765C16.2373 26.9949 16.2819 27.0076 16.3236 27.0218C16.5335 27.0883 16.8208 27.1788 16.8922 27.6005C16.9021 27.6665 16.9262 27.7299 16.9631 27.7866C17 27.8434 17.0488 27.8922 17.1065 27.9302C17.1542 27.9614 17.2082 27.9829 17.2651 27.9931C17.322 28.0034 17.3806 28.0022 17.437 27.9896C17.7153 27.9288 18.0323 27.725 18.1053 27.5538C18.2869 27.1519 18.5607 27.0614 18.8495 26.9666L19.2514 26.8406C19.7238 26.7139 20.1796 26.5368 20.6103 26.3128C21.4676 25.8204 21.9737 25.0634 21.999 24.2342C22.0243 23.405 21.5688 22.6282 20.7487 22.0919C20.3439 21.8468 19.9153 21.6392 19.4687 21.4722C19.2112 21.366 18.9447 21.2557 18.6887 21.1326C18.6694 21.1241 18.2124 20.9005 18.2035 20.592C18.1812 19.7954 18.1827 19.0087 18.1856 18.1752C18.1856 17.922 18.1856 17.6658 18.1856 17.4069V17.1098L18.4833 17.206C18.6039 17.2456 18.723 17.281 18.842 17.3163C19.6651 17.564 20.5165 17.8201 20.7085 18.9323C20.7636 19.2549 21.1089 19.3568 21.4051 19.3101C21.5612 19.3003 21.7075 19.2342 21.814 19.1253C21.9205 19.0164 21.9793 18.873 21.9782 18.7243C22.0109 18.0309 21.7013 17.4508 21.0018 16.8961C20.3647 16.3924 19.5699 16.0853 18.4283 15.9056L18.2943 15.8844L18.2526 15.7613C18.2323 15.6994 18.2154 15.6366 18.202 15.5731C18.1924 15.5109 18.1733 15.4504 18.1455 15.3934L18.1082 15.3608C17.9386 15.2122 17.7064 15.0099 17.5426 15C17.3451 15.0071 17.1556 15.0762 17.0038 15.1967C16.855 15.8179 16.3891 15.924 16.011 16.0103C15.9232 16.0301 15.8384 16.0485 15.758 16.074C15.3129 16.2008 14.8836 16.3735 14.478 16.589C13.57 17.0928 13.0327 17.8625 13.0014 18.7115C12.9702 19.5605 13.448 20.3458 14.3023 20.8977C14.6863 21.1274 15.0925 21.3217 15.5154 21.4778C15.7655 21.5783 16.0244 21.683 16.273 21.8019C16.398 21.8613 16.8044 22.0778 16.8133 22.3679C16.8401 23.1489 16.8386 23.9144 16.8356 24.7224C16.8356 24.97 16.8356 25.2191 16.8356 25.4695V25.6959L16.599 25.6803C15.3963 25.6068 14.6819 25.1144 14.3485 24.1394C14.2413 23.8253 14.0151 23.6541 13.7144 23.6541C13.6528 23.6547 13.5915 23.6613 13.5313 23.6739C13.2009 23.7418 12.994 24.0432 13.0253 24.4083C13.0788 25.1186 13.4197 25.6959 13.9749 26.0185ZM18.208 22.1981L18.5444 22.3877C18.7334 22.4924 18.9194 22.5886 19.0995 22.6806C19.4862 22.863 19.8523 23.0825 20.192 23.3357C20.3383 23.4394 20.4568 23.5744 20.538 23.7298C20.6192 23.8852 20.6608 24.0565 20.6594 24.23C20.6408 24.4076 20.5782 24.5785 20.4768 24.7288C20.3754 24.8791 20.238 25.0044 20.0759 25.0945C19.7538 25.2882 19.4129 25.4521 19.0579 25.5841C18.8867 25.6549 18.7096 25.7256 18.5265 25.8091L18.208 25.9506V22.1981ZM16.8297 20.5906L16.532 20.5029C15.8592 20.3006 15.2147 20.0784 14.7265 19.5747C14.6007 19.4554 14.5038 19.3114 14.4429 19.1527C14.3819 18.9941 14.3583 18.8246 14.3738 18.6563C14.3964 18.5005 14.4548 18.3512 14.5449 18.2192C14.6349 18.0872 14.7543 17.9755 14.8947 17.8922C15.2255 17.6928 15.5742 17.5214 15.9366 17.38C16.1137 17.305 16.2998 17.2258 16.4963 17.1352L16.8163 16.9937L16.8297 20.5906Z" fill="#38497D"/>
<path d="M31.3315 46.0075L33.2738 47.7391C33.4689 47.9131 33.7241 48.0064 33.9868 47.9997C34.2494 47.9929 34.4994 47.8867 34.6851 47.703L38.6997 43.7312C38.892 43.541 39 43.2831 39 43.0142C39 42.7452 38.892 42.4873 38.6998 42.2971C38.5075 42.1069 38.2467 42 37.9748 42C37.7029 42 37.4421 42.1068 37.2499 42.297L33.9236 45.5873L32.7043 44.5002C32.5018 44.3232 32.237 44.2324 31.9672 44.2475C31.6974 44.2626 31.4446 44.3825 31.2637 44.581C31.0828 44.7795 30.9884 45.0406 31.0011 45.3076C31.0138 45.5746 31.1326 45.8258 31.3315 46.0066V46.0075Z" fill="#F0A500"/>
</svg>
