<svg width="50" height="49" viewBox="0 0 50 49" fill="none" xmlns="http://www.w3.org/2000/svg">
<path d="M23 9.99919H12.4992C12.1659 9.49919 11.1003 7.50036 13.5003 5.50036C15.9003 3.50036 21.3333 5.16667 23 6V9.99919Z" fill="#F0A500"/>
<path fill-rule="evenodd" clip-rule="evenodd" d="M28 32L25.5 31.5L25.2114 41.0232L10.5908 41.4532L10 32H8V48H11L10.75 44H25.1212L25 48H28V32Z" fill="#F0A500"/>
<path d="M35 11.5L37.5 10V13.5L40 15L41.5 13.5L42 10L44.5 11.5V16L42.5 18L42 21.5H37V18L35 16.5V11.5Z" fill="#F0A500"/>
<mask id="path-4-inside-1_119_8650" fill="white">
<path d="M29.1653 31.5522L21.8226 29.5943V25.616C24.2502 24.2631 25.9305 21.7249 26.0745 18.7894H26.3248C27.7571 18.7894 28.9223 17.6242 28.9223 16.1921V15.4345C28.9223 14.7716 28.6723 14.1662 28.262 13.7067C28.3821 13.5223 28.4525 13.3028 28.4525 13.0669V11.1728C28.4525 10.524 27.9246 9.99619 27.2758 9.99619H27.0318V6.54292C27.0318 4.42173 25.5854 2.61873 23.5145 2.15861L18.7787 1.10617C18.1414 0.964609 17.4675 0.964609 16.83 1.10617L12.0945 2.15851C10.0235 2.61864 8.57715 4.42154 8.57715 6.54282V9.99619H8.33312C7.68418 9.99619 7.15627 10.524 7.15627 11.1728V13.0669C7.15627 13.3028 7.22677 13.5223 7.34687 13.7067C6.93662 14.1661 6.68659 14.7715 6.68659 15.4344V16.192C6.68659 17.6242 7.8518 18.7893 9.28402 18.7893H9.53434C9.67833 21.7248 11.3587 24.2629 13.7862 25.6159V29.5942L6.44368 31.5522C3.23856 32.4067 1 35.3202 1 38.637V44.8916C1 45.28 1.31481 45.5947 1.70322 45.5947C2.09162 45.5947 2.40644 45.28 2.40644 44.8916V38.637C2.40644 35.9563 4.21562 33.6016 6.80612 32.911L6.87606 32.8924V47.5938H2.40644V45.1762C2.40644 44.7878 2.09162 44.4731 1.70322 44.4731C1.31481 44.4731 1 44.7879 1 45.1762V48.2969C1 48.6853 1.31481 49 1.70322 49H33.9057C34.2941 49 34.6089 48.6853 34.6089 48.2969V45.1762C34.6089 44.7878 34.2941 44.4731 33.9057 44.4731C33.5172 44.4731 33.2024 44.7878 33.2024 45.1762V47.5938H28.7328V32.8924L28.8028 32.911C31.3932 33.6017 33.2024 35.9563 33.2024 38.637V44.8916C33.2024 45.28 33.5172 45.5947 33.9057 45.5947C34.2941 45.5947 34.6089 45.28 34.6089 44.8916V38.637C34.6089 35.3202 32.3704 32.4067 29.1653 31.5522ZM11.1856 31.7433L12.4627 31.4027L13.4191 36.5864C13.4642 36.8311 13.6353 37.0338 13.8691 37.1193C13.9476 37.148 14.0294 37.162 14.1105 37.162C14.2708 37.162 14.4289 37.1073 14.5566 37.0025L17.8044 34.3379L21.0522 37.0025C21.1799 37.1073 21.338 37.162 21.4983 37.162C21.5795 37.162 21.6613 37.148 21.7397 37.1193C21.9734 37.0338 22.1445 36.8312 22.1897 36.5864L23.1461 31.4028L24.4232 31.7433V40.3962H11.1856V31.7433ZM14.2803 30.9181L16.7566 33.3785L14.586 35.1593L13.8258 31.0392L14.2803 30.9181ZM21.3285 30.9181L21.7831 31.0393L21.023 35.1593L18.8523 33.3785L21.3285 30.9181ZM27.5158 16.1921C27.5158 16.8488 26.9816 17.383 26.3248 17.383H26.0847V14.2435H26.3248C26.9815 14.2435 27.5158 14.7777 27.5158 15.4344V16.1921ZM9.98349 6.54292C9.98349 5.08586 10.977 3.84751 12.3995 3.53129L17.135 2.47895C17.573 2.38173 18.036 2.38173 18.4737 2.47895L23.2094 3.53129C24.632 3.84742 25.6255 5.08576 25.6255 6.54292V9.99629H24.0668V7.78791C24.0668 6.3046 23.0599 5.02482 21.6182 4.67551L18.6325 3.95204C18.0908 3.82079 17.5181 3.82079 16.9764 3.95204L13.9907 4.67551C12.549 5.02482 11.5422 6.3046 11.5422 7.78791V9.99619H9.98349V6.54292ZM12.9486 9.99619V7.78791C12.9486 6.95598 13.5134 6.23814 14.322 6.04229L17.3077 5.31882C17.6327 5.24007 17.9763 5.24007 18.3014 5.31882L21.2871 6.04229C22.0957 6.23823 22.6604 6.95598 22.6604 7.78791V9.99619H12.9486ZM8.56271 11.4024H27.0461V12.8373H8.56271V11.4024ZM8.09302 16.1921V15.4345C8.09302 14.7778 8.6273 14.2436 9.28412 14.2436H9.52421V17.3831H9.28412C8.6273 17.383 8.09302 16.8488 8.09302 16.1921ZM10.9306 18.379V14.2436H24.6783V18.379C24.6783 22.1689 21.5947 25.2522 17.8045 25.2522C14.0143 25.2522 10.9306 22.1689 10.9306 18.379ZM17.8045 26.6584C18.7167 26.6584 19.5948 26.5097 20.4163 26.236V29.842L17.8045 32.437L15.1927 29.842V26.236C16.0141 26.5098 16.8922 26.6584 17.8045 26.6584ZM23.6365 47.5938H11.9725V44.6436H23.6365V47.5938ZM27.3265 47.5938H25.0429V43.9405C25.0429 43.5521 24.7281 43.2374 24.3397 43.2374H11.2693C10.8809 43.2374 10.5661 43.5521 10.5661 43.9405V47.5938H8.2824V32.5174L9.77912 32.1183V41.0993C9.77912 41.4877 10.0939 41.8024 10.4823 41.8024H25.1265C25.5149 41.8024 25.8298 41.4877 25.8298 41.0993V32.1183L27.3265 32.5174V47.5938Z"/>
</mask>
<path d="M29.1653 31.5522L21.8226 29.5943V25.616C24.2502 24.2631 25.9305 21.7249 26.0745 18.7894H26.3248C27.7571 18.7894 28.9223 17.6242 28.9223 16.1921V15.4345C28.9223 14.7716 28.6723 14.1662 28.262 13.7067C28.3821 13.5223 28.4525 13.3028 28.4525 13.0669V11.1728C28.4525 10.524 27.9246 9.99619 27.2758 9.99619H27.0318V6.54292C27.0318 4.42173 25.5854 2.61873 23.5145 2.15861L18.7787 1.10617C18.1414 0.964609 17.4675 0.964609 16.83 1.10617L12.0945 2.15851C10.0235 2.61864 8.57715 4.42154 8.57715 6.54282V9.99619H8.33312C7.68418 9.99619 7.15627 10.524 7.15627 11.1728V13.0669C7.15627 13.3028 7.22677 13.5223 7.34687 13.7067C6.93662 14.1661 6.68659 14.7715 6.68659 15.4344V16.192C6.68659 17.6242 7.8518 18.7893 9.28402 18.7893H9.53434C9.67833 21.7248 11.3587 24.2629 13.7862 25.6159V29.5942L6.44368 31.5522C3.23856 32.4067 1 35.3202 1 38.637V44.8916C1 45.28 1.31481 45.5947 1.70322 45.5947C2.09162 45.5947 2.40644 45.28 2.40644 44.8916V38.637C2.40644 35.9563 4.21562 33.6016 6.80612 32.911L6.87606 32.8924V47.5938H2.40644V45.1762C2.40644 44.7878 2.09162 44.4731 1.70322 44.4731C1.31481 44.4731 1 44.7879 1 45.1762V48.2969C1 48.6853 1.31481 49 1.70322 49H33.9057C34.2941 49 34.6089 48.6853 34.6089 48.2969V45.1762C34.6089 44.7878 34.2941 44.4731 33.9057 44.4731C33.5172 44.4731 33.2024 44.7878 33.2024 45.1762V47.5938H28.7328V32.8924L28.8028 32.911C31.3932 33.6017 33.2024 35.9563 33.2024 38.637V44.8916C33.2024 45.28 33.5172 45.5947 33.9057 45.5947C34.2941 45.5947 34.6089 45.28 34.6089 44.8916V38.637C34.6089 35.3202 32.3704 32.4067 29.1653 31.5522ZM11.1856 31.7433L12.4627 31.4027L13.4191 36.5864C13.4642 36.8311 13.6353 37.0338 13.8691 37.1193C13.9476 37.148 14.0294 37.162 14.1105 37.162C14.2708 37.162 14.4289 37.1073 14.5566 37.0025L17.8044 34.3379L21.0522 37.0025C21.1799 37.1073 21.338 37.162 21.4983 37.162C21.5795 37.162 21.6613 37.148 21.7397 37.1193C21.9734 37.0338 22.1445 36.8312 22.1897 36.5864L23.1461 31.4028L24.4232 31.7433V40.3962H11.1856V31.7433ZM14.2803 30.9181L16.7566 33.3785L14.586 35.1593L13.8258 31.0392L14.2803 30.9181ZM21.3285 30.9181L21.7831 31.0393L21.023 35.1593L18.8523 33.3785L21.3285 30.9181ZM27.5158 16.1921C27.5158 16.8488 26.9816 17.383 26.3248 17.383H26.0847V14.2435H26.3248C26.9815 14.2435 27.5158 14.7777 27.5158 15.4344V16.1921ZM9.98349 6.54292C9.98349 5.08586 10.977 3.84751 12.3995 3.53129L17.135 2.47895C17.573 2.38173 18.036 2.38173 18.4737 2.47895L23.2094 3.53129C24.632 3.84742 25.6255 5.08576 25.6255 6.54292V9.99629H24.0668V7.78791C24.0668 6.3046 23.0599 5.02482 21.6182 4.67551L18.6325 3.95204C18.0908 3.82079 17.5181 3.82079 16.9764 3.95204L13.9907 4.67551C12.549 5.02482 11.5422 6.3046 11.5422 7.78791V9.99619H9.98349V6.54292ZM12.9486 9.99619V7.78791C12.9486 6.95598 13.5134 6.23814 14.322 6.04229L17.3077 5.31882C17.6327 5.24007 17.9763 5.24007 18.3014 5.31882L21.2871 6.04229C22.0957 6.23823 22.6604 6.95598 22.6604 7.78791V9.99619H12.9486ZM8.56271 11.4024H27.0461V12.8373H8.56271V11.4024ZM8.09302 16.1921V15.4345C8.09302 14.7778 8.6273 14.2436 9.28412 14.2436H9.52421V17.3831H9.28412C8.6273 17.383 8.09302 16.8488 8.09302 16.1921ZM10.9306 18.379V14.2436H24.6783V18.379C24.6783 22.1689 21.5947 25.2522 17.8045 25.2522C14.0143 25.2522 10.9306 22.1689 10.9306 18.379ZM17.8045 26.6584C18.7167 26.6584 19.5948 26.5097 20.4163 26.236V29.842L17.8045 32.437L15.1927 29.842V26.236C16.0141 26.5098 16.8922 26.6584 17.8045 26.6584ZM23.6365 47.5938H11.9725V44.6436H23.6365V47.5938ZM27.3265 47.5938H25.0429V43.9405C25.0429 43.5521 24.7281 43.2374 24.3397 43.2374H11.2693C10.8809 43.2374 10.5661 43.5521 10.5661 43.9405V47.5938H8.2824V32.5174L9.77912 32.1183V41.0993C9.77912 41.4877 10.0939 41.8024 10.4823 41.8024H25.1265C25.5149 41.8024 25.8298 41.4877 25.8298 41.0993V32.1183L27.3265 32.5174V47.5938Z" fill="#38497D" stroke="white" stroke-width="0.4" mask="url(#path-4-inside-1_119_8650)"/>
<path d="M38.1735 23.7647L38.1735 23.7647C38.2802 23.6802 38.412 23.6344 38.548 23.6344H46.2498C47.0467 23.6344 47.6949 22.9863 47.6949 22.1895V8.67211C47.6949 7.87532 47.0467 7.22717 46.2498 7.22717H45.6357C45.8029 7.08001 45.9084 6.86438 45.9084 6.62405C45.9084 6.38371 45.8029 6.16809 45.6357 6.02092H46.2498C47.7118 6.02092 48.9013 7.21029 48.9014 8.67211V22.1895C48.9014 23.6513 47.7119 24.8407 46.2499 24.8407H38.7928H38.758L38.7307 24.8623L35.0415 27.7825L35.0415 27.7825C34.9329 27.8685 34.8005 27.9128 34.667 27.9128C34.5776 27.9128 34.4878 27.893 34.4044 27.8525L34.4043 27.8525C34.1962 27.7518 34.0639 27.5409 34.0639 27.3096V24.9407V24.8407H33.9639H33.1086C31.6466 24.8407 30.4571 23.6513 30.4571 22.1895V8.67211C30.4571 7.21029 31.6466 6.02092 33.1086 6.02092H44.8606C44.6934 6.16809 44.5879 6.38371 44.5879 6.62405C44.5879 6.86438 44.6934 7.08001 44.8606 7.22717H33.1086C32.3116 7.22717 31.6635 7.87531 31.6635 8.67211V22.1895C31.6635 22.9863 32.3116 23.6344 33.1086 23.6344H34.667C35.0002 23.6344 35.2702 23.9044 35.2702 24.2375V25.8562V26.0629L35.4323 25.9346L38.1735 23.7647ZM45.2481 7.21015C44.984 7.146 44.7879 6.90797 44.7879 6.62405C44.7879 6.34013 44.984 6.1021 45.2481 6.03794C45.5123 6.1021 45.7084 6.34013 45.7084 6.62405C45.7084 6.90797 45.5123 7.146 45.2481 7.21015Z" fill="#38497D" stroke="white" stroke-width="0.2"/>
<path d="M35.4519 16.1109V16.0636V11.6252V11.5685L35.5006 11.5394L36.9782 10.6556L37.1295 10.5651V10.7414V13.7053C37.1295 13.8894 37.2137 14.0635 37.3581 14.1779L35.4519 16.1109ZM35.4519 16.1109L35.4885 16.1409L37.3705 17.685L37.3706 17.685C37.5102 17.7995 37.5911 17.9706 37.5911 18.1513V20.6997V20.7997H37.6911H41.6671H41.7671V20.6997V18.1513C41.7671 17.9706 41.8481 17.7995 41.9877 17.685L41.9877 17.685L43.8698 16.141L43.9063 16.111V16.0637V11.6253V11.5686L43.8577 11.5395L42.3801 10.6557L42.2287 10.5652V10.7415V13.7053C42.2287 13.8894 42.1445 14.0635 42.0002 14.1779C42.0002 14.178 42.0002 14.178 42.0002 14.178L40.0538 15.7206C39.8345 15.8944 39.524 15.8945 39.3045 15.7206C39.3045 15.7206 39.3045 15.7206 39.3045 15.7206L37.3581 14.178L35.4519 16.1109ZM43.0102 18.4066L42.9736 18.4366V18.4839V21.4028C42.9736 21.736 42.7036 22.0059 42.3704 22.0059H36.9879C36.6548 22.0059 36.3847 21.7359 36.3846 21.4027C36.3846 21.4027 36.3846 21.4027 36.3846 21.4027V18.4838V18.4365L36.348 18.4065L34.466 16.8625L34.4659 16.8625C34.3263 16.748 34.2454 16.5769 34.2454 16.3963V11.2266C34.2454 11.0145 34.3568 10.8179 34.5389 10.7089L37.4229 8.98395C37.4229 8.98395 37.4229 8.98395 37.4229 8.98395C37.6093 8.87252 37.8412 8.86991 38.0302 8.97685C38.2191 9.08407 38.3359 9.28449 38.3359 9.5016V13.3656V13.4139L38.3737 13.444L39.617 14.4293L39.6791 14.4785L39.7412 14.4293L40.9843 13.444L41.0222 13.4139V13.3656V9.50169C41.0222 9.2845 41.1389 9.08413 41.3278 8.977C41.5169 8.86999 41.7488 8.8726 41.9351 8.98405L44.8191 10.709C45.0012 10.818 45.1127 11.0146 45.1127 11.2267V16.3964C45.1127 16.577 45.0318 16.7481 44.8921 16.8626L44.8921 16.8626L43.0102 18.4066Z" fill="#38497D" stroke="white" stroke-width="0.2"/>
</svg>
