<svg width="150" height="155" viewBox="0 0 150 155" fill="none" xmlns="http://www.w3.org/2000/svg">
<g filter="url(#filter0_b_107_8641)">
<circle cx="74" cy="77" r="74" fill="#F0A500" fill-opacity="0.85"/>
</g>
<g filter="url(#filter1_i_107_8641)">
<path d="M81.3486 123.518C93.5767 121.895 104.877 114.886 112.352 104.292C119.827 93.6972 122.61 80.8209 120.098 68.8002C114.864 43.8082 92.8116 28.0999 67.6513 31.448C46.9868 34.1646 30.0259 52.0529 28.191 72.9905C26.1598 96.2575 40.5003 116.645 63.0742 122.567C64.4961 122.941 65.9654 123.246 67.3872 123.572L69.2966 124H79.6695L80.008 123.878C80.4414 123.712 80.8906 123.591 81.3486 123.518ZM74.5304 117.895H74.4763C63.9725 117.621 53.9905 113.244 46.6576 105.696C39.3248 98.1478 35.221 88.0254 35.221 77.4863C35.221 66.9472 39.3248 56.8249 46.6576 49.2766C53.9905 41.7284 63.9725 37.3512 74.4763 37.078H74.5507C85.0545 37.3512 95.0365 41.7284 102.369 49.2766C109.702 56.8249 113.806 66.9472 113.806 77.4863C113.806 88.0254 109.702 98.1478 102.369 105.696C95.0365 113.244 85.0545 117.621 74.5507 117.895H74.5304Z" fill="white" fill-opacity="0.65"/>
</g>
<path d="M94.1517 61.5979C93.682 61.9239 93.2531 62.306 92.8743 62.7358C92.7452 62.8797 92.6093 63.0169 92.4734 63.1539C85.3798 70.2966 78.293 77.446 70.9345 84.8697L65.0979 90.7373L64.4184 89.8051C64.1874 89.5035 63.9768 89.2087 63.7729 88.9277C63.4398 88.4441 63.0719 87.9859 62.6722 87.5567C59.6622 84.4858 56.625 81.4355 53.5946 78.392L50.8224 75.6021C49.8508 74.6219 49.0082 74.1558 48.1045 74.1558C47.6899 74.1624 47.2809 74.2534 46.9019 74.4231C46.4396 74.5893 46.0258 74.8695 45.6982 75.2383C45.3707 75.607 45.1398 76.0526 45.0266 76.5344C44.9533 77.1574 45.032 77.789 45.2558 78.3744C45.4796 78.9598 45.8418 79.4811 46.3108 79.8932C50.605 84.2939 55.0215 88.7289 59.2885 93.02L62.2781 96.0223C64.9144 98.6751 66.0627 98.6614 68.7398 95.9675C78.2024 86.4257 87.6628 76.8794 97.1209 67.3285L97.3995 67.0543C97.8015 66.6947 98.1535 66.282 98.4459 65.8273C99.302 64.3124 99.1661 63.0374 98.0382 61.9269C96.9103 60.8165 95.6261 60.6999 94.1517 61.5979Z" fill="white" fill-opacity="0.65"/>
<defs>
<filter id="filter0_b_107_8641" x="-15" y="-12" width="178" height="178" filterUnits="userSpaceOnUse" color-interpolation-filters="sRGB">
<feFlood flood-opacity="0" result="BackgroundImageFix"/>
<feGaussianBlur in="BackgroundImage" stdDeviation="7.5"/>
<feComposite in2="SourceAlpha" operator="in" result="effect1_backgroundBlur_107_8641"/>
<feBlend mode="normal" in="SourceGraphic" in2="effect1_backgroundBlur_107_8641" result="shape"/>
</filter>
<filter id="filter1_i_107_8641" x="28" y="31" width="93" height="94" filterUnits="userSpaceOnUse" color-interpolation-filters="sRGB">
<feFlood flood-opacity="0" result="BackgroundImageFix"/>
<feBlend mode="normal" in="SourceGraphic" in2="BackgroundImageFix" result="shape"/>
<feColorMatrix in="SourceAlpha" type="matrix" values="0 0 0 0 0 0 0 0 0 0 0 0 0 0 0 0 0 0 127 0" result="hardAlpha"/>
<feOffset dy="1"/>
<feGaussianBlur stdDeviation="0.5"/>
<feComposite in2="hardAlpha" operator="arithmetic" k2="-1" k3="1"/>
<feColorMatrix type="matrix" values="0 0 0 0 1 0 0 0 0 0.811067 0 0 0 0 0.395414 0 0 0 1 0"/>
<feBlend mode="normal" in2="shape" result="effect1_innerShadow_107_8641"/>
</filter>
</defs>
</svg>
