<svg width="43" height="44" viewBox="0 0 43 44" fill="none" xmlns="http://www.w3.org/2000/svg">
<g clip-path="url(#clip0_114_8557)">
<path d="M35.5 27.25H40.75V33.75H35.5C33.7051 33.75 32.25 32.2949 32.25 30.5C32.25 28.7051 33.7051 27.25 35.5 27.25Z" fill="#F0A500" stroke="white" stroke-width="0.5"/>
<path d="M32.825 27.4062C32.0375 28.175 31.5875 29.2812 31.7 30.4625C31.8688 32.4875 33.725 33.9687 35.75 33.9687H39.3125V36.2C39.3125 40.0812 36.1437 43.25 32.2625 43.25H10.7375C6.85625 43.25 3.6875 40.0812 3.6875 36.2V23.5813C3.6875 19.7 6.85625 16.5312 10.7375 16.5312H32.2625C36.1437 16.5312 39.3125 19.7 39.3125 23.5813V26.2813H35.525C34.475 26.2813 33.5188 26.6937 32.825 27.4062Z" stroke="#38497D" stroke-width="1.5" stroke-linecap="round" stroke-linejoin="round"/>
<path d="M3.6875 25.2688V16.7001C3.6875 14.4689 5.05625 12.4813 7.1375 11.6938L22.025 6.06877C24.35 5.18752 26.8438 6.91258 26.8438 9.40633V16.5313" stroke="#38497D" stroke-width="1.5" stroke-linecap="round" stroke-linejoin="round"/>
<path d="M41.2978 28.194V32.0566C41.2978 33.0879 40.4728 33.9316 39.4228 33.9691H35.7478C33.7228 33.9691 31.8665 32.4878 31.6978 30.4628C31.5853 29.2816 32.0353 28.1753 32.8228 27.4066C33.5165 26.6941 34.4728 26.2816 35.5228 26.2816H39.4228C40.4728 26.3191 41.2978 27.1628 41.2978 28.194Z" stroke="#38497D" stroke-width="1.5" stroke-linecap="round" stroke-linejoin="round"/>
<path d="M12.125 24.5H25.25" stroke="#38497D" stroke-width="1.5" stroke-linecap="round" stroke-linejoin="round"/>
</g>
<defs>
<clipPath id="clip0_114_8557">
<rect width="43" height="44" fill="white"/>
</clipPath>
</defs>
</svg>
