<svg width="82" height="80" viewBox="0 0 82 80" fill="none" xmlns="http://www.w3.org/2000/svg">
<rect x="15" y="32" width="50" height="27" fill="#F0A500"/>
<path d="M15.0001 20.671V28H19.5493V20.671C19.5453 19.7983 19.7091 18.9334 20.0312 18.1257C20.3534 17.318 20.8275 16.5834 21.4266 15.9638C22.0258 15.3443 22.738 14.8519 23.5228 14.515C24.3075 14.178 25.1493 14.003 26 14H21.4508C20.6001 14.003 19.7583 14.178 18.9736 14.515C18.1889 14.8519 17.4766 15.3443 16.8775 15.9638C16.2784 16.5834 15.8042 17.318 15.482 18.1257C15.1599 18.9334 14.9961 19.7983 15.0001 20.671Z" fill="#FED67E"/>
<path d="M19.5492 69.0461V64H15.0001V69.0461C14.9965 69.8263 15.1606 70.5995 15.4831 71.3214C15.8056 72.0432 16.2801 72.6995 16.8794 73.2527C17.4787 73.8058 18.191 74.2449 18.9754 74.5447C19.7599 74.8446 20.6011 74.9993 21.4508 75H26C25.1503 74.9993 24.3091 74.8446 23.5246 74.5447C22.7402 74.2449 22.0279 73.8058 21.4286 73.2527C20.8293 72.6995 20.3548 72.0432 20.0323 71.3214C19.7098 70.5995 19.5457 69.8263 19.5492 69.0461Z" fill="#FED67E"/>
<path d="M15 32H19V59H15V32Z" fill="#FED67E"/>
<path d="M23.3315 8.60229C23.3315 8.56852 23.3477 8.60229 23.3816 8.60229H25.9977V14.0827H27.7751V8.60229H30.4413V14.2308H32.2187V8.60229H35.0992C35.1331 8.60229 35.1811 8.56881 35.1811 8.60229V14.2308H36.9586V8.60229C36.9586 7.58841 36.1131 6.82485 35.0992 6.82485H23.3816C23.1441 6.81852 22.9077 6.8598 22.6864 6.94626C22.4652 7.03271 22.2634 7.16259 22.0931 7.32824C21.9228 7.49389 21.7873 7.69196 21.6948 7.91077C21.6022 8.12958 21.5544 8.3647 21.5541 8.60229V14.2308H23.3315V8.60229Z" fill="#38497D"/>
<path d="M14.8887 62.5189H66.1382V64.2963H14.8887V62.5189Z" fill="#38497D"/>
<path d="M14.8887 58.0742H66.1382V59.8516H14.8887V58.0742Z" fill="#38497D"/>
<path d="M14.8887 31.118H66.1382V32.8955H14.8887V31.118Z" fill="#38497D"/>
<path d="M14.8887 26.6733H66.1382V28.4508H14.8887V26.6733Z" fill="#38497D"/>
<path d="M21.1865 76H59.8134C60.7594 75.9983 61.6958 75.8098 62.5691 75.4452C63.4423 75.0806 64.2353 74.5471 64.9028 73.8752C65.5702 73.2032 66.0989 72.4061 66.4588 71.5292C66.8186 70.6524 67.0025 69.7131 67 68.765V8.01504C67.0029 7.3584 66.8766 6.70763 66.6283 6.09998C66.3799 5.49234 66.0144 4.93977 65.5527 4.47391C65.0909 4.00806 64.542 3.63808 63.9374 3.38516C63.3327 3.13225 62.6842 3.00136 62.0291 3H44.842C44.1887 3.0021 43.5423 3.13376 42.9401 3.38739C42.3378 3.64103 41.7916 4.01162 41.333 4.47781C40.8743 4.94401 40.5122 5.49657 40.2676 6.10366C40.023 6.71075 39.9007 7.36036 39.9078 8.01504V13.2378H21.1865C17.2059 13.2378 14 16.5221 14 20.5114V68.765C13.9975 69.7131 14.1814 70.6524 14.5412 71.5292C14.901 72.4061 15.4298 73.2032 16.0972 73.8752C16.7646 74.5471 17.5576 75.0806 18.4309 75.4452C19.3042 75.8098 20.2405 75.9983 21.1865 76ZM15.7766 20.5114C15.7766 17.5039 18.1855 15.0183 21.1865 15.0183H40.7271C41.2177 15.0183 41.6843 14.6585 41.6843 14.1668V8.01504C41.6843 6.23114 43.0629 4.78049 44.842 4.78049H62.0291C62.451 4.78159 62.8686 4.86625 63.2578 5.0296C63.647 5.19295 64.0002 5.43177 64.297 5.73234C64.5939 6.03291 64.8285 6.38931 64.9875 6.78105C65.1465 7.17279 65.2267 7.59215 65.2234 8.01504V68.765C65.2262 69.4793 65.0885 70.1872 64.818 70.8482C64.5475 71.5091 64.1496 72.1101 63.6471 72.6167C63.1446 73.1234 62.5474 73.5257 61.8895 73.8007C61.2317 74.0758 60.5262 74.2181 59.8134 74.2195H21.1865C20.4738 74.2181 19.7683 74.0758 19.1104 73.8007C18.4526 73.5257 17.8553 73.1234 17.3528 72.6167C16.8503 72.1101 16.4525 71.5091 16.182 70.8482C15.9115 70.1872 15.7737 69.4793 15.7766 68.765V20.5114Z" fill="#38497D"/>
<path d="M46.8506 16H59.1414C59.2544 16.0006 59.3663 15.9774 59.4708 15.9315C59.5753 15.8857 59.6702 15.8183 59.7501 15.7331C59.8299 15.6479 59.8931 15.5466 59.936 15.4352C59.9789 15.3238 60.0007 15.2044 60 15.084V10.9429C60.0025 10.1709 59.7193 9.42905 59.212 8.87813C58.7047 8.32722 58.0141 8.0117 57.2899 8H48.7024C47.2036 8 46.0001 9.34569 46.0001 10.9429V15.084C45.9985 15.204 46.0193 15.3231 46.0614 15.4344C46.1035 15.5456 46.1659 15.6469 46.2451 15.7321C46.3243 15.8174 46.4186 15.885 46.5226 15.931C46.6265 15.977 46.7381 16.0005 46.8506 16ZM47.732 10.9429C47.7273 10.6613 47.8261 10.3888 48.0074 10.1839C48.1887 9.97889 48.438 9.85768 48.7021 9.84615H57.2896C57.5546 9.85727 57.805 9.97806 57.9877 10.1829C58.1704 10.3877 58.2709 10.6603 58.268 10.9429V14.1538H47.732V10.9429Z" fill="#38497D"/>
<path d="M18 54C18.2652 54 18.5196 53.9111 18.7071 53.7528C18.8946 53.5946 19 53.3799 19 53.1561V38.8439C19 38.6201 18.8946 38.4054 18.7071 38.2472C18.5196 38.0889 18.2652 38 18 38C17.7348 38 17.4804 38.0889 17.2929 38.2472C17.1054 38.4054 17 38.6201 17 38.8439V53.1561C17 53.3799 17.1054 53.5946 17.2929 53.7528C17.4804 53.9111 17.7348 54 18 54Z" fill="#38497D"/>
<path d="M18 37C18.2652 37 18.5196 36.9251 18.7071 36.7918C18.8946 36.6586 19 36.4778 19 36.2893V35.7107C19 35.5222 18.8946 35.3414 18.7071 35.2082C18.5196 35.0749 18.2652 35 18 35C17.7348 35 17.4804 35.0749 17.2929 35.2082C17.1054 35.3414 17 35.5222 17 35.7107V36.2893C17 36.4778 17.1054 36.6586 17.2929 36.7918C17.4804 36.9251 17.7348 37 18 37Z" fill="#38497D"/>
<path d="M49.3494 45.9513L45.7378 47.194L44.2815 46.3591V45.0193V43.6989L45.7378 42.864L49.3494 44.1067C49.6018 44.2038 49.8931 44.0484 49.9708 43.796C50.0679 43.5436 49.9125 43.2523 49.6601 43.1747L46.864 42.2232L49.4853 40.7087C49.7184 40.5728 49.796 40.2621 49.6601 40.0291C49.5242 39.7961 49.2135 39.7184 48.9805 39.8543L46.3592 41.3689L46.9223 38.4757C46.9805 38.2038 46.8058 37.9514 46.5339 37.8932C46.2621 37.8349 46.0097 38.0097 45.9514 38.2815L45.2135 42.0291L43.7573 42.864L42.6505 42.2232L42.6311 42.2038L41.5048 41.5436V39.8737L44.3786 37.3689C44.5922 37.1942 44.6116 36.8835 44.4174 36.6699C44.2427 36.4563 43.932 36.4369 43.7184 36.6311L41.5048 38.5728V35.5048C41.5048 35.233 41.2913 35 41 35C40.7282 35 40.4952 35.2136 40.4952 35.5048V38.5339L38.2816 36.6116C38.068 36.4369 37.7573 36.4563 37.5826 36.6505C37.4078 36.8641 37.4272 37.1747 37.6214 37.3495L40.4952 39.8543V41.5242L39.3689 42.1844L38.2427 42.8446L36.7865 42.0096L36.0486 38.2621C35.9903 37.9903 35.7379 37.8155 35.4661 37.8738C35.1942 37.932 35.0195 38.1844 35.0777 38.4563L35.6408 41.3494L33.0195 39.8349C32.7865 39.699 32.4758 39.7766 32.3399 40.0097C32.204 40.2427 32.2816 40.5533 32.5147 40.6893L35.136 42.2038L32.3399 43.1553C32.0875 43.2523 31.9321 43.5242 32.0292 43.7766C32.1263 44.029 32.3982 44.1844 32.6506 44.0873L36.2622 42.8446L37.7185 43.6795V45.0193V46.3397H37.7379L36.2816 47.1746L32.67 45.9319C32.4176 45.8348 32.1263 45.9902 32.0486 46.2426C31.9516 46.495 32.1069 46.7863 32.3593 46.864L35.1554 47.8154L32.5341 49.3299C32.3011 49.4659 32.2234 49.7765 32.3593 50.0096C32.4952 50.2426 32.8059 50.3202 33.0389 50.1843L35.6603 48.6698L35.0972 51.5629C35.0389 51.8348 35.2137 52.0872 35.4855 52.1454C35.7573 52.2037 36.0098 52.0289 36.068 51.7571L36.8059 48.0096L38.2622 47.1746L39.4078 47.8348L40.534 48.495V50.1649L37.6602 52.6697C37.4466 52.8445 37.4272 53.1551 37.6214 53.3687C37.7962 53.5823 38.1068 53.6017 38.3204 53.4076L40.534 51.4658V54.5338C40.534 54.8056 40.7476 55.0386 41.0388 55.0386C41.3107 55.0386 41.5437 54.825 41.5437 54.5338V51.5047L43.7573 53.4464C43.9708 53.6212 44.2815 53.6017 44.4563 53.4076C44.631 53.194 44.6116 52.8833 44.4174 52.7085L41.5048 50.1843V48.5144L42.6311 47.8542L43.7573 47.194L45.2135 48.029L45.9514 51.7765C46.0097 52.0484 46.2621 52.2231 46.5339 52.1649C46.8058 52.1066 46.9805 51.8542 46.9223 51.5823L46.3592 48.6892L48.9805 50.2037C49.2135 50.3396 49.5242 50.262 49.6601 50.029C49.796 49.796 49.7184 49.4853 49.4853 49.3494L46.864 47.8348L49.6601 46.8834C49.9125 46.7863 50.0679 46.5144 49.9708 46.262C49.8737 46.0096 49.6018 45.8543 49.3494 45.9513ZM43.233 45.0193V46.3397L42.1068 46.9999L41 47.6406L39.8544 46.9805L38.7282 46.3203V45.0193V43.6989L39.8544 43.0387L40.9806 42.3786L42.1068 43.0387L42.1262 43.0582L43.233 43.6989V45.0193Z" fill="#FBFBFB"/>
</svg>
