<svg width="24" height="24" viewBox="0 0 24 24" fill="none" xmlns="http://www.w3.org/2000/svg">
<path d="M12 21.8541C6.56415 21.8541 2.14581 17.4358 2.14581 12C2.14581 6.56415 6.56415 2.14581 12 2.14581C17.4358 2.14581 21.8541 6.56415 21.8541 12C21.8541 17.4358 17.4358 21.8541 12 21.8541ZM12 3.52081C7.32498 3.52081 3.52081 7.32498 3.52081 12C3.52081 16.675 7.32498 20.4791 12 20.4791C16.675 20.4791 20.4791 16.675 20.4791 12C20.4791 7.32498 16.675 3.52081 12 3.52081Z" fill="#C4C4C4"/>
<path d="M12 13.6041C11.6242 13.6041 11.3125 13.2925 11.3125 12.9166V8.33331C11.3125 7.95748 11.6242 7.64581 12 7.64581C12.3758 7.64581 12.6875 7.95748 12.6875 8.33331V12.9166C12.6875 13.2925 12.3758 13.6041 12 13.6041Z" fill="#C4C4C4"/>
<path d="M12 16.5833C11.8808 16.5833 11.7616 16.5558 11.6516 16.51C11.5416 16.4642 11.4408 16.4 11.3491 16.3175C11.2666 16.2258 11.2025 16.1342 11.1566 16.015C11.1108 15.905 11.0833 15.7858 11.0833 15.6667C11.0833 15.5475 11.1108 15.4283 11.1566 15.3183C11.2025 15.2083 11.2666 15.1075 11.3491 15.0158C11.4408 14.9333 11.5416 14.8692 11.6516 14.8233C11.8716 14.7317 12.1283 14.7317 12.3483 14.8233C12.4583 14.8692 12.5591 14.9333 12.6508 15.0158C12.7333 15.1075 12.7975 15.2083 12.8433 15.3183C12.8891 15.4283 12.9166 15.5475 12.9166 15.6667C12.9166 15.7858 12.8891 15.905 12.8433 16.015C12.7975 16.1342 12.7333 16.2258 12.6508 16.3175C12.5591 16.4 12.4583 16.4642 12.3483 16.51C12.2383 16.5558 12.1191 16.5833 12 16.5833Z" fill="#C4C4C4"/>
</svg>
