<svg width="219" height="178" viewBox="0 0 219 178" fill="none" xmlns="http://www.w3.org/2000/svg">
<g clip-path="url(#clip0_109_9534)">
<path d="M218.998 176.63C218.998 175.875 218.775 175.262 218.498 175.262H0.607546C0.270908 175.262 0.00996399 175.875 0.00996399 176.63C0.00996399 177.385 0.280868 178 0.607546 178H218.498C218.775 178 218.998 177.387 218.998 176.63Z" fill="#FCC86B"/>
<path d="M115.616 55.769C111.688 56.5439 95.9857 77.6381 95.9857 77.6381L95.4319 79.098C95.4319 79.098 123.839 75.9305 124.867 74.7042C127.646 71.4249 118.845 55.1299 115.616 55.769ZM96.1849 78.0854C101.364 71.4428 113.178 61.7426 115.732 59.6835C118.011 62.0142 121.443 68.8945 121.907 72.0021C118.632 72.6751 104.473 77.0809 96.1849 78.0854Z" fill="#B5098D"/>
<path d="M77.5642 59.3639C69.8355 54.3091 67.714 54.347 65.4632 55.6272C63.2123 56.9074 54.9059 68.8525 58.6188 72.5772C62.3318 76.302 91.7667 78.9682 91.7667 78.9682L92.4301 77.1707C92.4301 77.1707 85.2909 64.4208 77.5642 59.3639ZM63.7341 71.2671C62.0171 69.5515 66.2898 62.3996 68.2379 60.8818C68.7359 60.6022 88.5398 73.2363 91.3026 77.5522C80.2493 76.3399 65.3337 72.6911 63.7341 71.2671Z" fill="#B5098D"/>
<path d="M93.6591 73.7156H92.0018C90.3604 73.7156 89.0298 75.0497 89.0298 76.6954V81.5805C89.0298 83.2262 90.3604 84.5603 92.0018 84.5603H93.6591C95.3005 84.5603 96.6311 83.2262 96.6311 81.5805V76.6954C96.6311 75.0497 95.3005 73.7156 93.6591 73.7156Z" fill="#B5098D"/>
<path d="M154.798 79.1859L20.1425 78.7865C19.2986 78.7829 18.464 78.9627 17.6959 79.3132C16.9279 79.6638 16.2446 80.1769 15.6931 80.8174C15.1416 81.4578 14.7349 82.2103 14.501 83.0233C14.2671 83.8363 14.2115 84.6904 14.338 85.5269L16.4216 99.3074L23.1703 99.2934L27.2398 168.621C27.344 170.408 28.1253 172.087 29.424 173.316C30.7226 174.544 32.4403 175.228 34.2255 175.228H141.709L146.181 99.0298L152.539 99.0178L154.798 79.1859Z" fill="#F0A500"/>
<path d="M144.009 175.228H61.5012L57.0831 80.6219H155.11L150.999 168.651C150.828 172.332 147.752 175.228 144.009 175.228Z" fill="#FCC149"/>
<path d="M159.158 99.0638L52.7466 99.3474L50.3184 78.8184L154.561 79.2179C155.37 79.221 156.169 79.3926 156.909 79.7219C157.649 80.0511 158.312 80.5308 158.857 81.1305C159.402 81.7302 159.816 82.4368 160.075 83.2057C160.333 83.9745 160.429 84.7888 160.357 85.5968L159.158 99.0638Z" fill="#FCC149"/>
<path d="M52.7466 99.3454L154.242 99.0638L55.9656 104.444L52.7466 99.3454Z" fill="#F0A500"/>
<path d="M95.5036 78.9782H92.679V99.2535H95.5036V78.9782Z" fill="#B5098D"/>
<path d="M104.398 99.1576H100.868V175.37H104.398V99.1576Z" fill="#B5098D"/>
<g opacity="0.42">
<path opacity="0.42" d="M19.1904 39.2165C27.3149 42.414 35.6149 45.1439 44.0498 47.3929C46.5955 48.0699 50.8124 50.0032 53.155 48.2816C54.374 47.3889 54.884 46.0428 54.1689 44.6108C52.8562 41.9906 48.8006 41.8028 46.2349 41.1178C38.4146 39.0287 29.666 36.2946 20.9851 33.0153C19.3577 32.4001 17.4534 33.6344 17.0012 35.2121C16.4793 37.0096 17.5709 38.5794 19.1924 39.2065L19.1904 39.2165Z" fill="#FF8B88"/>
</g>
<g opacity="0.42">
<path opacity="0.42" d="M79.357 24.737C76.5822 3.4451 76.7674 3.38919 75.5862 1.38003C74.391 -0.679053 71.0784 -0.397452 70.4271 1.97918C69.7757 4.35582 69.9291 3.95838 72.931 26.3447C73.17 28.1262 75.3571 29.1587 76.9527 28.7553C78.857 28.274 79.59 26.5104 79.357 24.723V24.737Z" fill="#FF8B88"/>
</g>
<g opacity="0.42">
<path opacity="0.42" d="M113.503 27.4711C115.599 24.6365 117.385 21.5838 118.829 18.366C120.178 15.3703 122.648 10.9545 120.333 7.98071C119.835 7.34362 118.664 7.04004 117.913 7.29968C114.772 8.38614 114.174 12.8019 112.919 15.562C111.525 18.5653 109.88 21.4443 107.999 24.1678C107.023 25.6038 107.682 27.7228 109.107 28.5756C110.714 29.5402 112.469 28.8652 113.503 27.4671V27.4711Z" fill="#FF8B88"/>
</g>
<g opacity="0.42">
<path opacity="0.42" d="M160.774 43.6542C161.724 42.346 160.925 40.6584 159.809 39.8156C157.511 38.0961 153.455 39.6818 150.947 40.3748C148.037 41.2002 145.197 42.2588 142.456 43.5404C140.862 44.2713 140.428 46.5361 141.237 47.9601C142.181 49.6357 144.025 49.8574 145.643 49.1824C156.21 44.7706 158.427 46.8816 160.774 43.6542Z" fill="#FF8B88"/>
</g>
</g>
<defs>
<clipPath id="clip0_109_9534">
<rect width="219" height="178" fill="white"/>
</clipPath>
</defs>
</svg>
