<svg width="358" height="254" viewBox="0 0 358 254" fill="none" xmlns="http://www.w3.org/2000/svg">
<g clip-path="url(#clip0_107_8682)">
<g clip-path="url(#clip1_107_8682)">
<path d="M53.31 181.79L76.31 83.69L76.77 172.93C76.77 172.93 72.19 185.26 53.31 181.79Z" fill="white"/>
<path d="M262.657 180.141L274.937 180.076L274.973 187.076L260.514 187.152L260.488 182.362C260.484 182.074 260.537 181.787 260.644 181.519C260.751 181.251 260.91 181.007 261.111 180.801C261.313 180.594 261.553 180.43 261.818 180.317C262.083 180.203 262.368 180.144 262.657 180.141V180.141Z" fill="#2A2B2A"/>
<path d="M292.75 191.32L262.86 185.76L224.77 187.93L182.72 74.06H214.9C213.703 72.3032 212.093 70.8667 210.212 69.8764C208.331 68.8862 206.236 68.3724 204.11 68.38L89.3 68.98C87.6563 68.9879 86.0303 69.3196 84.5148 69.9561C82.9994 70.5927 81.6243 71.5217 80.4681 72.69C79.3119 73.8583 78.3972 75.243 77.7764 76.765C77.1556 78.2869 76.8408 79.9163 76.85 81.56L76.78 82.03V173.03C76.78 173.03 73.78 181.03 62.78 182.31L53.27 182.51V200.77C52.1201 201.875 51.2078 203.204 50.5888 204.674C49.9698 206.144 49.6572 207.725 49.67 209.32L49.74 222.23C49.7581 225.818 51.1855 229.256 53.7146 231.802C56.2436 234.348 59.6717 235.798 63.26 235.84L157.67 233.54L285.22 238.32C286.781 238.378 288.337 238.098 289.78 237.499C291.222 236.9 292.519 235.997 293.58 234.85C293.727 234.689 293.906 234.56 294.106 234.472C294.306 234.384 294.522 234.339 294.74 234.34H301.55C303.957 234.327 306.262 233.361 307.959 231.654C309.657 229.947 310.61 227.637 310.61 225.23V209.39C310.61 197.76 304.38 191.57 292.75 191.32ZM208.14 188.87L145.74 189.26L99.89 182.56H92.19V80.32C92.1884 79.5101 92.349 78.7081 92.6622 77.9612C92.9753 77.2143 93.4348 76.5377 94.0135 75.9711C94.5922 75.4045 95.2784 74.9594 96.0318 74.6621C96.7851 74.3648 97.5903 74.2213 98.4 74.24L166.54 75.65L210.99 188.74L208.14 188.87Z" fill="#38497D"/>
<path d="M210.99 188.69L192.99 188.79V180.19H199.54C205.7 180.42 211.02 183.98 211.05 188.73L210.99 188.69Z" fill="#2A2B2A"/>
<path d="M250.05 237.03C257.97 237.33 284.58 238.32 287.69 238.37C291.35 238.42 294.74 234.37 294.74 234.37H300.6C305.97 233.89 308.46 231.56 309.6 229.37C309.067 228.552 308.337 227.881 307.478 227.418C306.618 226.955 305.656 226.715 304.68 226.72L254.04 226.98C252.875 226.985 251.738 227.339 250.776 227.995C249.813 228.652 249.069 229.581 248.639 230.664C248.209 231.747 248.112 232.933 248.362 234.071C248.612 235.209 249.196 236.247 250.04 237.05L250.05 237.03Z" fill="#939598"/>
<path d="M168.086 196.946L158.247 196.997L158.261 199.837L168.101 199.786L168.086 196.946Z" fill="#2B3B5E"/>
<path d="M121.568 197.189L111.728 197.241L111.743 200.081L121.583 200.029L121.568 197.189Z" fill="#2B3B5E"/>
<path d="M73.67 211.32C72.3996 211.32 71.1813 210.815 70.283 209.917C69.3847 209.019 68.88 207.8 68.88 206.53C68.88 205.26 69.3847 204.041 70.283 203.143C71.1813 202.245 72.3996 201.74 73.67 201.74L91.01 201.65L91.07 211.23L73.67 211.32ZM90.2 202.46L73.67 202.52C72.6091 202.52 71.5917 202.941 70.8416 203.692C70.0914 204.442 69.67 205.459 69.67 206.52C69.67 207.581 70.0914 208.598 70.8416 209.348C71.5917 210.099 72.6091 210.52 73.67 210.52L90.22 210.43L90.2 202.46Z" fill="#212123"/>
<path d="M53.2813 188.087L58.4713 188.06C59.0945 188.056 59.6935 188.301 60.1365 188.739C60.5795 189.178 60.8303 189.774 60.8335 190.397L60.8859 200.397L53.346 200.437L53.2813 188.087V188.087Z" fill="#F15A29"/>
<path d="M125.85 234.51L101.23 194.12L99.5 182.6L100.3 182.48L102.02 193.92L126.53 234.1L125.85 234.51Z" fill="#212123"/>
<path d="M287.67 238.46L276.46 249.32C275.299 250.485 273.916 251.406 272.394 252.028C270.871 252.651 269.24 252.962 267.595 252.944C265.95 252.927 264.326 252.58 262.817 251.925C261.308 251.27 259.946 250.32 258.81 249.13C255.81 246.04 253.41 242.02 253.59 237.13L287.67 238.46Z" fill="#3E434B"/>
<path d="M205.74 235.32C206.329 240.399 208.716 245.099 212.469 248.571C216.222 252.043 221.094 254.057 226.203 254.25C231.312 254.442 236.322 252.799 240.325 249.619C244.328 246.438 247.062 241.93 248.03 236.91L205.74 235.32Z" fill="#3E434B"/>
<path d="M93.25 255.04C105.074 255.04 114.66 245.454 114.66 233.63C114.66 221.806 105.074 212.22 93.25 212.22C81.4256 212.22 71.84 221.806 71.84 233.63C71.84 245.454 81.4256 255.04 93.25 255.04Z" fill="#3E434B"/>
<path d="M74.81 235.08C76.02 247.79 85.29 255.08 96.33 255.02C106.74 254.95 115.33 246.1 117.24 234.42L74.81 235.08Z" fill="#3E434B"/>
<path d="M121.67 234.42C123.54 246.08 133.15 254.66 144.17 253.99C154.55 253.35 162.72 244.7 164 233.83L143.53 232.53L121.67 234.42Z" fill="#3E434B"/>
<path d="M263.62 218.56C267.497 218.56 270.64 215.417 270.64 211.54C270.64 207.663 267.497 204.52 263.62 204.52C259.743 204.52 256.6 207.663 256.6 211.54C256.6 215.417 259.743 218.56 263.62 218.56Z" fill="#2B3B60"/>
<path d="M301.35 218.36C305.227 218.36 308.37 215.217 308.37 211.34C308.37 207.463 305.227 204.32 301.35 204.32C297.473 204.32 294.33 207.463 294.33 211.34C294.33 215.217 297.473 218.36 301.35 218.36Z" fill="#2B3B60"/>
<path d="M302.6 218.36C306.477 218.36 309.62 215.217 309.62 211.34C309.62 207.463 306.477 204.32 302.6 204.32C298.723 204.32 295.58 207.463 295.58 211.34C295.58 215.217 298.723 218.36 302.6 218.36Z" fill="white"/>
<path d="M276.519 218.359L277.899 218.352L277.833 205.802L276.453 205.809L276.519 218.359Z" fill="#2A2B2A"/>
<path d="M279.789 218.356L281.169 218.349L281.103 205.799L279.723 205.806L279.789 218.356Z" fill="#2A2B2A"/>
<path d="M282.859 218.352L284.239 218.345L284.173 205.795L282.793 205.803L282.859 218.352Z" fill="#2A2B2A"/>
<path d="M286.309 218.33L287.689 218.323L287.623 205.773L286.243 205.781L286.309 218.33Z" fill="#2A2B2A"/>
<path d="M289.639 218.308L291.019 218.301L290.954 205.751L289.574 205.758L289.639 218.308Z" fill="#2A2B2A"/>
<path d="M54.6787 214.299L47.1888 214.338C46.2555 214.343 45.5028 215.104 45.5077 216.037L45.5724 228.397C45.5773 229.33 46.3379 230.083 47.2713 230.078L54.7612 230.039C55.6945 230.034 56.4472 229.273 56.4423 228.34L56.3776 215.98C56.3727 215.047 55.6121 214.294 54.6787 214.299Z" fill="#939598"/>
<path d="M93.25 253.43C103.434 253.43 111.69 245.174 111.69 234.99C111.69 224.806 103.434 216.55 93.25 216.55C83.0659 216.55 74.81 224.806 74.81 234.99C74.81 245.174 83.0659 253.43 93.25 253.43Z" fill="#95999D"/>
<path d="M100.96 234.95C100.971 237.033 100.181 239.04 98.7533 240.557C97.3257 242.074 95.3698 242.985 93.29 243.1C92.1979 243.16 91.1048 243.001 90.0746 242.634C89.0443 242.267 88.0977 241.698 87.29 240.96C86.4722 240.204 85.8187 239.287 85.3699 238.268C84.9211 237.248 84.6865 236.147 84.6809 235.033C84.6753 233.919 84.8987 232.816 85.3372 231.792C85.7757 230.768 86.4199 229.845 87.23 229.08C88.3801 227.993 89.823 227.267 91.381 226.99C92.9389 226.713 94.5439 226.898 95.998 227.522C97.4521 228.146 98.692 229.181 99.5648 230.501C100.438 231.821 100.905 233.368 100.91 234.95H100.96ZM100.96 234.95C100.938 233.944 100.717 232.953 100.31 232.033C99.9034 231.114 99.3188 230.283 98.59 229.59C97.5387 228.629 96.2297 227.995 94.8236 227.767C93.4175 227.538 91.9752 227.725 90.6738 228.305C89.3723 228.884 88.2682 229.83 87.4967 231.028C86.7253 232.226 86.32 233.622 86.3306 235.047C86.3412 236.471 86.7673 237.862 87.5565 239.048C88.3458 240.234 89.4639 241.163 90.7738 241.723C92.0838 242.283 93.5286 242.448 94.9312 242.199C96.3338 241.95 97.6331 241.297 98.67 240.32C100.111 238.902 100.934 236.972 100.96 234.95V234.95Z" fill="#1B1819"/>
<g opacity="0.15">
<path opacity="0.15" d="M169.18 67.85C169.18 67.85 163.67 78.52 159.29 85.32C158.154 87.1101 157.421 89.1255 157.142 91.2269C156.862 93.3282 157.042 95.4652 157.67 97.49C162.56 113.58 173.34 154.49 169.2 191.21C163.9 238.1 159.32 245.72 159.32 245.72L143.94 243.72L138.52 90.48L155.41 72.95L169.18 67.85Z" fill="#262262"/>
</g>
<path d="M182.72 74.06H214.95L262.87 185.74L225.1 188.09L182.72 74.06Z" fill="white"/>
<path d="M262.86 185.74C254.56 167.26 246.65 148.61 238.54 130.06C230.68 111.39 222.61 92.81 214.94 74.06C223.25 92.53 231.16 111.18 239.27 129.74C247.13 148.41 255.19 166.99 262.86 185.74Z" fill="#212123"/>
<g opacity="0.15">
<path opacity="0.15" d="M131.66 133.05L93.35 253.43L84.08 253.58V225.73L131.66 133.05Z" fill="#262262"/>
</g>
<g opacity="0.15">
<path opacity="0.15" d="M56.01 179.19L59.57 212.91L67.69 215.55L73.23 250.78L45.91 253.78V225.93L56.01 179.19Z" fill="#262262"/>
</g>
<path d="M145.73 99.1C145.73 99.1 149.65 94.1 148.15 91.28C146.93 88.98 146.07 86.19 146.99 83.69C148.99 78.2 153.34 74.83 168.08 68.57L186.28 68.38C193.65 62.75 193.65 57.55 191.81 53.75C190.756 51.7414 189.16 50.0685 187.203 48.9213C185.247 47.7741 183.007 47.1986 180.74 47.26C165.32 47.41 139.47 53.93 139.47 53.93C139.47 53.93 131.39 59.71 116.07 58.26C100.75 56.81 72 133.05 72 133.05L86.6 143.45L97.89 129.14L106.44 99.14L145.73 99.1Z" fill="#EFE3AE"/>
<g opacity="0.24">
<path opacity="0.24" d="M113.07 73.32C113.138 72.2058 113.616 71.1562 114.412 70.3733C115.208 69.5905 116.265 69.1298 117.38 69.08C119.921 69.0958 122.461 68.9354 124.98 68.6C127.995 67.7724 130.96 66.7708 133.86 65.6C134.288 65.4526 134.744 65.4062 135.192 65.4645C135.641 65.5227 136.07 65.6841 136.446 65.936C136.822 66.1879 137.134 66.5233 137.359 66.9161C137.583 67.3089 137.714 67.7484 137.74 68.2L141.18 101.07L108.86 100.49C108.86 100.49 111.3 89.75 111.86 86.28C112.35 83.04 113.07 73.32 113.07 73.32Z" fill="#593D14"/>
</g>
<path d="M105.96 86.32C106.875 87.0871 107.61 88.0469 108.111 89.1308C108.612 90.2146 108.868 91.3959 108.86 92.59C108.831 93.7866 108.601 94.9697 108.18 96.09C107.98 96.64 107.68 97.16 107.43 97.68L106.43 99.13C107.408 97.0826 107.96 94.8574 108.05 92.59C108.043 90.3301 107.31 88.1322 105.96 86.32V86.32Z" fill="#603913"/>
<path d="M150.16 68.66C150.437 70.312 150.571 71.9849 150.56 73.66C150.577 75.3353 150.443 77.0087 150.16 78.66C149.626 75.3481 149.626 71.9719 150.16 68.66V68.66Z" fill="#603913"/>
<path d="M119.11 71.92C118.898 71.9191 118.694 71.8368 118.54 71.69C115.65 68.8 113.9 58.93 113.83 58.51C113.795 58.3019 113.844 58.0885 113.966 57.9162C114.087 57.7439 114.272 57.6267 114.48 57.59C114.584 57.5684 114.691 57.5683 114.795 57.5897C114.9 57.6111 114.998 57.6536 115.085 57.7144C115.172 57.7753 115.246 57.8533 115.302 57.9437C115.358 58.0341 115.395 58.1349 115.41 58.24C115.88 60.95 117.57 68.45 119.67 70.55C119.783 70.6613 119.86 70.8037 119.892 70.9591C119.924 71.1145 119.909 71.2759 119.849 71.4227C119.789 71.5695 119.687 71.6952 119.555 71.7838C119.424 71.8723 119.269 71.9197 119.11 71.92V71.92Z" fill="#EFA51F"/>
<path d="M135.43 70.32C135.286 70.3225 135.144 70.2843 135.02 70.21C134.839 70.0999 134.707 69.923 134.655 69.7172C134.603 69.5115 134.633 69.2934 134.74 69.11C137.23 64.97 138.67 53.93 138.68 53.82C138.71 53.6093 138.821 53.4186 138.988 53.288C139.156 53.1573 139.368 53.0971 139.58 53.12C139.685 53.1335 139.785 53.1676 139.877 53.2202C139.968 53.2728 140.048 53.343 140.112 53.4266C140.176 53.5102 140.223 53.6057 140.25 53.7075C140.277 53.8094 140.284 53.9155 140.27 54.02C140.21 54.49 138.77 65.51 136.12 69.93C136.048 70.0487 135.947 70.1468 135.826 70.2151C135.705 70.2834 135.569 70.3195 135.43 70.32V70.32Z" fill="#EFA51F"/>
<path d="M118.247 46.1285L133.827 46.0469L133.885 57.1268C133.894 58.9117 133.194 60.6272 131.939 61.8959C130.683 63.1646 128.975 63.8826 127.19 63.8919L125.07 63.903C123.285 63.9124 121.57 63.2123 120.301 61.9568C119.032 60.7013 118.314 58.9932 118.305 57.2084L118.247 46.1285Z" fill="#FDC069"/>
<path d="M115.526 15.313L135.785 15.2069C136.395 15.2037 136.982 15.4429 137.415 15.872C137.849 16.3011 138.094 16.8848 138.097 17.4948L138.199 36.8645C138.213 38.4902 137.906 40.1025 137.295 41.6093C136.685 43.1161 135.783 44.4876 134.642 45.6455C133.501 46.8033 132.143 47.7246 130.645 48.3567C129.147 48.9888 127.54 49.3192 125.914 49.329L125.764 49.3298C124.137 49.3384 122.525 49.0258 121.02 48.41C119.514 47.7942 118.145 46.8874 116.991 45.7414C115.837 44.5955 114.92 43.233 114.293 41.732C113.667 40.2311 113.342 38.6212 113.339 36.9947L113.238 17.625C113.236 17.3229 113.294 17.0236 113.408 16.7439C113.522 16.4643 113.69 16.2098 113.903 15.9951C114.115 15.7804 114.368 15.6097 114.646 15.4927C114.925 15.3756 115.224 15.3146 115.526 15.313V15.313Z" fill="#FDC069"/>
<path d="M166.06 67.01C170.826 67.01 174.69 63.1462 174.69 58.38C174.69 53.6138 170.826 49.75 166.06 49.75C161.294 49.75 157.43 53.6138 157.43 58.38C157.43 63.1462 161.294 67.01 166.06 67.01Z" fill="#FDC069"/>
<path d="M113.33 32.56H111.39C111.39 32.56 108.691 20.0337 113.001 18.0037L114.06 19.82L113.51 27.94L113.33 32.56Z" fill="#212123"/>
<path d="M137.51 19.93L138.19 32.73L140.26 30.38C140.26 30.38 142.44 21.1 140.26 19.55C138.08 18 137.51 19.93 137.51 19.93Z" fill="#212123"/>
<path d="M119.45 30.92C120.091 30.92 120.61 30.4007 120.61 29.76C120.61 29.1194 120.091 28.6 119.45 28.6C118.809 28.6 118.29 29.1194 118.29 29.76C118.29 30.4007 118.809 30.92 119.45 30.92Z" fill="#212123"/>
<path d="M131 30.86C131.641 30.86 132.16 30.3407 132.16 29.7C132.16 29.0594 131.641 28.54 131 28.54C130.359 28.54 129.84 29.0594 129.84 29.7C129.84 30.3407 130.359 30.86 131 30.86Z" fill="#212123"/>
<path d="M113.812 28.1828C113.261 28.0187 112.684 27.9643 112.112 28.0228C111.517 28.073 110.938 28.2414 110.409 28.5181C109.88 28.7947 109.412 29.1741 109.031 29.634C108.65 30.0939 108.365 30.6251 108.192 31.1966C108.02 31.768 107.962 32.3681 108.024 32.9619C108.086 33.5557 108.266 34.1312 108.553 34.6547C108.839 35.1782 109.228 35.6393 109.695 36.0109C110.162 36.3825 110.699 36.6572 111.274 36.8189C111.848 36.9807 112.45 37.0262 113.042 36.9528C113.153 36.9385 113.263 36.9185 113.372 36.8928L113.812 28.1828Z" fill="#FDC069"/>
<path d="M137.41 27.82C137.959 27.6487 138.537 27.5875 139.11 27.64C139.702 27.6886 140.279 27.8542 140.806 28.1273C141.334 28.4003 141.802 28.7753 142.184 29.2306C142.565 29.6859 142.853 30.2124 143.03 30.7797C143.206 31.3469 143.269 31.9435 143.213 32.535C143.157 33.1265 142.985 33.701 142.706 34.2254C142.427 34.7498 142.046 35.2135 141.586 35.5898C141.126 35.966 140.597 36.2473 140.027 36.4172C139.458 36.5872 138.861 36.6425 138.27 36.58C138.16 36.58 138.05 36.53 137.94 36.51L137.41 27.82Z" fill="#FDC069"/>
<path d="M125.25 27.76C125.7 28.94 125.93 30.14 126.41 31.18C126.5 31.4345 126.628 31.6738 126.79 31.89C126.91 32.06 127.32 32.43 127.26 32.89C127.11 33.82 126.33 34.01 125.76 34.18C126.22 33.81 126.76 33.26 126.64 32.9C126.52 32.54 125.88 32.12 125.64 31.49C125.187 30.302 125.052 29.0161 125.25 27.76V27.76Z" fill="#212123"/>
<path d="M113.56 27.2V29.75C113.56 29.75 113.4 32.59 113.32 31.81C112.97 28.53 110.869 28.8534 110.499 28.5034C110.129 28.1534 111.001 22.0034 111.001 22.0034L113.56 27.2Z" fill="#212123"/>
<path d="M112.89 32.62C112.34 32.15 111.99 31.62 111.52 31.3C111.084 30.8826 110.528 30.6131 109.93 30.53C110.233 30.2913 110.617 30.18 111 30.22C111.368 30.2891 111.712 30.4508 112 30.69C112.282 30.9261 112.507 31.2216 112.661 31.5553C112.815 31.889 112.893 32.2526 112.89 32.62V32.62Z" fill="#EEAC53"/>
<path d="M141.81 30.7C140.51 31.23 139.69 31.38 138.81 32.39C138.762 32.0424 138.836 31.6888 139.02 31.39C139.227 31.0876 139.505 30.8404 139.83 30.67C140.141 30.5258 140.481 30.4536 140.823 30.4588C141.166 30.464 141.503 30.5464 141.81 30.7Z" fill="#EEAC53"/>
<g opacity="0.41">
<path opacity="0.41" d="M114.06 19.82C117.138 21.633 120.375 23.1626 123.73 24.39C128.42 25.98 134.91 22.29 136.3 22.73C137.69 23.17 137.7 23.45 137.7 23.45L137.51 19.93L126.11 15.25L114.06 19.82Z" fill="#EEAC53"/>
</g>
<path d="M114.06 19.82C114.06 19.82 118.52 18.37 121.84 20.76C125.16 23.15 127.13 22.29 130.56 20.07C131.612 19.4342 132.812 19.0865 134.041 19.062C135.27 19.0374 136.484 19.3368 137.56 19.93C137.56 19.93 147.01 17.1 140.74 9.01C134.24 0.630001 126.04 12.56 126.04 12.56C126.04 12.56 124.49 14.12 120.96 11.94C117.43 9.76 111.96 11.94 112.66 18.16L114.06 19.82Z" fill="#212123"/>
<path d="M125.67 16.46C125.094 15.7762 124.745 14.9307 124.67 14.04C124.561 13.1621 124.629 12.2712 124.87 11.42C125.109 10.5777 125.491 9.78271 126 9.07002C126.488 8.3572 127.109 7.74588 127.83 7.27002C127.38 8.96002 126.83 10.38 126.42 11.85C125.964 13.3461 125.712 14.8967 125.67 16.46Z" fill="#212123"/>
<path d="M125.99 65.06C123.649 65.1168 121.363 64.3407 119.54 62.87C118.238 61.8925 117.344 60.4676 117.03 58.87C117.022 58.7649 117.034 58.6592 117.067 58.559C117.1 58.4588 117.152 58.3661 117.221 58.2861C117.29 58.2062 117.374 58.1407 117.468 58.0933C117.562 58.0459 117.665 58.0176 117.77 58.01C117.876 57.9926 117.984 57.9984 118.088 58.0271C118.191 58.0558 118.287 58.1066 118.369 58.176C118.451 58.2455 118.516 58.3319 118.562 58.4293C118.607 58.5267 118.63 58.6327 118.63 58.74C118.903 59.9104 119.588 60.9435 120.56 61.65C121.5 62.3915 122.583 62.9298 123.741 63.2311C124.9 63.5323 126.108 63.5898 127.29 63.4C132.94 62.78 133.67 56.93 133.69 56.68C133.698 56.5736 133.729 56.4701 133.779 56.3759C133.829 56.2816 133.898 56.1987 133.981 56.1321C134.065 56.0656 134.161 56.0168 134.264 55.9889C134.367 55.9611 134.474 55.9546 134.58 55.97C134.791 55.9927 134.984 56.0981 135.117 56.2631C135.25 56.4281 135.312 56.6392 135.29 56.85C135.29 56.93 134.42 64.23 127.46 65C126.95 65.03 126.46 65.06 125.99 65.06Z" fill="#EFA51F"/>
<path d="M145.73 99.1H106.44L65.06 244.51H87.95L123.39 150.32L130.67 244.84L151.55 244.72C151.55 244.72 158.79 161.5 149.55 122.21L145.73 99.1Z" fill="#EFA51F"/>
<path d="M143.17 107.96C143.225 109.226 143.457 110.478 143.86 111.68C144.266 112.942 144.764 114.172 145.35 115.36C146.544 117.772 147.963 120.066 149.59 122.21C147.739 120.219 146.081 118.055 144.64 115.75C143.915 114.578 143.276 113.355 142.73 112.09C142.137 110.78 141.746 109.387 141.57 107.96H143.17Z" fill="#603913"/>
<path d="M120.05 159.23L130.35 130.78L131.85 131.37L120.05 159.23Z" fill="#603913"/>
<path d="M166.13 68.65H165.58C165.475 68.6449 165.372 68.6191 165.277 68.574C165.182 68.529 165.096 68.4657 165.026 68.3877C164.955 68.3096 164.901 68.2184 164.865 68.1193C164.83 68.0202 164.815 67.9151 164.82 67.81C164.814 67.7016 164.833 67.5934 164.874 67.4931C164.916 67.3928 164.979 67.303 165.059 67.2302C165.14 67.1574 165.235 67.1034 165.339 67.0723C165.443 67.0411 165.553 67.0335 165.66 67.05C167.93 67.172 170.156 66.3871 171.848 64.8681C173.539 63.349 174.558 61.2202 174.68 58.95C174.802 56.6797 174.017 54.454 172.498 52.7624C170.979 51.0708 168.85 50.052 166.58 49.93C166.366 49.918 166.166 49.8218 166.024 49.6624C165.881 49.503 165.808 49.2935 165.82 49.08C165.832 48.8665 165.928 48.6665 166.088 48.5239C166.247 48.3814 166.456 48.308 166.67 48.32V48.32C169.302 48.4835 171.768 49.6622 173.549 51.6079C175.329 53.5535 176.285 56.1142 176.215 58.7506C176.145 61.387 175.055 63.8933 173.174 65.7417C171.292 67.5901 168.767 68.6363 166.13 68.66V68.65Z" fill="#EFA51F"/>
<path d="M68.98 244.84L50.54 249.02C49.5401 249.247 48.647 249.807 48.0073 250.608C47.3677 251.41 47.0195 252.405 47.02 253.43V253.43L85.53 253.58V244.84H68.98Z" fill="#2A2B2A"/>
<path d="M148.84 244.43L167.32 248.43C168.322 248.647 169.22 249.198 169.869 249.991C170.517 250.785 170.877 251.775 170.89 252.8V252.8L132.38 253.35L132.29 244.62L148.84 244.43Z" fill="#2A2B2A"/>
<path d="M72.2403 133C71.3945 134.031 70.7636 135.245 70.3903 136.56C70.017 137.875 69.9098 139.262 70.076 140.625C70.2422 141.989 70.678 143.298 71.3539 144.466C72.0298 145.633 72.9302 146.63 73.9945 147.392C75.0587 148.153 76.2622 148.659 77.5237 148.878C78.7853 149.096 80.0756 149.021 81.308 148.658C82.5403 148.294 83.686 147.651 84.6678 146.771C85.6497 145.89 86.4449 143.739 87 142.5L72.2403 133Z" fill="#FDC069"/>
<g opacity="0.41">
<path opacity="0.41" d="M74.4385 137C73.8757 138.427 73.2322 139.798 72.7449 141.215C72.4792 141.91 72.2667 142.625 72.1092 143.352C71.911 144.072 71.9363 144.835 72.182 145.54C71.7289 144.883 71.5467 144.077 71.6734 143.288C71.7707 142.515 71.9485 141.753 72.204 141.016C72.739 139.571 73.4926 138.217 74.4385 137Z" fill="#603913"/>
</g>
<path opacity="0.41" d="M77.432 138.996C76.8433 140.506 76.1549 141.953 75.6315 143.447C75.3415 144.176 75.1108 144.927 74.9418 145.692C74.7261 146.451 74.749 147.255 75.0073 147.996C74.7663 147.657 74.5957 147.273 74.5053 146.866C74.415 146.46 74.4066 146.039 74.4808 145.627C74.5829 144.816 74.7741 144.017 75.0509 143.246C75.6254 141.72 76.4282 140.287 77.432 138.996V138.996Z" fill="#603913" fill-opacity="0.5"/>
<g opacity="0.41">
<path opacity="0.41" d="M79.9126 142C79.4731 143.185 78.9383 144.302 78.5333 145.456C78.3104 146.023 78.1296 146.606 77.9924 147.199C77.8198 147.789 77.8255 148.414 78.0088 148.997C77.6226 148.464 77.4664 147.798 77.5744 147.145C77.6556 146.514 77.8039 145.893 78.0169 145.292C78.4681 144.103 79.1082 142.991 79.9126 142V142Z" fill="#603913"/>
</g>
<path d="M114.27 73.32C114.343 72.2057 114.823 71.1572 115.62 70.375C116.417 69.5928 117.475 69.1317 118.59 69.08C121.128 69.0986 123.664 68.9416 126.18 68.61C129.196 67.7839 132.161 66.7822 135.06 65.61C135.487 65.4627 135.942 65.4161 136.39 65.4738C136.838 65.5316 137.267 65.6921 137.642 65.9429C138.018 66.1936 138.33 66.5278 138.556 66.9194C138.781 67.3109 138.912 67.7492 138.94 68.2L142.38 101.07L110.88 101.24L114.27 73.32Z" fill="#EFA51F"/>
<path d="M118.55 72.84C119.34 72.84 119.98 72.1998 119.98 71.41C119.98 70.6202 119.34 69.98 118.55 69.98C117.76 69.98 117.12 70.6202 117.12 71.41C117.12 72.1998 117.76 72.84 118.55 72.84Z" fill="#E04541"/>
<path d="M135.43 70.97C136.22 70.97 136.86 70.3298 136.86 69.54C136.86 68.7502 136.22 68.11 135.43 68.11C134.64 68.11 134 68.7502 134 69.54C134 70.3298 134.64 70.97 135.43 70.97Z" fill="#E04541"/>
<path d="M126.67 91.59C125.113 91.59 123.619 90.9736 122.516 89.8755C121.412 88.7774 120.788 87.2869 120.78 85.73V81.45C120.78 81.0205 120.935 80.6054 121.216 80.2804C121.497 79.9555 121.885 79.7424 122.31 79.68L130.79 78.49C131.048 78.4486 131.311 78.4667 131.561 78.543C131.811 78.6192 132.039 78.7516 132.23 78.93C132.423 79.1048 132.575 79.32 132.675 79.5602C132.775 79.8005 132.821 80.0599 132.81 80.32L132.58 85.69C132.583 87.2487 131.967 88.7448 130.869 89.8507C129.771 90.9566 128.279 91.5821 126.72 91.59V91.59H126.67ZM130.97 79.32H130.83L122.35 80.51C122.113 80.5483 121.898 80.6704 121.744 80.8539C121.59 81.0375 121.507 81.2703 121.51 81.51V85.79C121.511 86.4558 121.644 87.1148 121.9 87.7294C122.156 88.344 122.53 88.9022 123.002 89.3721C123.474 89.842 124.033 90.2143 124.649 90.4679C125.265 90.7215 125.924 90.8513 126.59 90.85V90.85C127.938 90.8421 129.228 90.2995 130.177 89.3415C131.126 88.3835 131.655 87.0882 131.65 85.74L131.88 80.35C131.88 80.0848 131.775 79.8304 131.587 79.6429C131.4 79.4553 131.145 79.35 130.88 79.35L130.97 79.32Z" fill="white"/>
<g opacity="0.54">
<path opacity="0.54" d="M118.36 45.51L133.74 45.37L133.77 56.63L118.36 45.51Z" fill="#EEAC53"/>
</g>
<path d="M113.33 33.49V36.93C113.335 38.5666 113.664 40.186 114.296 41.6953C114.929 43.2047 115.853 44.5742 117.017 45.7254C118.18 46.8766 119.559 47.7867 121.075 48.4036C122.591 49.0204 124.213 49.3319 125.85 49.32V49.32C127.482 49.3108 129.097 48.9802 130.601 48.3471C132.106 47.7139 133.471 46.7906 134.619 45.6299C135.767 44.4692 136.675 43.0937 137.291 41.5821C137.907 40.0705 138.219 38.4523 138.21 36.82V32.76L134.21 37.85C134.068 38.0322 133.889 38.1819 133.685 38.2888C133.48 38.3958 133.255 38.4575 133.025 38.4699C132.794 38.4822 132.564 38.4448 132.349 38.3603C132.134 38.2758 131.94 38.1461 131.78 37.98L131.28 37.46C130.555 36.6985 129.686 36.0895 128.722 35.6687C127.759 35.248 126.721 35.024 125.67 35.01V35.01C124.485 34.9943 123.312 35.245 122.237 35.7434C121.162 36.2419 120.213 36.9755 119.46 37.89L119.3 38.09C119.163 38.2575 118.994 38.3957 118.802 38.4964C118.611 38.597 118.401 38.658 118.185 38.6757C117.97 38.6935 117.753 38.6676 117.547 38.5996C117.342 38.5316 117.152 38.4229 116.99 38.28C115.63 37.1 113.12 35 113.35 32.56" fill="#2A2B2A"/>
<path d="M123.03 38.32C123.03 38.37 123.03 38.41 123.03 38.45C123.03 40.45 124.28 42.02 125.8 42.01C127.32 42 128.55 40.39 128.54 38.42C128.54 38.42 128.54 38.34 128.54 38.3L123.03 38.32Z" fill="white"/>
<path d="M218.86 253.69C222.261 254.57 225.829 254.57 229.23 253.69H218.86Z" fill="#3E434B"/>
<path d="M223.93 211.53C218.258 211.567 212.832 213.854 208.846 217.89C204.859 221.925 202.638 227.378 202.67 233.05C202.67 233.765 202.71 234.48 202.79 235.19C207.79 235.25 220.66 235.36 220.66 235.36L229.33 253.67C234.392 252.383 238.808 249.289 241.747 244.972C244.686 240.654 245.945 235.411 245.286 230.23C244.627 225.048 242.096 220.287 238.17 216.843C234.243 213.398 229.193 211.509 223.97 211.53H223.93Z" fill="#3E434B"/>
<path d="M224.04 253.62C234.224 253.62 242.48 245.364 242.48 235.18C242.48 224.996 234.224 216.74 224.04 216.74C213.856 216.74 205.6 224.996 205.6 235.18C205.6 245.364 213.856 253.62 224.04 253.62Z" fill="#95999D"/>
<path d="M231.76 235.14C231.767 236.722 231.312 238.271 230.451 239.597C229.589 240.924 228.359 241.97 226.912 242.607C225.464 243.245 223.862 243.445 222.302 243.185C220.742 242.924 219.292 242.213 218.13 241.14C217.324 240.383 216.681 239.469 216.24 238.456C215.798 237.442 215.568 236.349 215.562 235.243C215.556 234.137 215.776 233.042 216.207 232.024C216.638 231.005 217.272 230.085 218.07 229.32C219.221 228.235 220.665 227.509 222.223 227.233C223.781 226.957 225.386 227.142 226.84 227.765C228.294 228.389 229.535 229.424 230.409 230.743C231.283 232.062 231.753 233.608 231.76 235.19V235.14ZM231.76 235.14C231.705 233.109 230.849 231.183 229.38 229.78C228.33 228.818 227.022 228.184 225.617 227.954C224.212 227.724 222.77 227.909 221.468 228.486C220.167 229.064 219.062 230.008 218.288 231.204C217.515 232.399 217.108 233.795 217.116 235.219C217.124 236.643 217.547 238.033 218.333 239.22C219.12 240.407 220.235 241.339 221.543 241.902C222.851 242.465 224.295 242.634 225.698 242.388C227.1 242.143 228.401 241.493 229.44 240.52C230.894 239.104 231.728 237.169 231.76 235.14V235.14Z" fill="#1B1819"/>
<path d="M11.59 255.5C11.3624 255.514 11.1385 255.438 10.9664 255.288C10.7944 255.138 10.6879 254.927 10.67 254.7C10.6751 254.587 10.7028 254.475 10.7516 254.373C10.8004 254.27 10.8692 254.178 10.954 254.103C11.0388 254.027 11.1379 253.97 11.2455 253.933C11.353 253.897 11.4667 253.882 11.58 253.89L279.51 252.63C279.626 252.612 279.744 252.619 279.857 252.65C279.969 252.682 280.074 252.738 280.163 252.814C280.252 252.89 280.323 252.984 280.372 253.091C280.421 253.197 280.447 253.313 280.447 253.43C280.447 253.547 280.421 253.663 280.372 253.769C280.323 253.875 280.252 253.97 280.163 254.046C280.074 254.122 279.969 254.178 279.857 254.21C279.744 254.241 279.626 254.248 279.51 254.23L11.59 255.5Z" fill="#7F7F7F"/>
<path d="M76.85 81.56C73.25 98.47 69.24 115.28 65.45 132.14C61.39 148.94 57.55 165.79 53.28 182.54C56.87 165.63 60.89 148.82 64.67 131.96C68.74 115.16 72.58 98.32 76.85 81.56Z" fill="#212123"/>
<path d="M265.35 218.55C269.227 218.55 272.37 215.407 272.37 211.53C272.37 207.653 269.227 204.51 265.35 204.51C261.473 204.51 258.33 207.653 258.33 211.53C258.33 215.407 261.473 218.55 265.35 218.55Z" fill="white"/>
<path d="M309.67 229.32C308.838 228.106 307.577 227.252 306.14 226.93C304.694 226.783 303.239 226.766 301.79 226.88L292.99 226.99L275.41 227.22H257.82C256.37 227.22 254.82 227.17 253.45 227.22C252.03 227.385 250.726 228.082 249.8 229.17C248.848 230.272 248.349 231.694 248.405 233.149C248.461 234.604 249.067 235.984 250.1 237.01C249.003 235.981 248.332 234.577 248.221 233.077C248.11 231.577 248.566 230.09 249.5 228.91C250.476 227.72 251.872 226.95 253.4 226.76C254.91 226.65 256.34 226.69 257.82 226.65L275.4 226.43H292.99H301.78C303.255 226.379 304.731 226.463 306.19 226.68C307.645 227.082 308.89 228.027 309.67 229.32V229.32Z" fill="#212123"/>
<path d="M138.17 31.9C138.17 31.9 138.33 28.36 140.72 28.11L139.47 24.11L137.93 27.77L138.17 31.9Z" fill="#212123"/>
<path d="M87.24 142.63C87.0885 142.629 86.9401 142.588 86.81 142.51L71.56 132.73C71.3984 132.607 71.2891 132.427 71.2537 132.227C71.2183 132.027 71.2595 131.821 71.369 131.65C71.4785 131.478 71.6484 131.355 71.845 131.303C72.0415 131.251 72.2503 131.275 72.43 131.37L87.67 141.15C87.8476 141.267 87.9722 141.448 88.0171 141.656C88.062 141.864 88.0235 142.08 87.91 142.26C87.8381 142.373 87.7392 142.466 87.6221 142.53C87.5051 142.595 87.3737 142.629 87.24 142.63V142.63Z" fill="#EFA51F"/>
<path opacity="0.07" d="M148.15 91.32C147.042 89.4344 146.04 87.488 145.15 85.49C144.553 84.1755 144.257 82.7444 144.284 81.301C144.31 79.8576 144.659 78.4383 145.304 77.1467C145.948 75.855 146.873 74.7236 148.011 73.835C149.149 72.9463 150.471 72.3228 151.88 72.01L167.32 68.61C167.32 68.61 150.32 76.92 147.98 81.61C145.58 86.42 148.15 91.32 148.15 91.32Z" fill="#593D14"/>
<path d="M74.3 60.18C73.98 60.18 66.41 60.05 63.22 48.75C60.4 38.75 53.02 38.59 52.7 38.59C52.4866 38.567 52.2893 38.466 52.1459 38.3063C52.0025 38.1466 51.9231 37.9396 51.9231 37.725C51.9231 37.5104 52.0025 37.3033 52.1459 37.1437C52.2893 36.984 52.4866 36.883 52.7 36.86C52.79 36.86 61.7 36.99 64.89 48.28C67.7 58.28 74.03 58.45 74.3 58.45C74.5134 58.473 74.7107 58.574 74.8541 58.7337C74.9975 58.8933 75.0769 59.1004 75.0769 59.315C75.0769 59.5296 74.9975 59.7366 74.8541 59.8963C74.7107 60.056 74.5134 60.157 74.3 60.18V60.18Z" fill="#E23232" fill-opacity="0.35"/>
<path d="M226.81 54C226.674 54.0012 226.54 53.9701 226.418 53.9092C226.296 53.8484 226.191 53.7595 226.11 53.65C225.975 53.4652 225.918 53.2345 225.951 53.008C225.985 52.7815 226.107 52.5774 226.29 52.44C229.573 49.896 232.141 46.5433 233.74 42.71C242.62 23.02 255.44 15.76 255.98 15.46C256.18 15.3486 256.417 15.3213 256.637 15.3841C256.857 15.4469 257.044 15.5947 257.155 15.795C257.266 15.9952 257.294 16.2315 257.231 16.4519C257.168 16.6722 257.02 16.8586 256.82 16.97C256.69 17.05 243.94 24.29 235.32 43.42C233.596 47.5222 230.84 51.1085 227.32 53.83C227.172 53.9391 226.994 53.9986 226.81 54Z" fill="#E23232" fill-opacity="0.35"/>
<path d="M18.67 170.63C18.3798 170.564 18.0782 170.568 17.7897 170.641C17.5012 170.714 17.2341 170.854 17.01 171.05C16.41 171.78 17.15 172.84 17.87 173.46C23.4805 178.288 30.4892 181.193 37.87 181.75L29.21 172.26C28.37 171.34 27.47 170.2 27.74 168.99C28.05 167.62 29.74 166.99 31.13 167.42C32.4303 167.966 33.5083 168.935 34.19 170.17C35.85 172.67 37.49 175.97 37.73 179.02C38.08 183.54 35.25 178.9 33.73 177.47C29.6043 173.588 24.3082 171.182 18.67 170.63V170.63Z" stroke="#E23232" stroke-width="1.72" stroke-miterlimit="10" stroke-linecap="round"/>
<path d="M44.72 169.72C45.17 169.44 45.72 169.17 46.2 169.45C46.3897 169.615 46.5296 169.83 46.6038 170.07C46.678 170.31 46.6836 170.567 46.62 170.81C46.29 173.14 44.44 174.95 42.51 176.3C40.58 177.65 38.43 178.78 36.95 180.6C40.3118 176.988 44.6921 174.484 49.51 173.42C50.3201 173.191 51.1717 173.15 52 173.3C52.3982 173.342 52.7745 173.503 53.0802 173.762C53.3859 174.021 53.6069 174.365 53.7147 174.751C53.8224 175.136 53.8119 175.546 53.6844 175.925C53.557 176.305 53.3186 176.637 53 176.88C52.4563 177.365 51.8296 177.748 51.15 178.01C49.02 178.95 38.51 183.19 36.99 180.48C35.34 177.47 42.67 171.02 44.72 169.72Z" stroke="#E23232" stroke-width="1.72" stroke-miterlimit="10" stroke-linecap="round"/>
<path d="M19.7 217.93L19.66 212.63L19.64 210.26L19.59 204.96L19.57 202.58L19.55 200.6L19.53 197.49V197.29L19.51 194.91L19.47 189.61L19.45 187.24L19.42 183.97L54.86 183.67L54.97 197.2L55 200.31L55.15 218.15L19.7 218.44V217.93Z" fill="#1D1E1E"/>
<path d="M25.04 183.94L19.47 189.61L19.45 187.24L22.66 183.96L25.04 183.94Z" fill="#3D3D3D"/>
<path d="M32.72 183.88L19.53 197.29L19.51 194.91L30.34 183.9L32.72 183.88Z" fill="#3D3D3D"/>
<path d="M40.39 183.82L19.59 204.96L19.57 202.58L38.01 183.84L40.39 183.82Z" fill="#3D3D3D"/>
<path d="M48.06 183.76L19.66 212.63L19.64 210.26L45.69 183.77L48.06 183.76Z" fill="#3D3D3D"/>
<path d="M54.85 184.6L21.58 218.42L19.7 218.44V217.93L53.36 183.71L54.84 183.7L54.85 184.6Z" fill="#3D3D3D"/>
<path d="M54.89 189.89L54.91 192.27L29.25 218.36L26.87 218.38L54.89 189.89Z" fill="#3D3D3D"/>
<path d="M54.96 197.56L54.98 199.94L36.92 218.29L34.55 218.31L54.96 197.56Z" fill="#3D3D3D"/>
<path d="M55.02 205.24L55.04 207.62L44.6 218.23L42.22 218.25L55.02 205.24Z" fill="#3D3D3D"/>
<path d="M55.08 212.91L55.1 215.29L52.27 218.17L49.89 218.19L55.08 212.91Z" fill="#3D3D3D"/>
<path d="M55.9914 179.196L18.2027 179.506L18.2394 183.985L56.0281 183.676L55.9914 179.196Z" fill="#3D3D3D"/>
<path d="M54.8581 183.675L19.4193 183.966L19.4395 186.425L54.8783 186.135L54.8581 183.675Z" fill="#1D1E1E"/>
<path d="M39.0619 179.333L35.952 179.359L36.2718 218.347L39.3817 218.322L39.0619 179.333Z" fill="#E23232"/>
<path d="M54.9491 197.204L19.5103 197.494L19.5358 200.604L54.9746 200.313L54.9491 197.204Z" fill="#E23232"/>
<path d="M39.1186 183.804L36.0087 183.829L36.0289 186.289L39.1388 186.264L39.1186 183.804Z" fill="#292D32" fill-opacity="0.8"/>
<path d="M60.491 219.001L15.2523 219.348L15.5162 253.707L60.7548 253.36L60.491 219.001Z" fill="#ECB426"/>
<path d="M23.09 219.29L15.29 227.21L15.27 224.84L20.71 219.31L23.09 219.29Z" fill="#E5902F"/>
<path d="M30.74 219.24L15.35 234.87L15.33 232.5L28.37 219.25L30.74 219.24Z" fill="#E5902F"/>
<path d="M38.4 219.18L15.41 242.52L15.39 240.15L36.02 219.2L38.4 219.18Z" fill="#E5902F"/>
<path d="M46.05 219.12L15.46 250.18L15.45 247.8L43.68 219.14L46.05 219.12Z" fill="#E5902F"/>
<path d="M53.7 219.06L19.61 253.68L17.23 253.7L51.33 219.08L53.7 219.06Z" fill="#E5902F"/>
<path d="M60.47 219.01V219.91L27.26 253.63L24.89 253.64L58.99 219.02L60.47 219.01Z" fill="#E5902F"/>
<path d="M60.51 225.19L60.53 227.56L34.92 253.57L32.54 253.59L60.51 225.19Z" fill="#E5902F"/>
<path d="M60.57 232.84L60.59 235.21L42.57 253.51L40.2 253.53L60.57 232.84Z" fill="#E5902F"/>
<path d="M60.63 240.5L60.65 242.87L50.23 253.45L47.85 253.47L60.63 240.5Z" fill="#E5902F"/>
<path d="M60.69 248.15L60.7 250.52L57.88 253.39L55.51 253.41L60.69 248.15Z" fill="#E5902F"/>
<path d="M61.9677 217.27L13.7392 217.641L13.783 223.35L62.0116 222.98L61.9677 217.27Z" fill="#ECB426"/>
<path d="M60.5217 223.001L15.283 223.349L15.3071 226.489L60.5458 226.141L60.5217 223.001Z" fill="#E5902F"/>
<path d="M56.177 217.324L52.2171 217.354L52.4944 253.463L56.4543 253.433L56.177 217.324Z" fill="#E23232"/>
<path d="M56.2308 223.034L52.2709 223.065L52.295 226.205L56.2549 226.174L56.2308 223.034Z" fill="#292D32" fill-opacity="0.6"/>
<path d="M23.2399 217.577L19.28 217.607L19.5573 253.716L23.5172 253.686L23.2399 217.577Z" fill="#E23232"/>
<path d="M23.2837 223.287L19.3238 223.318L19.3479 226.457L23.3078 226.427L23.2837 223.287Z" fill="#292D32" fill-opacity="0.6"/>
<g opacity="0.36">
<path opacity="0.36" d="M234.59 193.79C236.53 194.152 238.436 194.674 240.29 195.35C241.21 195.71 242.14 196.05 243.02 196.5C243.935 196.9 244.761 197.477 245.45 198.2C244.638 197.661 243.761 197.228 242.84 196.91C241.93 196.55 241.02 196.21 240.1 195.91C238.27 195.19 236.41 194.57 234.59 193.79Z" fill="white"/>
</g>
<g opacity="0.36">
<path opacity="0.36" d="M294.33 192.61C296.545 192.479 298.759 192.877 300.79 193.77C301.797 194.253 302.724 194.887 303.54 195.65C304.329 196.438 304.94 197.386 305.33 198.43C304.763 197.511 304.058 196.685 303.24 195.98C302.422 195.302 301.518 194.737 300.55 194.3C299.585 193.854 298.581 193.499 297.55 193.24C296.492 192.958 295.416 192.747 294.33 192.61V192.61Z" fill="white"/>
</g>
<g opacity="0.5">
<path opacity="0.5" d="M26.87 14.54C25.43 14.54 24.0225 14.1123 22.8259 13.3112C21.6293 12.5102 20.6975 11.3718 20.1488 10.0404C19.6 8.70911 19.459 7.2448 19.7436 5.83321C20.0282 4.42162 20.7256 3.12634 21.7473 2.11163C22.769 1.09692 24.0691 0.408494 25.4826 0.133652C26.8961 -0.141191 28.3594 0.00993168 29.6869 0.567856C31.0145 1.12578 32.1464 2.06537 32.9392 3.26747C33.732 4.46958 34.1499 5.88005 34.14 7.32C34.1242 9.23863 33.3516 11.0734 31.9902 12.4255C30.6288 13.7775 28.7887 14.5374 26.87 14.54V14.54ZM26.87 0.780002C25.5885 0.780041 24.3358 1.15944 23.2696 1.87039C22.2034 2.58133 21.3716 3.59199 20.879 4.77497C20.3863 5.95796 20.2549 7.26031 20.5013 8.51786C20.7477 9.77542 21.3609 10.9319 22.2635 11.8415C23.1661 12.7511 24.3179 13.3731 25.5735 13.6291C26.8291 13.8852 28.1324 13.7638 29.3192 13.2802C30.5059 12.7967 31.5229 11.9726 32.242 10.9119C32.9611 9.85125 33.3501 8.60143 33.36 7.32C33.3653 6.46389 33.2014 5.61518 32.8777 4.82259C32.554 4.03 32.077 3.30917 31.4739 2.70147C30.8709 2.09378 30.1537 1.61121 29.3636 1.28146C28.5736 0.95172 27.7261 0.781303 26.87 0.780002V0.780002Z" fill="#FEBF4F"/>
</g>
<path opacity="0.5" d="M51.67 96.68C51.672 97.1986 51.52 97.7062 51.2333 98.1383C50.9466 98.5705 50.5382 98.9079 50.0596 99.1077C49.581 99.3075 49.0539 99.3608 48.545 99.2609C48.0361 99.1609 47.5684 98.9122 47.201 98.5462C46.8335 98.1802 46.583 97.7133 46.4811 97.2048C46.3792 96.6963 46.4305 96.169 46.6285 95.6897C46.8265 95.2104 47.1623 94.8006 47.5934 94.5123C48.0244 94.2239 48.5314 94.07 49.05 94.07C49.7431 94.07 50.408 94.3447 50.8991 94.8338C51.3902 95.323 51.6674 95.9869 51.67 96.68V96.68Z" fill="#F04E5A"/>
<path opacity="0.5" d="M255.56 101.24C255.56 101.636 255.443 102.022 255.223 102.351C255.003 102.68 254.691 102.936 254.325 103.088C253.96 103.239 253.558 103.279 253.17 103.202C252.782 103.124 252.426 102.934 252.146 102.654C251.866 102.375 251.676 102.018 251.598 101.63C251.521 101.242 251.561 100.84 251.712 100.475C251.864 100.109 252.12 99.7968 252.449 99.5771C252.778 99.3573 253.164 99.24 253.56 99.24C254.09 99.24 254.599 99.4507 254.974 99.8258C255.349 100.201 255.56 100.71 255.56 101.24Z" fill="#FEBF4F"/>
<path opacity="0.5" d="M12.67 37.72C12.67 38.1156 12.5527 38.5022 12.333 38.8311C12.1132 39.16 11.8008 39.4164 11.4354 39.5678C11.0699 39.7191 10.6678 39.7587 10.2798 39.6816C9.89187 39.6044 9.5355 39.4139 9.2558 39.1342C8.97609 38.8545 8.78561 38.4981 8.70844 38.1102C8.63127 37.7222 8.67088 37.3201 8.82226 36.9546C8.97363 36.5892 9.22998 36.2768 9.55888 36.0571C9.88777 35.8373 10.2745 35.72 10.67 35.72C11.2004 35.72 11.7092 35.9307 12.0842 36.3058C12.4593 36.6809 12.67 37.1896 12.67 37.72Z" fill="#F04E5A"/>
<path opacity="0.5" d="M3.34999 101.24C3.34999 101.529 3.2641 101.812 3.10323 102.052C2.94235 102.292 2.71374 102.48 2.44637 102.59C2.17901 102.7 1.88494 102.728 1.60146 102.671C1.31798 102.614 1.05786 102.474 0.854074 102.269C0.650294 102.064 0.512039 101.803 0.456839 101.519C0.401638 101.235 0.431981 100.941 0.54402 100.674C0.656059 100.408 0.844745 100.18 1.08615 100.021C1.32756 99.8619 1.61081 99.778 1.89999 99.78C2.09125 99.78 2.28063 99.8178 2.4572 99.8913C2.63378 99.9648 2.79407 100.073 2.92885 100.208C3.06363 100.344 3.17022 100.505 3.2425 100.682C3.31478 100.859 3.35131 101.049 3.34999 101.24V101.24Z" stroke="#00B0AA" stroke-width="0.89" stroke-miterlimit="10"/>
<path opacity="0.5" d="M27.57 129.9C27.57 130.189 27.4844 130.471 27.324 130.711C27.1635 130.951 26.9355 131.138 26.6687 131.249C26.4019 131.359 26.1084 131.388 25.8252 131.332C25.542 131.276 25.2818 131.137 25.0776 130.932C24.8734 130.728 24.7344 130.468 24.6781 130.185C24.6217 129.902 24.6506 129.608 24.7611 129.341C24.8716 129.075 25.0588 128.846 25.2989 128.686C25.539 128.526 25.8212 128.44 26.11 128.44C26.4972 128.44 26.8686 128.594 27.1424 128.868C27.4162 129.141 27.57 129.513 27.57 129.9V129.9Z" stroke="#00B0AA" stroke-width="0.89" stroke-miterlimit="10"/>
<g opacity="0.5">
<path opacity="0.5" d="M26.11 87.62C26.11 87.9096 26.0238 88.1927 25.8625 88.4332C25.7012 88.6737 25.4719 88.8608 25.204 88.9707C24.9361 89.0805 24.6415 89.1083 24.3577 89.0503C24.074 88.9923 23.8139 88.8513 23.6105 88.6451C23.4072 88.4389 23.2697 88.1769 23.2157 87.8924C23.1616 87.6078 23.1934 87.3137 23.307 87.0473C23.4205 86.7809 23.6108 86.5543 23.8535 86.3963C24.0962 86.2383 24.3804 86.156 24.67 86.16C24.8604 86.1613 25.0487 86.2001 25.2241 86.2742C25.3996 86.3483 25.5587 86.4562 25.6924 86.5918C25.8261 86.7273 25.9318 86.8879 26.0035 87.0643C26.0751 87.2408 26.1113 87.4296 26.11 87.62V87.62Z" fill="#447ABD"/>
</g>
<g opacity="0.5">
<path opacity="0.5" d="M36.77 65.87C35.2862 65.87 33.8358 65.4299 32.6022 64.6053C31.3686 63.7808 30.4073 62.6088 29.84 61.2378C29.2726 59.8668 29.1247 58.3583 29.4149 56.9031C29.7051 55.448 30.4204 54.1117 31.4702 53.0632C32.5201 52.0147 33.8574 51.3012 35.313 51.0129C36.7685 50.7246 38.2768 50.8746 39.6471 51.4438C41.0173 52.013 42.188 52.9758 43.0109 54.2105C43.8338 55.4452 44.272 56.8962 44.27 58.38C44.2647 60.3666 43.4725 62.2701 42.0669 63.6739C40.6612 65.0777 38.7566 65.8674 36.77 65.87V65.87ZM36.77 51.94C35.4963 51.94 34.2512 52.3177 33.1921 53.0253C32.1331 53.733 31.3076 54.7388 30.8202 55.9155C30.3328 57.0923 30.2053 58.3871 30.4537 59.6364C30.7022 60.8856 31.3156 62.0331 32.2162 62.9338C33.1169 63.8344 34.2644 64.4478 35.5136 64.6963C36.7629 64.9447 38.0577 64.8172 39.2345 64.3298C40.4112 63.8424 41.417 63.0169 42.1247 61.9579C42.8323 60.8988 43.21 59.6537 43.21 58.38C43.21 56.672 42.5315 55.034 41.3238 53.8262C40.116 52.6185 38.478 51.94 36.77 51.94Z" fill="#00B0AA"/>
</g>
<g opacity="0.5">
<path opacity="0.5" d="M286.34 95.49C285.507 95.492 284.692 95.2467 283.998 94.7853C283.305 94.324 282.764 93.6671 282.443 92.898C282.123 92.1289 282.038 91.2821 282.2 90.4648C282.361 89.6475 282.761 88.8964 283.35 88.3066C283.938 87.7169 284.688 87.3149 285.505 87.1516C286.322 86.9884 287.169 87.0712 287.939 87.3895C288.709 87.7079 289.367 88.2475 289.83 88.94C290.293 89.6326 290.54 90.4469 290.54 91.28C290.537 92.394 290.094 93.4618 289.308 94.2505C288.521 95.0392 287.454 95.4847 286.34 95.49V95.49ZM286.34 87.62C285.613 87.618 284.902 87.8318 284.297 88.2343C283.692 88.6368 283.22 89.2099 282.941 89.8809C282.662 90.5519 282.589 91.2907 282.73 92.0035C282.871 92.7164 283.221 93.3712 283.735 93.8851C284.249 94.3989 284.904 94.7487 285.616 94.89C286.329 95.0313 287.068 94.9577 287.739 94.6787C288.41 94.3997 288.983 93.9278 289.386 93.3227C289.788 92.7176 290.002 92.0067 290 91.28C290 90.3093 289.614 89.3784 288.928 88.692C288.242 88.0056 287.311 87.62 286.34 87.62V87.62Z" fill="#447ABD"/>
</g>
<g opacity="0.5">
<path opacity="0.5" d="M344.82 153.96C343.336 153.962 341.884 153.524 340.649 152.7C339.415 151.877 338.452 150.706 337.883 149.335C337.314 147.964 337.165 146.455 337.454 144.999C337.743 143.544 338.457 142.206 339.507 141.157C340.556 140.107 341.894 139.393 343.349 139.104C344.805 138.815 346.314 138.964 347.685 139.533C349.056 140.102 350.227 141.065 351.05 142.299C351.874 143.534 352.312 144.986 352.31 146.47C352.307 148.456 351.517 150.359 350.113 151.763C348.709 153.167 346.806 153.957 344.82 153.96V153.96ZM344.82 139.78C343.496 139.778 342.202 140.169 341.101 140.903C339.999 141.637 339.14 142.681 338.632 143.903C338.124 145.125 337.99 146.471 338.247 147.769C338.504 149.067 339.141 150.26 340.076 151.197C341.011 152.134 342.203 152.772 343.501 153.031C344.799 153.29 346.145 153.158 347.368 152.652C348.591 152.146 349.636 151.288 350.372 150.188C351.107 149.087 351.5 147.794 351.5 146.47C351.5 144.697 350.797 142.997 349.544 141.743C348.292 140.489 346.593 139.783 344.82 139.78V139.78Z" fill="#F04E5A"/>
</g>
<path opacity="0.5" d="M282.91 124.18C282.91 124.773 282.734 125.353 282.404 125.847C282.075 126.34 281.606 126.725 281.058 126.952C280.51 127.179 279.907 127.238 279.325 127.122C278.743 127.007 278.208 126.721 277.789 126.301C277.369 125.882 277.083 125.347 276.968 124.765C276.852 124.183 276.911 123.58 277.138 123.032C277.365 122.484 277.75 122.015 278.243 121.686C278.737 121.356 279.317 121.18 279.91 121.18C280.706 121.18 281.469 121.496 282.031 122.059C282.594 122.621 282.91 123.384 282.91 124.18Z" fill="#FEBF4F"/>
<g opacity="0.5">
<path opacity="0.5" d="M343.32 201.99C343.32 202.287 343.232 202.577 343.067 202.823C342.902 203.07 342.668 203.262 342.394 203.376C342.12 203.489 341.818 203.519 341.527 203.461C341.236 203.403 340.969 203.26 340.759 203.051C340.55 202.841 340.407 202.574 340.349 202.283C340.291 201.992 340.321 201.69 340.434 201.416C340.548 201.142 340.74 200.908 340.987 200.743C341.233 200.578 341.523 200.49 341.82 200.49C342.218 200.49 342.599 200.648 342.881 200.929C343.162 201.211 343.32 201.592 343.32 201.99V201.99Z" fill="#FFCA66"/>
</g>
<g opacity="0.5">
<path opacity="0.5" d="M316.67 108.81C316.67 109.107 316.582 109.397 316.417 109.643C316.252 109.89 316.018 110.082 315.744 110.196C315.47 110.309 315.168 110.339 314.877 110.281C314.586 110.223 314.319 110.08 314.109 109.871C313.9 109.661 313.757 109.394 313.699 109.103C313.641 108.812 313.671 108.51 313.784 108.236C313.898 107.962 314.09 107.728 314.337 107.563C314.583 107.398 314.873 107.31 315.17 107.31C315.568 107.31 315.949 107.468 316.231 107.749C316.512 108.031 316.67 108.412 316.67 108.81Z" fill="#447ABD"/>
</g>
<g opacity="0.5">
<path opacity="0.5" d="M265.78 161.68C264.431 161.68 263.113 161.28 261.991 160.531C260.869 159.781 259.995 158.716 259.479 157.47C258.963 156.224 258.828 154.852 259.091 153.53C259.354 152.207 260.004 150.991 260.958 150.038C261.911 149.084 263.127 148.434 264.449 148.171C265.772 147.908 267.144 148.043 268.39 148.559C269.636 149.075 270.701 149.949 271.451 151.071C272.2 152.193 272.6 153.511 272.6 154.86C272.597 156.668 271.878 158.401 270.6 159.68C269.321 160.958 267.588 161.677 265.78 161.68ZM265.78 148.85C264.593 148.85 263.433 149.202 262.447 149.861C261.46 150.52 260.691 151.458 260.237 152.554C259.783 153.65 259.664 154.857 259.895 156.021C260.127 157.184 260.698 158.254 261.537 159.093C262.377 159.932 263.446 160.503 264.609 160.735C265.773 160.966 266.98 160.847 268.076 160.393C269.172 159.939 270.11 159.17 270.769 158.183C271.428 157.197 271.78 156.037 271.78 154.85C271.78 153.259 271.148 151.733 270.023 150.607C268.897 149.482 267.371 148.85 265.78 148.85V148.85Z" fill="#00B0AA"/>
</g>
<g opacity="0.5">
<path opacity="0.5" d="M336.42 251.05C335.52 251.05 334.64 250.783 333.892 250.283C333.144 249.783 332.561 249.073 332.216 248.241C331.872 247.41 331.782 246.495 331.957 245.612C332.133 244.73 332.566 243.919 333.203 243.283C333.839 242.646 334.65 242.213 335.532 242.037C336.415 241.862 337.33 241.952 338.161 242.296C338.993 242.641 339.703 243.224 340.203 243.972C340.703 244.72 340.97 245.6 340.97 246.5C340.97 247.098 340.852 247.689 340.624 248.241C340.395 248.793 340.06 249.295 339.637 249.717C339.215 250.14 338.713 250.475 338.161 250.704C337.609 250.932 337.018 251.05 336.42 251.05V251.05ZM336.42 242.76C335.677 242.758 334.951 242.977 334.333 243.388C333.715 243.799 333.232 244.385 332.947 245.07C332.662 245.756 332.587 246.511 332.732 247.239C332.876 247.967 333.233 248.637 333.758 249.162C334.283 249.687 334.953 250.044 335.681 250.188C336.409 250.333 337.164 250.258 337.85 249.973C338.535 249.688 339.121 249.205 339.532 248.587C339.943 247.969 340.162 247.243 340.16 246.5C340.157 245.509 339.762 244.559 339.062 243.858C338.361 243.158 337.411 242.763 336.42 242.76Z" fill="#F7B3D1"/>
</g>
<path d="M309.74 174.01C308.837 174.012 307.954 173.746 307.203 173.246C306.451 172.745 305.865 172.033 305.519 171.2C305.173 170.366 305.082 169.448 305.257 168.563C305.433 167.677 305.867 166.864 306.506 166.226C307.144 165.587 307.957 165.153 308.843 164.977C309.728 164.802 310.646 164.893 311.48 165.239C312.313 165.585 313.025 166.171 313.526 166.923C314.026 167.674 314.292 168.557 314.29 169.46C314.29 170.667 313.811 171.824 312.957 172.677C312.104 173.531 310.947 174.01 309.74 174.01V174.01ZM309.74 165.71C308.998 165.708 308.272 165.926 307.654 166.337C307.036 166.748 306.554 167.333 306.268 168.018C305.983 168.703 305.907 169.457 306.051 170.185C306.194 170.914 306.551 171.583 307.075 172.108C307.599 172.634 308.267 172.992 308.995 173.137C309.722 173.283 310.477 173.209 311.163 172.925C311.849 172.642 312.435 172.161 312.847 171.544C313.26 170.928 313.48 170.202 313.48 169.46C313.48 168.467 313.086 167.515 312.385 166.812C311.684 166.109 310.733 165.713 309.74 165.71Z" fill="#447ABD"/>
<path d="M162.92 57.88C163.06 57.59 163.18 57.29 163.34 57.02C163.393 56.9364 163.422 56.8392 163.422 56.74C163.422 56.6408 163.393 56.5436 163.34 56.46C162.15 54.18 160.96 51.89 159.79 49.6C159.744 49.4956 159.668 49.407 159.572 49.3449C159.476 49.2828 159.364 49.2498 159.25 49.25C158.611 49.2182 157.992 49.02 157.453 48.6751C156.915 48.3302 156.476 47.8505 156.179 47.2835C155.883 46.7166 155.741 46.0822 155.765 45.4431C155.79 44.804 155.981 44.1824 156.32 43.64C156.356 43.5365 156.424 43.4468 156.514 43.3833C156.603 43.3199 156.71 43.2858 156.82 43.2858C156.93 43.2858 157.037 43.3199 157.126 43.3833C157.216 43.4468 157.284 43.5365 157.32 43.64C157.63 44.19 157.91 44.76 158.2 45.32C158.282 45.5014 158.412 45.657 158.576 45.7698C158.74 45.8826 158.931 45.9484 159.13 45.96C159.317 45.9708 159.504 45.9317 159.671 45.8467C159.838 45.7618 159.98 45.634 160.082 45.4764C160.183 45.3188 160.241 45.1371 160.25 44.9497C160.258 44.7624 160.217 44.5761 160.13 44.41C159.86 43.86 159.57 43.32 159.29 42.78C159.214 42.683 159.169 42.5655 159.16 42.4426C159.151 42.3197 159.179 42.197 159.24 42.09C159.41 41.83 159.66 41.84 159.93 41.86C160.537 41.9255 161.117 42.14 161.621 42.4844C162.125 42.8287 162.535 43.2922 162.816 43.8337C163.097 44.3751 163.24 44.9776 163.232 45.5877C163.224 46.1977 163.065 46.7962 162.77 47.33C162.671 47.478 162.618 47.652 162.618 47.83C162.618 48.008 162.671 48.182 162.77 48.33C163.923 50.51 165.057 52.6967 166.17 54.89C166.219 55.0109 166.303 55.1139 166.412 55.1854C166.521 55.2569 166.65 55.2934 166.78 55.29C167.411 55.3289 168.021 55.5301 168.552 55.8741C169.082 56.2181 169.514 56.6933 169.807 57.2536C170.1 57.8139 170.243 58.4404 170.222 59.0722C170.202 59.704 170.018 60.3199 169.69 60.86C169.39 61.35 168.93 61.33 168.69 60.86C168.45 60.39 168.11 59.71 167.8 59.15C167.675 58.9223 167.469 58.7492 167.223 58.6642C166.978 58.5792 166.709 58.5884 166.47 58.69C166.233 58.7764 166.038 58.9491 165.923 59.1734C165.808 59.3978 165.782 59.6573 165.85 59.9C165.888 60.0438 165.945 60.1818 166.02 60.31L166.81 61.86C167.06 62.36 166.81 62.74 166.25 62.71C165.684 62.6806 165.132 62.5215 164.637 62.245C164.142 61.9685 163.717 61.5819 163.395 61.1151C163.074 60.6484 162.863 60.1139 162.781 59.5529C162.699 58.992 162.746 58.4196 162.92 57.88V57.88Z" fill="#58595B"/>
<path d="M166.06 66.99C170.727 66.99 174.51 63.2068 174.51 58.54C174.51 53.8732 170.727 50.09 166.06 50.09C161.393 50.09 157.61 53.8732 157.61 58.54C157.61 63.2068 161.393 66.99 166.06 66.99Z" fill="#FDC069"/>
<g opacity="0.41">
<path opacity="0.41" d="M163.95 54C162.73 54.93 161.47 55.77 160.32 56.73C159.733 57.1875 159.181 57.6889 158.67 58.23C158.128 58.7434 157.755 59.4095 157.6 60.14C157.552 59.3432 157.814 58.5588 158.33 57.95C158.814 57.3381 159.36 56.7784 159.96 56.28C161.166 55.3204 162.511 54.5514 163.95 54V54Z" fill="#603913"/>
</g>
<g opacity="0.41">
<path opacity="0.41" d="M165.45 57.43C164.24 58.37 162.98 59.21 161.83 60.17C161.241 60.6214 160.689 61.1197 160.18 61.66C159.636 62.1722 159.263 62.8388 159.11 63.57C159.081 63.1748 159.131 62.7778 159.256 62.402C159.381 62.0261 159.58 61.6787 159.84 61.38C160.318 60.7691 160.861 60.2124 161.46 59.72C162.667 58.7594 164.012 57.9873 165.45 57.43V57.43Z" fill="#603913"/>
</g>
<g opacity="0.41">
<path opacity="0.41" d="M167.3 60.5C166.22 61.37 165.09 62.12 164.06 62.98C163.531 63.3896 163.033 63.8375 162.57 64.32C162.076 64.7792 161.728 65.3741 161.57 66.03C161.51 65.3049 161.74 64.5858 162.21 64.03C162.642 63.4797 163.132 62.9768 163.67 62.53C164.763 61.6629 165.989 60.9775 167.3 60.5V60.5Z" fill="#603913"/>
</g>
</g>
</g>
<defs>
<clipPath id="clip0_107_8682">
<rect width="358" height="254" fill="white"/>
</clipPath>
<clipPath id="clip1_107_8682">
<rect width="365.97" height="255.5" fill="white"/>
</clipPath>
</defs>
</svg>
